<svg width="1440" height="1024" viewBox="0 0 1440 1024" fill="none" xmlns="http://www.w3.org/2000/svg">
<g clip-path="url(#clip0_1_1835)">
<rect width="1440" height="1024" fill="white"/>
<path d="M1512 1040H-72V-16H1512V1040Z" fill="url(#paint0_radial_1_1835)"/>
<path d="M1439.84 267.652C1436.26 226.114 1418.47 185.514 1386.65 153.814L1232.98 0H713L1126.73 414.126C1198.5 485.958 1315.04 485.958 1386.8 414.126C1418.63 382.27 1436.26 341.826 1440 300.288V267.652H1439.84Z" fill="url(#paint1_radial_1_1835)"/>
<path d="M-100.844 756.348C-97.2558 797.886 -79.4709 838.486 -47.6451 870.186L106.023 1024H626L212.265 609.874C140.501 538.042 23.9629 538.042 -47.8011 609.874C-79.6268 641.73 -97.2558 682.174 -101 723.712V756.348H-100.844Z" fill="url(#paint2_radial_1_1835)"/>
<g opacity="0.6">
<mask id="mask0_1_1835" style="mask-type:luminance" maskUnits="userSpaceOnUse" x="-123" y="-49" width="1685" height="1123">
<path d="M-122 1073.67L1562 1073.67L1562 -49.0001L-122 -49.0001L-122 1073.67Z" fill="white"/>
</mask>
<g mask="url(#mask0_1_1835)">
<path d="M540.889 26.3668C542.005 26.3668 542.91 25.462 542.91 24.346C542.91 23.2299 542.005 22.3252 540.889 22.3252C539.773 22.3252 538.868 23.2299 538.868 24.346C538.868 25.462 539.773 26.3668 540.889 26.3668Z" fill="white"/>
<path d="M736.907 356.206C736.907 355.083 736.009 354.185 734.886 354.185C733.763 354.185 732.865 355.083 732.865 356.206C732.865 357.329 733.763 358.227 734.886 358.227C736.009 358.227 736.907 357.329 736.907 356.206Z" fill="white"/>
<path d="M637.887 28.163C637.887 26.3668 636.54 25.0195 634.744 25.0195C632.948 25.0195 631.601 26.3668 631.601 28.163C631.601 29.9593 632.948 31.3065 634.744 31.3065C636.54 31.3065 637.887 29.9593 637.887 28.163Z" fill="white"/>
<path d="M1053.5 235.856C1055.23 235.856 1056.64 234.449 1056.64 232.713C1056.64 230.977 1055.23 229.569 1053.5 229.569C1051.76 229.569 1050.36 230.977 1050.36 232.713C1050.36 234.449 1051.76 235.856 1053.5 235.856Z" fill="white"/>
<path d="M874.321 181.295C874.321 179.274 872.525 177.478 870.504 177.478C868.483 177.478 866.687 179.274 866.687 181.295C866.687 183.315 868.483 185.112 870.504 185.112C872.749 185.336 874.321 183.54 874.321 181.295Z" fill="white"/>
<path d="M1144.43 128.305C1144.43 126.284 1142.86 124.712 1140.84 124.712C1138.82 124.712 1137.25 126.284 1137.25 128.305C1137.25 130.326 1138.82 131.897 1140.84 131.897C1142.86 131.897 1144.43 130.326 1144.43 128.305Z" fill="white"/>
<path d="M821.331 111.914C821.331 109.893 819.759 108.321 817.739 108.321C815.718 108.321 814.146 109.893 814.146 111.914C814.146 113.935 815.718 115.506 817.739 115.506C819.759 115.506 821.331 113.935 821.331 111.914Z" fill="white"/>
<path d="M877.914 471.392C877.914 469.371 876.342 467.799 874.321 467.799C872.3 467.799 870.729 469.371 870.729 471.392C870.729 473.413 872.3 474.984 874.321 474.984C876.342 474.984 877.914 473.188 877.914 471.392Z" fill="white"/>
<path d="M339.707 1005.56C339.707 1003.31 337.911 1001.74 335.89 1001.74C333.645 1001.74 332.073 1003.54 332.073 1005.56C332.073 1007.8 333.869 1009.37 335.89 1009.37C337.911 1009.37 339.707 1007.8 339.707 1005.56Z" fill="white"/>
<path d="M1039.35 151.656C1039.35 148.288 1036.66 145.369 1033.07 145.369C1029.7 145.369 1026.78 148.064 1026.78 151.656C1026.78 155.024 1029.47 157.943 1033.07 157.943C1036.66 157.943 1039.35 155.024 1039.35 151.656Z" fill="white"/>
<path d="M69.8182 822.786C69.8182 821.439 68.6956 820.316 67.3484 820.316C66.0012 820.316 64.8785 821.439 64.8785 822.786C64.8785 824.133 66.0012 825.256 67.3484 825.256C68.6956 825.256 69.8182 824.133 69.8182 822.786Z" fill="white"/>
<path d="M647.318 270.659C648.806 270.659 650.012 269.452 650.012 267.964C650.012 266.476 648.806 265.27 647.318 265.27C645.83 265.27 644.624 266.476 644.624 267.964C644.624 269.452 645.83 270.659 647.318 270.659Z" fill="white"/>
<path d="M398.311 14.0174C401.287 14.0174 403.699 11.6047 403.699 8.62853C403.699 5.65238 401.287 3.23975 398.311 3.23975C395.334 3.23975 392.922 5.65238 392.922 8.62853C392.922 11.6047 395.334 14.0174 398.311 14.0174Z" fill="white"/>
<path d="M299.74 613.97C299.74 611.725 297.944 609.929 295.699 609.929C293.453 609.929 291.657 611.725 291.657 613.97C291.657 616.216 293.453 618.012 295.699 618.012C297.944 618.012 299.74 616.216 299.74 613.97Z" fill="white"/>
<path d="M589.837 681.33C589.837 678.411 587.592 676.166 584.673 676.166C581.754 676.166 579.509 678.411 579.509 681.33C579.509 684.249 581.754 686.494 584.673 686.494C587.368 686.494 589.837 684.249 589.837 681.33Z" fill="white"/>
<path d="M620.823 703.784C622.683 703.784 624.191 702.276 624.191 700.416C624.191 698.556 622.683 697.048 620.823 697.048C618.963 697.048 617.455 698.556 617.455 700.416C617.455 702.276 618.963 703.784 620.823 703.784Z" fill="white"/>
<path d="M382.818 508.44C382.818 506.419 381.021 504.623 379.001 504.623C376.98 504.623 375.184 506.419 375.184 508.44C375.184 510.46 376.98 512.257 379.001 512.257C381.021 512.481 382.818 510.685 382.818 508.44Z" fill="white"/>
<path d="M679.651 162.209C682.007 162.209 683.917 160.299 683.917 157.943C683.917 155.587 682.007 153.677 679.651 153.677C677.295 153.677 675.385 155.587 675.385 157.943C675.385 160.299 677.295 162.209 679.651 162.209Z" fill="white"/>
<path d="M1066.97 318.934C1066.97 316.688 1065.17 314.667 1062.7 314.667C1060.23 314.667 1058.44 316.464 1058.44 318.934C1058.44 321.403 1060.23 323.2 1062.7 323.2C1065.17 323.2 1066.97 321.403 1066.97 318.934Z" fill="white"/>
<path d="M354.302 681.33C356.658 681.33 358.568 679.42 358.568 677.064C358.568 674.708 356.658 672.798 354.302 672.798C351.946 672.798 350.036 674.708 350.036 677.064C350.036 679.42 351.946 681.33 354.302 681.33Z" fill="white"/>
<path d="M1188.67 713.439C1190.9 713.439 1192.71 711.629 1192.71 709.397C1192.71 707.165 1190.9 705.355 1188.67 705.355C1186.44 705.355 1184.63 707.165 1184.63 709.397C1184.63 711.629 1186.44 713.439 1188.67 713.439Z" fill="white"/>
<path d="M223.848 463.309C223.848 460.839 221.827 458.818 219.357 458.818C216.888 458.818 214.867 460.839 214.867 463.309C214.867 465.778 216.888 467.799 219.357 467.799C221.827 467.799 223.848 465.778 223.848 463.309Z" fill="white"/>
<path d="M160.305 63.6391C160.305 61.1692 158.284 59.1484 155.815 59.1484C153.345 59.1484 151.324 61.1692 151.324 63.6391C151.324 66.109 153.345 68.1298 155.815 68.1298C158.284 68.1298 160.305 66.109 160.305 63.6391Z" fill="white"/>
<path d="M1028.35 79.5808C1028.35 78.4582 1027.45 77.5601 1026.33 77.5601C1025.21 77.5601 1024.31 78.4582 1024.31 79.5808C1024.31 80.7035 1025.21 81.6016 1026.33 81.6016C1027.45 81.6016 1028.35 80.7035 1028.35 79.5808Z" fill="white"/>
<path d="M268.081 465.778C268.081 464.655 267.183 463.757 266.06 463.757C264.938 463.757 264.039 464.655 264.039 465.778C264.039 466.901 264.938 467.799 266.06 467.799C267.183 467.574 268.081 466.676 268.081 465.778Z" fill="white"/>
<path d="M1157.46 100.238C1157.46 99.1154 1156.56 98.2173 1155.44 98.2173C1154.31 98.2173 1153.42 99.1154 1153.42 100.238C1153.42 101.361 1154.31 102.259 1155.44 102.259C1156.56 102.259 1157.46 101.361 1157.46 100.238Z" fill="white"/>
<path d="M841.764 94.4002C841.764 93.2775 840.866 92.3794 839.743 92.3794C838.62 92.3794 837.722 93.2775 837.722 94.4002C837.722 95.5229 838.62 96.421 839.743 96.421C840.866 96.421 841.764 95.5229 841.764 94.4002Z" fill="white"/>
<path d="M1245.7 705.805C1245.7 703.559 1243.9 701.763 1241.66 701.763C1239.41 701.763 1237.62 703.559 1237.62 705.805C1237.62 708.05 1239.41 709.846 1241.66 709.846C1243.9 709.846 1245.7 708.05 1245.7 705.805Z" fill="white"/>
<path d="M1156.56 347.449C1156.56 345.653 1155.21 344.306 1153.42 344.306C1151.62 344.306 1150.27 345.653 1150.27 347.449C1150.27 349.245 1151.62 350.593 1153.42 350.593C1155.21 350.593 1156.56 349.245 1156.56 347.449Z" fill="white"/>
<path d="M729.497 27.2648C730.613 27.2648 731.518 26.36 731.518 25.244C731.518 24.1279 730.613 23.2231 729.497 23.2231C728.381 23.2231 727.476 24.1279 727.476 25.244C727.476 26.36 728.381 27.2648 729.497 27.2648Z" fill="white"/>
<path d="M941.232 332.855C941.232 331.283 939.885 330.16 938.538 330.16C936.966 330.16 935.843 331.507 935.843 332.855C935.843 334.426 937.19 335.549 938.538 335.549C939.885 335.549 941.232 334.426 941.232 332.855Z" fill="white"/>
<path d="M901.714 294.01C902.83 294.01 903.735 293.106 903.735 291.99C903.735 290.873 902.83 289.969 901.714 289.969C900.598 289.969 899.693 290.873 899.693 291.99C899.693 293.106 900.598 294.01 901.714 294.01Z" fill="white"/>
<path d="M604.657 14.0171C604.657 12.4454 603.309 11.0981 601.738 11.0981C600.166 11.0981 598.819 12.4454 598.819 14.0171C598.819 15.5888 600.166 16.936 601.738 16.936C603.309 16.936 604.657 15.8134 604.657 14.0171Z" fill="white"/>
<path d="M404.822 350.593C404.822 347.449 402.352 344.979 399.209 344.979C396.065 344.979 393.595 347.449 393.595 350.593C393.595 353.736 396.065 356.206 399.209 356.206C402.352 356.206 404.822 353.736 404.822 350.593Z" fill="white"/>
<path d="M583.101 225.303C583.101 222.16 580.632 219.69 577.488 219.69C574.345 219.69 571.875 222.16 571.875 225.303C571.875 228.447 574.345 230.917 577.488 230.917C580.632 230.692 583.101 228.222 583.101 225.303Z" fill="white"/>
<path d="M782.712 257.86C782.712 254.717 780.242 252.247 777.098 252.247C773.955 252.247 771.485 254.717 771.485 257.86C771.485 261.004 773.955 263.474 777.098 263.474C780.242 263.474 782.712 261.004 782.712 257.86Z" fill="white"/>
<path d="M1240.09 535.159C1240.98 536.057 1242.11 536.057 1243 535.159C1243.9 534.261 1243.9 533.138 1243 532.24C1242.11 531.342 1240.98 531.342 1240.09 532.24C1239.19 533.138 1239.41 534.261 1240.09 535.159Z" fill="white"/>
<path d="M1170.26 599.6C1171.38 600.723 1173.4 600.723 1174.52 599.6C1175.64 598.478 1175.64 596.457 1174.52 595.334C1173.4 594.212 1171.38 594.212 1170.26 595.334C1169.13 596.457 1169.13 598.253 1170.26 599.6Z" fill="white"/>
<path d="M729.497 750.936C730.62 752.058 732.641 752.058 733.763 750.936C734.886 749.813 734.886 747.792 733.763 746.67C732.641 745.547 730.62 745.547 729.497 746.67C728.375 747.792 728.375 749.589 729.497 750.936Z" fill="white"/>
<path d="M855.909 697.048C857.481 698.619 859.951 698.619 861.298 697.048C862.645 695.476 862.87 693.006 861.298 691.659C859.726 690.312 857.256 690.087 855.909 691.659C854.338 693.231 854.338 695.701 855.909 697.048Z" fill="white"/>
<path d="M942.579 708.723C943.927 710.071 946.172 710.071 947.519 708.723C948.866 707.376 948.866 705.131 947.519 703.784C946.172 702.436 943.927 702.436 942.579 703.784C941.232 705.131 941.232 707.376 942.579 708.723Z" fill="white"/>
<path d="M877.914 804.375C881.386 804.375 884.201 801.56 884.201 798.088C884.201 794.616 881.386 791.801 877.914 791.801C874.442 791.801 871.627 794.616 871.627 798.088C871.627 801.56 874.442 804.375 877.914 804.375Z" fill="white"/>
<path d="M585.347 1010.05C587.817 1012.52 591.634 1012.52 594.103 1010.05C596.573 1007.58 596.573 1003.76 594.103 1001.29C591.634 998.821 587.817 998.821 585.347 1001.29C583.101 1003.54 583.101 1007.58 585.347 1010.05Z" fill="white"/>
<path d="M977.157 1029.13C979.627 1031.6 983.444 1031.6 985.914 1029.13C988.384 1026.66 988.384 1022.85 985.914 1020.38C983.444 1017.91 979.627 1017.91 977.157 1020.38C974.688 1022.85 974.688 1026.66 977.157 1029.13Z" fill="white"/>
<path d="M994.222 439.283C995.71 439.283 996.916 438.077 996.916 436.589C996.916 435.101 995.71 433.895 994.222 433.895C992.734 433.895 991.527 435.101 991.527 436.589C991.527 438.077 992.734 439.283 994.222 439.283Z" fill="white"/>
<path d="M1064.5 758.345C1066.86 758.345 1068.77 756.435 1068.77 754.079C1068.77 751.723 1066.86 749.813 1064.5 749.813C1062.14 749.813 1060.23 751.723 1060.23 754.079C1060.23 756.435 1062.14 758.345 1064.5 758.345Z" fill="white"/>
<path d="M1049.01 541.67C1051.36 541.67 1053.27 539.76 1053.27 537.404C1053.27 535.048 1051.36 533.138 1049.01 533.138C1046.65 533.138 1044.74 535.048 1044.74 537.404C1044.74 539.76 1046.65 541.67 1049.01 541.67Z" fill="white"/>
<path d="M739.601 894.637C741.957 894.637 743.867 892.727 743.867 890.371C743.867 888.015 741.957 886.105 739.601 886.105C737.245 886.105 735.335 888.015 735.335 890.371C735.335 892.727 737.245 894.637 739.601 894.637Z" fill="white"/>
<path d="M859.277 839.851C860.393 839.851 861.298 838.946 861.298 837.83C861.298 836.714 860.393 835.809 859.277 835.809C858.161 835.809 857.257 836.714 857.257 837.83C857.257 838.946 858.161 839.851 859.277 839.851Z" fill="white"/>
<path d="M940.559 735.443C941.232 736.116 942.579 736.116 943.253 735.443C943.927 734.769 943.927 733.422 943.253 732.748C942.579 732.075 941.232 732.075 940.559 732.748C939.885 733.646 939.885 734.769 940.559 735.443Z" fill="white"/>
<path d="M1106.04 668.083C1106.94 668.981 1108.29 668.981 1108.96 668.083C1109.63 667.185 1109.86 665.837 1108.96 665.164C1108.06 664.266 1106.71 664.266 1106.04 665.164C1105.37 665.837 1105.37 667.185 1106.04 668.083Z" fill="white"/>
<path d="M558.178 564.348C559.301 565.471 561.097 565.471 562.22 564.348C563.342 563.226 563.342 561.43 562.22 560.307C561.097 559.184 559.301 559.184 558.178 560.307C557.055 561.43 557.055 563.226 558.178 564.348Z" fill="white"/>
<path d="M783.385 670.104C784.059 670.777 785.406 670.777 786.08 670.104C786.753 669.43 786.753 668.083 786.08 667.409C785.406 666.736 784.059 666.736 783.385 667.409C782.712 668.083 782.712 669.206 783.385 670.104Z" fill="white"/>
<path d="M1205.73 586.802C1207.34 586.802 1208.65 585.495 1208.65 583.883C1208.65 582.271 1207.34 580.964 1205.73 580.964C1204.12 580.964 1202.81 582.271 1202.81 583.883C1202.81 585.495 1204.12 586.802 1205.73 586.802Z" fill="white"/>
<path d="M1073.71 423.117C1076.81 423.117 1079.32 420.604 1079.32 417.503C1079.32 414.403 1076.81 411.89 1073.71 411.89C1070.61 411.89 1068.09 414.403 1068.09 417.503C1068.09 420.604 1070.61 423.117 1073.71 423.117Z" fill="white"/>
<path d="M909.348 541.222C912.449 541.222 914.962 538.709 914.962 535.608C914.962 532.508 912.449 529.995 909.348 529.995C906.248 529.995 903.735 532.508 903.735 535.608C903.735 538.709 906.248 541.222 909.348 541.222Z" fill="white"/>
<path d="M512.823 427.159C515.923 427.159 518.436 424.646 518.436 421.545C518.436 418.445 515.923 415.932 512.823 415.932C509.722 415.932 507.209 418.445 507.209 421.545C507.209 424.646 509.722 427.159 512.823 427.159Z" fill="white"/>
<path d="M431.317 347.899C431.317 346.327 429.97 345.204 428.623 345.204C427.051 345.204 425.928 346.551 425.928 347.899C425.928 349.246 427.275 350.593 428.623 350.593C429.97 350.593 431.317 349.47 431.317 347.899Z" fill="white"/>
<path d="M276.389 327.017C276.389 324.771 274.593 323.2 272.572 323.2C270.551 323.2 268.755 324.996 268.755 327.017C268.755 329.262 270.551 330.834 272.572 330.834C274.593 330.834 276.389 329.262 276.389 327.017Z" fill="white"/>
<path d="M905.532 988.716C903.062 986.247 903.062 982.429 905.532 979.96C908.001 977.49 911.818 977.49 914.288 979.96C916.758 982.429 916.758 986.247 914.288 988.716C911.818 991.186 907.777 991.186 905.532 988.716Z" fill="white"/>
</g>
</g>
<path d="M502.749 632.317C541.569 632.317 573.039 620.35 573.039 605.587C573.039 590.824 541.569 578.857 502.749 578.857C463.929 578.857 432.459 590.824 432.459 605.587C432.459 620.35 463.929 632.317 502.749 632.317Z" fill="url(#paint3_radial_1_1835)"/>
<path d="M502.749 675.877C517.511 675.877 529.479 644.407 529.479 605.587C529.479 566.767 517.511 535.297 502.749 535.297C487.986 535.297 476.019 566.767 476.019 605.587C476.019 644.407 487.986 675.877 502.749 675.877Z" fill="url(#paint4_radial_1_1835)"/>
<path d="M495.621 982.183C520.444 982.183 540.567 974.559 540.567 965.155C540.567 955.75 520.444 948.127 495.621 948.127C470.798 948.127 450.675 955.75 450.675 965.155C450.675 974.559 470.798 982.183 495.621 982.183Z" fill="url(#paint5_radial_1_1835)"/>
<path d="M495.621 1010.1C505.025 1010.1 512.649 989.978 512.649 965.155C512.649 940.332 505.025 920.209 495.621 920.209C486.216 920.209 478.593 940.332 478.593 965.155C478.593 989.978 486.216 1010.1 495.621 1010.1Z" fill="url(#paint6_radial_1_1835)"/>
<path d="M1042.69 92.1727C1067.52 92.1727 1087.64 84.549 1087.64 75.1447C1087.64 65.7404 1067.52 58.1167 1042.69 58.1167C1017.87 58.1167 997.749 65.7404 997.749 75.1447C997.749 84.549 1017.87 92.1727 1042.69 92.1727Z" fill="url(#paint7_radial_1_1835)"/>
<path d="M1042.69 120.091C1052.1 120.091 1059.72 99.9677 1059.72 75.1448C1059.72 50.3218 1052.1 30.1987 1042.69 30.1987C1033.29 30.1987 1025.67 50.3218 1025.67 75.1448C1025.67 99.9677 1033.29 120.091 1042.69 120.091Z" fill="url(#paint8_radial_1_1835)"/>
<path d="M1389.39 951.889C1400.68 968.521 1415.33 978.223 1422.06 973.471C1428.99 968.917 1425.43 951.691 1414.14 935.059C1402.86 918.427 1388.2 908.725 1381.47 913.477C1374.54 918.229 1378.11 935.257 1389.39 951.889Z" fill="url(#paint9_radial_1_1835)"/>
<path opacity="0.6" d="M1393.35 931.099C1376.72 942.385 1367.02 957.037 1371.77 963.769C1376.32 970.699 1393.55 967.135 1410.18 955.849C1426.81 944.563 1436.52 929.911 1431.76 923.179C1427.01 916.447 1409.98 919.813 1393.35 931.099Z" fill="url(#paint10_radial_1_1835)"/>
<path d="M937.557 625.189C948.843 641.821 963.495 651.523 970.227 646.771C977.157 642.217 973.593 624.991 962.307 608.359C951.021 591.727 936.369 582.025 929.637 586.777C922.905 591.529 926.469 608.755 937.557 625.189Z" fill="url(#paint11_radial_1_1835)"/>
<path opacity="0.6" d="M941.715 604.399C925.083 615.685 915.381 630.337 920.133 637.069C924.687 643.999 941.913 640.435 958.545 629.149C975.177 617.863 984.879 603.211 980.127 596.479C975.375 589.747 958.149 593.311 941.715 604.399Z" fill="url(#paint12_radial_1_1835)"/>
<path d="M510.471 185.035C521.757 201.667 536.409 211.369 543.141 206.617C550.071 202.063 546.507 184.837 535.221 168.205C523.935 151.573 509.283 141.871 502.551 146.623C495.621 151.177 499.185 168.403 510.471 185.035Z" fill="url(#paint13_radial_1_1835)"/>
<path opacity="0.6" d="M514.431 164.244C497.799 175.53 488.097 190.182 492.849 196.914C497.403 203.844 514.629 200.28 531.261 188.994C547.893 177.708 557.595 163.056 552.843 156.324C548.289 149.394 531.063 152.958 514.431 164.244Z" fill="url(#paint14_radial_1_1835)"/>
<g clip-path="url(#clip1_1_1835)">
<path d="M1399.07 936.733C1395.43 940.373 1395.43 946.267 1399.04 949.907C1401 945.373 1404.49 941.587 1408.85 939.333C1405.16 942.453 1402.57 946.813 1401.67 951.76C1405.13 953.4 1409.4 952.8 1412.27 949.933C1416.25 945.947 1417.37 935.08 1417.61 932.093C1417.64 931.68 1417.31 931.347 1416.91 931.387C1413.92 931.627 1403.05 932.747 1399.07 936.733Z" fill="url(#paint15_linear_1_1835)"/>
</g>
<path d="M28 152L131.4 259.6C132.5 260.8 134.4 260.8 135.6 259.7C136.8 258.6 136.8 256.7 135.7 255.5C135.7 255.5 28.1 152.1 28 152Z" fill="url(#paint16_linear_1_1835)"/>
<path d="M1260 0L1363.4 107.6C1364.5 108.8 1366.4 108.8 1367.6 107.7C1368.8 106.6 1368.8 104.7 1367.7 103.5C1367.7 103.4 1260.1 0 1260 0Z" fill="url(#paint17_linear_1_1835)"/>
<path d="M1114 843L1217.4 950.6C1218.5 951.8 1220.4 951.8 1221.6 950.7C1222.8 949.6 1222.8 947.7 1221.7 946.5C1221.7 946.5 1114.1 843.1 1114 843Z" fill="url(#paint18_linear_1_1835)"/>
<path d="M650 464L709.7 526.1C710.4 526.8 711.4 526.8 712.1 526.1C712.8 525.4 712.8 524.4 712.1 523.7C712.2 523.8 650.1 464.1 650 464Z" fill="url(#paint19_linear_1_1835)"/>
</g>
<defs>
<radialGradient id="paint0_radial_1_1835" cx="0" cy="0" r="1" gradientUnits="userSpaceOnUse" gradientTransform="translate(1437.26 101.223) rotate(180) scale(1118.22)">
<stop stop-color="#400A46"/>
<stop offset="0.3326" stop-color="#340A41"/>
<stop offset="0.9337" stop-color="#140A35"/>
<stop offset="1" stop-color="#100A33"/>
</radialGradient>
<radialGradient id="paint1_radial_1_1835" cx="0" cy="0" r="1" gradientUnits="userSpaceOnUse" gradientTransform="translate(1375.26 476.342) scale(806.378 807.141)">
<stop offset="0.00528186" stop-color="#430E49"/>
<stop offset="0.3206" stop-color="#370D44"/>
<stop offset="0.8903" stop-color="#170B36"/>
<stop offset="1" stop-color="#100A33"/>
</radialGradient>
<radialGradient id="paint2_radial_1_1835" cx="0" cy="0" r="1" gradientUnits="userSpaceOnUse" gradientTransform="translate(-36.2559 547.658) rotate(180) scale(806.378 807.141)">
<stop offset="0.00528186" stop-color="#430E49"/>
<stop offset="0.3206" stop-color="#370D44"/>
<stop offset="0.8903" stop-color="#170B36"/>
<stop offset="1" stop-color="#100A33"/>
</radialGradient>
<radialGradient id="paint3_radial_1_1835" cx="0" cy="0" r="1" gradientUnits="userSpaceOnUse" gradientTransform="translate(502.756 605.524) rotate(180) scale(41.3545 41.5902)">
<stop stop-color="#FA316D"/>
<stop offset="0.0484923" stop-color="#D92B65" stop-opacity="0.9513"/>
<stop offset="0.1186" stop-color="#B0235C" stop-opacity="0.881"/>
<stop offset="0.1951" stop-color="#8B1C53" stop-opacity="0.8042"/>
<stop offset="0.2772" stop-color="#6C174C" stop-opacity="0.7219"/>
<stop offset="0.3664" stop-color="#531246" stop-opacity="0.6323"/>
<stop offset="0.4658" stop-color="#400E42" stop-opacity="0.5326"/>
<stop offset="0.5808" stop-color="#320C3E" stop-opacity="0.4171"/>
<stop offset="0.7257" stop-color="#2A0A3D" stop-opacity="0.2718"/>
<stop offset="0.9965" stop-color="#280A3C" stop-opacity="0"/>
</radialGradient>
<radialGradient id="paint4_radial_1_1835" cx="0" cy="0" r="1" gradientUnits="userSpaceOnUse" gradientTransform="translate(502.78 605.529) rotate(-90) scale(41.3545 41.5902)">
<stop stop-color="#FA316D"/>
<stop offset="0.0484923" stop-color="#D92B65" stop-opacity="0.9513"/>
<stop offset="0.1186" stop-color="#B0235C" stop-opacity="0.881"/>
<stop offset="0.1951" stop-color="#8B1C53" stop-opacity="0.8042"/>
<stop offset="0.2772" stop-color="#6C174C" stop-opacity="0.7219"/>
<stop offset="0.3664" stop-color="#531246" stop-opacity="0.6323"/>
<stop offset="0.4658" stop-color="#400E42" stop-opacity="0.5326"/>
<stop offset="0.5808" stop-color="#320C3E" stop-opacity="0.4171"/>
<stop offset="0.7257" stop-color="#2A0A3D" stop-opacity="0.2718"/>
<stop offset="0.9965" stop-color="#280A3C" stop-opacity="0"/>
</radialGradient>
<radialGradient id="paint5_radial_1_1835" cx="0" cy="0" r="1" gradientUnits="userSpaceOnUse" gradientTransform="translate(495.704 965.122) rotate(180) scale(26.3971 26.5476)">
<stop stop-color="#FFC66A"/>
<stop offset="0.0661016" stop-color="#D09E60" stop-opacity="0.9339"/>
<stop offset="0.1352" stop-color="#A77C57" stop-opacity="0.8648"/>
<stop offset="0.2106" stop-color="#825D4F" stop-opacity="0.7894"/>
<stop offset="0.2914" stop-color="#634348" stop-opacity="0.7086"/>
<stop offset="0.3794" stop-color="#4A2E42" stop-opacity="0.6206"/>
<stop offset="0.4773" stop-color="#371E3E" stop-opacity="0.5227"/>
<stop offset="0.5906" stop-color="#29133B" stop-opacity="0.4094"/>
<stop offset="0.7332" stop-color="#210C3A" stop-opacity="0.2668"/>
<stop offset="1" stop-color="#1F0A39" stop-opacity="0"/>
</radialGradient>
<radialGradient id="paint6_radial_1_1835" cx="0" cy="0" r="1" gradientUnits="userSpaceOnUse" gradientTransform="translate(495.736 965.125) rotate(-90) scale(26.3971 26.5476)">
<stop stop-color="#FFC66A"/>
<stop offset="0.0661016" stop-color="#D09E60" stop-opacity="0.9339"/>
<stop offset="0.1352" stop-color="#A77C57" stop-opacity="0.8648"/>
<stop offset="0.2106" stop-color="#825D4F" stop-opacity="0.7894"/>
<stop offset="0.2914" stop-color="#634348" stop-opacity="0.7086"/>
<stop offset="0.3794" stop-color="#4A2E42" stop-opacity="0.6206"/>
<stop offset="0.4773" stop-color="#371E3E" stop-opacity="0.5227"/>
<stop offset="0.5906" stop-color="#29133B" stop-opacity="0.4094"/>
<stop offset="0.7332" stop-color="#210C3A" stop-opacity="0.2668"/>
<stop offset="1" stop-color="#1F0A39" stop-opacity="0"/>
</radialGradient>
<radialGradient id="paint7_radial_1_1835" cx="0" cy="0" r="1" gradientUnits="userSpaceOnUse" gradientTransform="translate(1042.76 75.2189) rotate(180) scale(26.3972 26.5476)">
<stop stop-color="#FA316D"/>
<stop offset="0.0484923" stop-color="#D92B65" stop-opacity="0.9513"/>
<stop offset="0.1186" stop-color="#B0235C" stop-opacity="0.881"/>
<stop offset="0.1951" stop-color="#8B1C53" stop-opacity="0.8042"/>
<stop offset="0.2772" stop-color="#6C174C" stop-opacity="0.7219"/>
<stop offset="0.3664" stop-color="#531246" stop-opacity="0.6323"/>
<stop offset="0.4658" stop-color="#400E42" stop-opacity="0.5326"/>
<stop offset="0.5808" stop-color="#320C3E" stop-opacity="0.4171"/>
<stop offset="0.7257" stop-color="#2A0A3D" stop-opacity="0.2718"/>
<stop offset="0.9965" stop-color="#280A3C" stop-opacity="0"/>
</radialGradient>
<radialGradient id="paint8_radial_1_1835" cx="0" cy="0" r="1" gradientUnits="userSpaceOnUse" gradientTransform="translate(1042.77 75.2342) rotate(-90) scale(26.3972 26.5476)">
<stop stop-color="#FA316D"/>
<stop offset="0.0484923" stop-color="#D92B65" stop-opacity="0.9513"/>
<stop offset="0.1186" stop-color="#B0235C" stop-opacity="0.881"/>
<stop offset="0.1951" stop-color="#8B1C53" stop-opacity="0.8042"/>
<stop offset="0.2772" stop-color="#6C174C" stop-opacity="0.7219"/>
<stop offset="0.3664" stop-color="#531246" stop-opacity="0.6323"/>
<stop offset="0.4658" stop-color="#400E42" stop-opacity="0.5326"/>
<stop offset="0.5808" stop-color="#320C3E" stop-opacity="0.4171"/>
<stop offset="0.7257" stop-color="#2A0A3D" stop-opacity="0.2718"/>
<stop offset="0.9965" stop-color="#280A3C" stop-opacity="0"/>
</radialGradient>
<radialGradient id="paint9_radial_1_1835" cx="0" cy="0" r="1" gradientUnits="userSpaceOnUse" gradientTransform="translate(1401.71 943.529) rotate(145.918) scale(14.9818 36.2526)">
<stop stop-color="#FFC66A"/>
<stop offset="0.1172" stop-color="#FFDA81" stop-opacity="0.8828"/>
<stop offset="0.2557" stop-color="#FFEA94" stop-opacity="0.7443"/>
<stop offset="0.4169" stop-color="#FFF6A2" stop-opacity="0.5831"/>
<stop offset="0.62" stop-color="#FFFDAA" stop-opacity="0.38"/>
<stop offset="1" stop-color="#FFFFAC" stop-opacity="0"/>
</radialGradient>
<radialGradient id="paint10_radial_1_1835" cx="0" cy="0" r="1" gradientUnits="userSpaceOnUse" gradientTransform="translate(1401.71 943.529) rotate(-124.082) scale(14.9819 36.2528)">
<stop stop-color="#FFC66A"/>
<stop offset="0.1172" stop-color="#FFDA81" stop-opacity="0.8828"/>
<stop offset="0.2557" stop-color="#FFEA94" stop-opacity="0.7443"/>
<stop offset="0.4169" stop-color="#FFF6A2" stop-opacity="0.5831"/>
<stop offset="0.62" stop-color="#FFFDAA" stop-opacity="0.38"/>
<stop offset="1" stop-color="#FFFFAC" stop-opacity="0"/>
</radialGradient>
<radialGradient id="paint11_radial_1_1835" cx="0" cy="0" r="1" gradientUnits="userSpaceOnUse" gradientTransform="translate(950.052 616.884) rotate(145.918) scale(14.9818 36.2526)">
<stop stop-color="#FFC66A"/>
<stop offset="0.1172" stop-color="#FFDA81" stop-opacity="0.8828"/>
<stop offset="0.2557" stop-color="#FFEA94" stop-opacity="0.7443"/>
<stop offset="0.4169" stop-color="#FFF6A2" stop-opacity="0.5831"/>
<stop offset="0.62" stop-color="#FFFDAA" stop-opacity="0.38"/>
<stop offset="1" stop-color="#FFFFAC" stop-opacity="0"/>
</radialGradient>
<radialGradient id="paint12_radial_1_1835" cx="0" cy="0" r="1" gradientUnits="userSpaceOnUse" gradientTransform="translate(950.052 616.884) rotate(-124.082) scale(14.9819 36.2528)">
<stop stop-color="#FFC66A"/>
<stop offset="0.1172" stop-color="#FFDA81" stop-opacity="0.8828"/>
<stop offset="0.2557" stop-color="#FFEA94" stop-opacity="0.7443"/>
<stop offset="0.4169" stop-color="#FFF6A2" stop-opacity="0.5831"/>
<stop offset="0.62" stop-color="#FFFDAA" stop-opacity="0.38"/>
<stop offset="1" stop-color="#FFFFAC" stop-opacity="0"/>
</radialGradient>
<radialGradient id="paint13_radial_1_1835" cx="0" cy="0" r="1" gradientUnits="userSpaceOnUse" gradientTransform="translate(522.819 176.56) rotate(145.918) scale(14.9818 36.2526)">
<stop stop-color="#FFC66A"/>
<stop offset="0.0661016" stop-color="#D09E60" stop-opacity="0.9339"/>
<stop offset="0.1352" stop-color="#A77C57" stop-opacity="0.8648"/>
<stop offset="0.2106" stop-color="#825D4F" stop-opacity="0.7894"/>
<stop offset="0.2914" stop-color="#634348" stop-opacity="0.7086"/>
<stop offset="0.3794" stop-color="#4A2E42" stop-opacity="0.6206"/>
<stop offset="0.4773" stop-color="#371E3E" stop-opacity="0.5227"/>
<stop offset="0.5906" stop-color="#29133B" stop-opacity="0.4094"/>
<stop offset="0.7332" stop-color="#210C3A" stop-opacity="0.2668"/>
<stop offset="1" stop-color="#1F0A39" stop-opacity="0"/>
</radialGradient>
<radialGradient id="paint14_radial_1_1835" cx="0" cy="0" r="1" gradientUnits="userSpaceOnUse" gradientTransform="translate(522.819 176.56) rotate(-124.082) scale(14.9819 36.2528)">
<stop stop-color="#FFC66A"/>
<stop offset="0.0661016" stop-color="#D09E60" stop-opacity="0.9339"/>
<stop offset="0.1352" stop-color="#A77C57" stop-opacity="0.8648"/>
<stop offset="0.2106" stop-color="#825D4F" stop-opacity="0.7894"/>
<stop offset="0.2914" stop-color="#634348" stop-opacity="0.7086"/>
<stop offset="0.3794" stop-color="#4A2E42" stop-opacity="0.6206"/>
<stop offset="0.4773" stop-color="#371E3E" stop-opacity="0.5227"/>
<stop offset="0.5906" stop-color="#29133B" stop-opacity="0.4094"/>
<stop offset="0.7332" stop-color="#210C3A" stop-opacity="0.2668"/>
<stop offset="1" stop-color="#1F0A39" stop-opacity="0"/>
</radialGradient>
<linearGradient id="paint15_linear_1_1835" x1="1406.15" y1="941.287" x2="1417.03" y2="949.766" gradientUnits="userSpaceOnUse">
<stop stop-color="#FF3B00"/>
<stop offset="1" stop-color="#FF8D00"/>
</linearGradient>
<linearGradient id="paint16_linear_1_1835" x1="135.683" y1="259.665" x2="28.0272" y2="152.009" gradientUnits="userSpaceOnUse">
<stop offset="0.00490991" stop-color="#EEFFFF"/>
<stop offset="0.0532719" stop-color="#11ADC4"/>
<stop offset="0.0917029" stop-color="#1196BD" stop-opacity="0.9594"/>
<stop offset="0.1581" stop-color="#1074B4" stop-opacity="0.8893"/>
<stop offset="0.2319" stop-color="#0F57AB" stop-opacity="0.8113"/>
<stop offset="0.3138" stop-color="#0F40A5" stop-opacity="0.7248"/>
<stop offset="0.4072" stop-color="#0E2E9F" stop-opacity="0.6262"/>
<stop offset="0.5189" stop-color="#0E219C" stop-opacity="0.5082"/>
<stop offset="0.6672" stop-color="#0E1A9A" stop-opacity="0.3516"/>
<stop offset="1" stop-color="#0E1899" stop-opacity="0"/>
</linearGradient>
<linearGradient id="paint17_linear_1_1835" x1="1367.67" y1="107.624" x2="1260.01" y2="-0.0317141" gradientUnits="userSpaceOnUse">
<stop offset="0.00396389" stop-color="#CD1013"/>
<stop offset="0.00709775" stop-color="#FF0004"/>
<stop offset="0.9441" stop-color="#2500FF"/>
</linearGradient>
<linearGradient id="paint18_linear_1_1835" x1="1221.7" y1="950.657" x2="1114.04" y2="843.002" gradientUnits="userSpaceOnUse">
<stop offset="0.00490991" stop-color="#FF8CFF"/>
<stop offset="0.0532719" stop-color="#633AF2"/>
<stop offset="0.1362" stop-color="#6228E5" stop-opacity="0.9124"/>
<stop offset="0.253" stop-color="#6116D7" stop-opacity="0.789"/>
<stop offset="0.3938" stop-color="#6009CE" stop-opacity="0.6404"/>
<stop offset="0.5806" stop-color="#6002C9" stop-opacity="0.443"/>
<stop offset="1" stop-color="#6000C7" stop-opacity="0"/>
</linearGradient>
<linearGradient id="paint19_linear_1_1835" x1="712.175" y1="526.191" x2="650.026" y2="464.041" gradientUnits="userSpaceOnUse">
<stop offset="0.00396389" stop-color="#FF9090"/>
<stop offset="0.00709775" stop-color="#FE8E90"/>
<stop offset="0.107" stop-color="#D84C97"/>
<stop offset="0.154" stop-color="#C9329A"/>
<stop offset="0.4717" stop-color="#952990" stop-opacity="0.6381"/>
<stop offset="0.9441" stop-color="#4B1D82" stop-opacity="0.1"/>
</linearGradient>
<clipPath id="clip0_1_1835">
<rect width="1440" height="1024" fill="white"/>
</clipPath>
<clipPath id="clip1_1_1835">
<rect width="32" height="32" fill="white" transform="translate(1391 926)"/>
</clipPath>
</defs>
</svg>
