<svg width="131" height="145" viewBox="0 0 131 145" fill="none" xmlns="http://www.w3.org/2000/svg">
<path d="M21.7807 10.8904C21.7807 13.0443 21.142 15.1498 19.9453 16.9407C18.7487 18.7316 17.0478 20.1275 15.0579 20.9517C13.0679 21.776 10.8783 21.9916 8.76574 21.5714C6.65322 21.1512 4.71275 20.114 3.18971 18.591C1.66667 17.0679 0.629466 15.1275 0.20926 13.015C-0.210946 10.9024 0.00471857 8.71276 0.828982 6.72281C1.65325 4.73286 3.04909 3.03202 4.83999 1.83538C6.6309 0.63873 8.73644 2.3151e-05 10.8903 2.3151e-05C12.3213 -0.00293035 13.7388 0.276741 15.0614 0.822985C16.384 1.36923 17.5857 2.17129 18.5976 3.18314C19.6094 4.19499 20.4115 5.39671 20.9577 6.71932C21.504 8.04193 21.7836 9.45939 21.7807 10.8904Z" fill="#FFDF4F"/>
<path d="M9.7477 5.80387C9.74767 6.09289 9.66165 6.37536 9.50059 6.61535C9.33953 6.85534 9.11072 7.04198 8.84326 7.15153C8.57581 7.26108 8.28181 7.28859 7.99868 7.23055C7.71555 7.17251 7.45608 7.03155 7.2533 6.8256C7.05053 6.61965 6.9136 6.35803 6.85996 6.07404C6.80631 5.79004 6.83837 5.4965 6.95206 5.23078C7.06574 4.96505 7.25591 4.73916 7.49837 4.58184C7.74082 4.42452 8.0246 4.34289 8.31358 4.34734C8.69598 4.35322 9.06072 4.50927 9.32905 4.78179C9.59737 5.05431 9.74775 5.42142 9.7477 5.80387Z" fill="#D3B94F"/>
<path d="M6.87943 12.9294C6.87501 13.314 6.75692 13.6887 6.54004 14.0063C6.32316 14.324 6.01716 14.5704 5.66057 14.7145C5.30398 14.8586 4.91272 14.894 4.53604 14.8163C4.15937 14.7386 3.8141 14.5511 3.54369 14.2776C3.27328 14.0041 3.08982 13.6567 3.0164 13.2792C2.94298 12.9016 2.98287 12.5108 3.13106 12.1559C3.27925 11.801 3.52911 11.4978 3.8492 11.2846C4.16929 11.0713 4.54531 10.9575 4.92992 10.9575C5.18783 10.9575 5.44318 11.0087 5.68118 11.108C5.91918 11.2074 6.13509 11.353 6.31642 11.5364C6.49774 11.7198 6.64087 11.9374 6.73751 12.1765C6.83416 12.4156 6.88239 12.6715 6.87943 12.9294Z" fill="#D3B94F"/>
<path d="M19.1814 13.0862C19.1756 13.4924 19.0101 13.8799 18.7207 14.165C18.4314 14.4502 18.0415 14.61 17.6353 14.6099C17.2601 14.5645 16.9146 14.3833 16.664 14.1005C16.4133 13.8177 16.2749 13.4529 16.2749 13.075C16.2749 12.6971 16.4133 12.3323 16.664 12.0495C16.9146 11.7667 17.2601 11.5854 17.6353 11.54C18.0454 11.54 18.4386 11.7029 18.7286 11.9929C19.0185 12.2829 19.1814 12.6761 19.1814 13.0862Z" fill="#D3B94F"/>
<path d="M13.983 18.0608C13.986 18.2617 13.9486 18.4612 13.8731 18.6475C13.7976 18.8337 13.6855 19.0029 13.5434 19.145C13.4013 19.2871 13.2321 19.3992 13.0459 19.4747C12.8596 19.5502 12.6601 19.5876 12.4592 19.5846C12.2572 19.5875 12.0567 19.5503 11.8692 19.4751C11.6817 19.3998 11.5111 19.2881 11.3672 19.1463C11.2234 19.0045 11.1091 18.8355 11.0311 18.6491C10.9532 18.4628 10.913 18.2628 10.913 18.0608C10.913 17.6507 11.0759 17.2575 11.3659 16.9675C11.6559 16.6775 12.0491 16.5146 12.4592 16.5146C12.6612 16.5146 12.8612 16.5548 13.0475 16.6327C13.2339 16.7107 13.4029 16.825 13.5447 16.9688C13.6865 17.1127 13.7982 17.2833 13.8735 17.4708C13.9487 17.6583 13.9859 17.8588 13.983 18.0608Z" fill="#D3B94F"/>
<path d="M16.1115 6.54319C16.0784 6.74813 15.9734 6.93457 15.8153 7.06914C15.6572 7.20371 15.4564 7.27762 15.2488 7.27762C15.0412 7.27762 14.8404 7.20371 14.6823 7.06914C14.5242 6.93457 14.4192 6.74813 14.3861 6.54319C14.3659 6.41825 14.3731 6.29041 14.4071 6.16852C14.4412 6.04662 14.5013 5.93358 14.5833 5.83721C14.6654 5.74084 14.7674 5.66343 14.8823 5.61035C14.9972 5.55728 15.1222 5.52979 15.2488 5.52979C15.3754 5.52979 15.5004 5.55728 15.6153 5.61035C15.7302 5.66343 15.8322 5.74084 15.9142 5.83721C15.9963 5.93358 16.0564 6.04662 16.0905 6.16852C16.1245 6.29041 16.1317 6.41825 16.1115 6.54319Z" fill="#D3B94F"/>
<path d="M11.6296 10.8007C11.6296 10.9735 11.5784 11.1425 11.4824 11.2862C11.3863 11.4299 11.2499 11.5419 11.0902 11.6081C10.9305 11.6742 10.7548 11.6915 10.5852 11.6578C10.4157 11.6241 10.26 11.5408 10.1378 11.4186C10.0156 11.2964 9.93233 11.1407 9.89861 10.9712C9.86489 10.8016 9.8822 10.6259 9.94834 10.4662C10.0145 10.3066 10.1265 10.1701 10.2702 10.074C10.4139 9.97801 10.5829 9.92676 10.7557 9.92676C10.9875 9.92676 11.2098 10.0188 11.3737 10.1827C11.5376 10.3466 11.6296 10.5689 11.6296 10.8007Z" fill="#D3B94F"/>
<path opacity="0.2" d="M13.602 0.380859C15.0676 1.92729 16.0485 3.86892 16.4236 5.96625C16.7987 8.06357 16.5517 10.2248 15.713 12.1834C14.8743 14.142 13.4806 15.8122 11.7038 16.9881C9.92704 18.1639 7.84493 18.7939 5.71433 18.8003C4.79166 18.7957 3.87322 18.6752 2.98055 18.4418C4.48128 20.0182 6.41994 21.1088 8.54643 21.5728C10.6729 22.0368 12.8897 21.853 14.9107 21.0451C16.9317 20.2372 18.6643 18.8422 19.8849 17.0401C21.1055 15.2381 21.7581 13.1116 21.7585 10.9351C21.7575 8.52153 20.9563 6.17643 19.4805 4.26672C18.0046 2.357 15.9373 0.99044 13.602 0.380859Z" fill="black"/>
<path d="M13.6468 117.777C19.5856 126.147 27.4435 132.973 36.5625 137.683C45.6814 142.392 55.796 144.848 66.0593 144.846C69.0592 144.834 72.0544 144.609 75.0225 144.174C64.1404 138.429 53.8825 131.573 44.4131 123.715C37.0408 117.172 24.2906 114.953 13.6468 117.777Z" fill="#007E93"/>
<path d="M126.068 103.749C108.276 116.522 91.0441 132.208 68.2102 116.522C53.6225 107.402 42.6874 92.8143 24.4696 90.9993C17.2061 90.0881 9.84598 90.2921 2.64409 91.6043C4.31453 101.04 8.07371 109.982 13.6465 117.777C24.2903 114.954 37.0405 117.172 44.5024 123.715C53.9719 131.573 64.2298 138.429 75.1119 144.174C86.4279 142.562 97.1114 137.968 106.066 130.864C115.021 123.761 121.924 114.402 126.068 103.749Z" fill="#11AABA"/>
<path d="M24.4696 90.8873C42.6874 92.7024 53.6001 107.29 68.2102 116.41C91.0441 132.096 108.276 116.41 126.068 103.75C131.095 90.9418 131.88 76.8591 128.309 63.5718C127.726 64.132 127.144 64.7147 126.606 65.3421C93.8003 101.822 55.5272 83.5823 19.0468 59.8521C15.1484 57.4801 10.5381 56.5596 6.02774 57.2528C1.81556 68.1479 0.645938 79.9835 2.64412 91.4923C9.846 90.1802 17.2061 89.9762 24.4696 90.8873Z" fill="#20CBD3"/>
<path d="M59.09 56.222C48.1548 48.917 42.6873 36.0547 33.5672 32.4919C31.0899 31.3957 28.4965 30.5838 25.8364 30.0718C16.9306 37.2164 10.0797 46.5958 5.9828 57.2528C10.4932 56.5597 15.1035 57.4802 19.0019 59.8521C55.4375 83.5823 93.7105 101.823 126.561 65.3421C127.099 64.7147 127.681 64.1321 128.264 63.5719C125.303 52.5775 119.481 42.5646 111.39 34.5534C96.4891 49.0738 79.9071 67.4261 59.09 56.222Z" fill="#3EE5E5"/>
<path d="M93.7105 27.0242C95.055 26.1279 96.3547 25.1868 97.6544 24.2232C88.8042 19.2135 78.8869 16.3866 68.7255 15.9771C69.1961 17.1871 69.6442 18.4195 70.0252 19.7192C71.8402 25.2092 84.5904 30.6768 93.7105 27.0242Z" fill="#A6F2FF"/>
<path d="M93.7107 27.024C84.5906 30.6765 71.8404 25.2089 70.0253 19.7189C69.6444 18.4193 69.1962 17.1868 68.7256 15.9768C67.8517 15.9768 66.9554 15.9768 66.0591 15.9768C51.389 15.9384 37.1505 20.9377 25.7245 30.1387C28.4353 30.6176 31.082 31.4071 33.6122 32.4916C42.7323 36.1441 48.1998 48.9167 59.135 56.2217C79.9521 67.4258 96.5341 49.0735 111.391 34.5531C107.309 30.5135 102.704 27.0392 97.6993 24.223C96.3548 25.1865 95.0552 26.1277 93.7107 27.024Z" fill="#84ECF7"/>
<path d="M73.5885 111.077C73.6905 113.07 74.0444 115.043 74.6416 116.948C75.4932 118.203 74.2383 124.208 76.3223 123.805C77.7931 123.728 79.2167 123.259 80.4458 122.448C81.6749 121.636 82.665 120.511 83.3136 119.189C85.8233 114.998 88.6019 112.04 89.4534 109.8C89.5341 109.507 89.5793 109.206 89.5878 108.903C84.5486 111.059 79.02 111.81 73.5885 111.077Z" fill="#0D7024"/>
<path d="M52.8608 82.9102C52.395 83.885 52.1778 84.9599 52.2287 86.0391C52.2795 87.1183 52.5968 88.1681 53.1521 89.0948C54.269 90.9845 55.9518 92.4752 57.9625 93.3559C59.9732 94.2366 62.2099 94.4627 64.3562 94.0022C69.5325 92.456 67.8519 94.8313 69.6669 95.3915C71.482 95.9517 70.0927 95.257 69.8014 99.1784C69.51 103.1 71.9077 105.049 72.7368 107.133C73.1288 108.456 73.3841 109.815 73.4987 111.189C78.9363 111.901 84.4652 111.126 89.4981 108.948C89.6997 106.237 87.8847 101.419 89.4981 98.7975C91.1115 96.1758 92.1422 97.3858 93.8228 94.6072L95.5034 91.8062C95.3638 90.6564 95.0854 89.5278 94.6744 88.445L92.4335 88.8707C92.0883 88.9609 91.7256 88.9609 91.3804 88.8707C78.7198 90.9995 65.7679 88.6018 52.8608 82.9102Z" fill="#03841F"/>
<path d="M87.3919 84.3664C85.7337 82.5514 84.7477 73.8794 84.322 73.6105C83.8962 73.3416 77.5995 74.0363 75.3587 74.0363C73.1179 74.0363 72.4233 69.9804 71.034 69.1289L69.6447 68.2998C67.7496 69.4383 65.6727 70.2418 63.5048 70.6751L62.0931 70.944C60.7038 71.2353 60.1436 73.8794 60.1436 74.4396C57.6515 75.8225 55.5772 77.8503 54.1383 80.3105C53.65 81.1449 53.2231 82.0136 52.861 82.9099C65.7681 88.7136 78.7199 91.1112 91.4701 88.736C89.8568 88.131 88.7364 85.8902 87.3919 84.3664Z" fill="#04A02C"/>
<path d="M108.904 82.1705C108.978 84.0668 109.34 85.9408 109.979 87.7278L110.674 88.1535C111.283 89.6941 112.297 91.0413 113.609 92.0525V89.9686C113.526 88.2832 113.616 86.5937 113.878 84.9267C114.266 83.6197 114.88 82.3909 115.693 81.2966C116.679 80.1762 117.643 79.0558 118.203 79.0558C118.763 79.0558 119.323 81.0277 119.884 81.5879C120.524 82.3411 121.045 83.1874 121.43 84.0976C121.567 84.4444 121.773 84.76 122.034 85.0257C122.296 85.2913 122.609 85.5015 122.954 85.6438L123.514 85.7782C123.851 87.3983 124.323 88.9873 124.925 90.5288L125.06 91.2234C125.194 91.9181 124.925 96.2652 125.06 96.9599C125.194 97.6545 126.023 100.456 127.009 101.016H127.144C127.794 99.1335 128.354 97.2064 128.824 95.2569C128.466 94.3381 128.04 93.1953 127.838 92.7023C127.637 92.2094 127.278 90.0358 126.875 89.0498C126.472 88.0639 124.365 85.8455 125.755 85.8455C127.144 85.8455 128.556 85.9799 128.959 87.2348L129.385 88.512H129.967C130.264 86.3426 130.436 84.158 130.483 81.9689C129.833 81.2966 128.556 80.4451 129.429 79.7281C129.763 79.4948 130.135 79.3204 130.527 79.2127C130.457 74.5811 129.902 69.9697 128.869 65.4541C123.152 72.0598 116.411 77.7039 108.904 82.1705Z" fill="#04A02C"/>
<path d="M62.2274 63.6836L61.9361 64.2438L61.6672 64.804C61.7154 65.6643 61.9391 66.5057 62.3244 67.2764C62.7098 68.0471 63.2487 68.7309 63.908 69.2856L64.4682 69.1288C65.9144 68.3512 67.2361 67.3618 68.3897 66.1933C68.7636 65.591 69.2416 65.0598 69.8014 64.6248C68.0983 64.2662 66.4177 63.7957 64.7819 63.2803C63.9646 63.5788 63.097 63.7158 62.2274 63.6836Z" fill="#00BA35"/>
<path d="M92.6578 49.0736C100.363 47.0795 107.593 43.5675 113.923 38.7435C113.661 38.5632 113.363 38.441 113.049 38.385C111.772 38.6233 110.514 38.9528 109.285 39.3709C108.724 39.5054 108.03 39.3709 108.03 38.2505C108.03 37.1301 107.313 35.3151 106.215 35.584C103.816 36.1577 101.475 36.9529 99.2234 37.9592C98.6632 38.5194 97.2739 39.7743 97.2739 40.7602C97.2739 41.7462 98.103 42.8442 97.6773 42.7097L97.2739 42.5753C96.893 42.5753 95.9967 41.5893 95.3244 40.2H93.9127C93.2077 41.0554 92.7711 42.1 92.6578 43.2027C92.7204 43.482 92.6856 43.7742 92.5592 44.0309C92.4329 44.2877 92.2226 44.4936 91.9632 44.6144C91.0369 44.7609 90.0999 44.8284 89.1622 44.8161C87.6211 45.0098 86.1673 45.6395 84.9719 46.6311L84.703 47.0569L84.4117 47.4602C84.0098 47.5282 83.5977 47.5008 83.2084 47.3801C82.8192 47.2594 82.4638 47.0489 82.1708 46.7656C81.8123 46.3174 82.7311 45.4883 84.1876 44.9505L83.4929 44.5248C82.7983 44.1214 78.7424 42.1495 77.3531 42.5753L75.9414 43.001C74.092 43.6126 72.3687 44.554 70.8548 45.7796C70.4301 46.4998 70.0557 47.2486 69.7344 48.0204C77.1515 50.3725 85.0563 50.7357 92.6578 49.0736Z" fill="#70FF61"/>
<path d="M113.923 38.7437C107.592 43.5677 100.363 47.0797 92.6574 49.0738C85.0786 50.6982 77.2068 50.3119 69.8235 47.9534C69.5546 48.536 69.2857 49.141 69.0617 49.7012L69.1961 50.8216C69.3305 51.942 69.8908 54.8775 68.9272 55.3032L67.9412 55.7066C66.7627 56.6941 65.7622 57.8765 64.9834 59.2022C64.846 59.6978 64.8189 60.2175 64.9041 60.7247C64.9893 61.2318 65.1846 61.7142 65.4764 62.1377C65.7901 62.5859 65.4764 62.9892 64.8713 63.2805C66.5071 63.7959 68.1877 64.2665 69.8908 64.625C70.3165 64.2889 70.7199 64.0424 70.9888 64.1096C71.4839 64.3375 71.9264 64.6656 72.2884 65.0732C75.4416 65.5993 78.6468 65.7422 81.8343 65.4989C94.6741 63.5046 108.59 52.9504 122.169 48.0654C120.671 45.4379 118.986 42.9217 117.127 40.5363C116.231 40.3346 114.886 39.2814 113.923 38.7437Z" fill="#4FDD3A"/>
<path d="M81.7223 65.4987C78.5312 65.7124 75.326 65.5394 72.1765 64.9833C73.0056 65.7676 73.9019 66.7536 74.238 67.0897C74.5741 67.4258 74.9327 69.1961 76.8822 68.7703L78.8317 68.3445C80.1538 68.1205 81.3414 68.3445 81.4982 68.7703C81.6551 69.1961 83.022 69.7339 84.5682 69.8907L85.3972 69.5994C86.2488 69.3305 86.9434 70.8543 86.5177 71.4145L86.0919 71.9747C86.7748 75.5793 87.8571 79.0966 89.3187 82.4617L90.0133 82.8874C90.708 83.3132 91.5371 86.9433 92.0973 86.8088C92.6575 86.6744 95.4585 86.5175 96.2876 85.554L97.1167 84.568C99.3575 82.3272 100.568 79.7727 99.9849 79.0332C99.4023 78.2937 97.4304 78.473 95.5033 79.3917L95.2344 78.5626C94.9431 77.7111 92.7023 74.081 94.114 73.9466C95.5257 73.8121 97.5873 75.6272 98.4388 76.1874C99.5989 77.0232 100.931 77.5897 102.338 77.8456C103.553 77.8251 104.739 78.2204 105.699 78.966L105.968 79.5262C106.349 79.9968 107.245 79.683 107.94 78.8315L108.343 79.5262C108.597 80.3569 108.755 81.214 108.814 82.0807C116.34 77.6762 123.111 72.0928 128.869 65.5435C127.435 59.3764 125.094 53.456 121.922 47.9756C108.478 52.9502 94.5622 63.5044 81.7223 65.4987Z" fill="#00BA35"/>
<path d="M3.00278 68.1429C2.68907 69.8683 2.39776 71.7058 2.24091 73.3864C3.36131 75.179 4.9971 76.8372 5.8262 78.4954C6.6553 80.1536 5.96065 81.4309 6.52085 82.8426C6.82989 83.9748 7.30567 85.0548 7.93256 86.0469C8.33591 86.3383 10.3078 86.8984 10.868 86.3382C11.2803 86.0861 11.7437 85.9291 12.2244 85.8787C12.7051 85.8283 13.191 85.8858 13.6466 86.0469C14.2118 86.2774 14.7239 86.6209 15.1516 87.0563C15.5793 87.4917 15.9136 88.0099 16.1339 88.5791C16.4252 89.8339 15.9995 90.1028 17.8145 90.5286C19.6296 90.9543 16.6941 87.1674 17.5456 86.2038C18.3971 85.2403 19.7864 84.7921 18.2403 84.3663C16.6941 83.9406 14.1844 82.977 13.7587 82.1255C13.1446 80.6453 12.7156 79.0948 12.4814 77.5095C12.2125 75.6944 11.5179 74.1482 12.6383 73.1623C13.1018 72.6471 13.6986 72.2699 14.3628 72.0722C15.0271 71.8745 15.733 71.864 16.4028 72.0419L18.0834 72.4676C19.54 73.3191 20.3242 74.5068 20.0329 75.1342L21.1533 76.5235C22.2737 77.9128 22.5426 79.459 22.8339 78.7643C23.0574 77.2815 23.1474 75.7816 23.1028 74.2827C23.1028 73.588 22.5426 73.1623 24.4921 71.4817C25.4343 70.4638 26.5793 69.6547 27.8534 69.1064C28.3402 68.8929 28.8522 68.7423 29.3771 68.6583C27.9878 67.6275 26.5985 66.5519 25.2092 65.4763C20.3466 61.8238 10.5767 63.0786 3.00278 68.1429Z" fill="#04A02C"/>
<path d="M40.5809 38.654C38.9002 38.5196 35.2701 38.8109 33.1862 36.7045C32.3404 35.9007 31.3183 35.3059 30.2017 34.9674C29.0851 34.6289 27.9048 34.5561 26.7551 34.755C26.0604 35.1583 24.2453 35.7185 24.2453 36.2787C24.2453 36.8389 25.7691 38.5196 25.3657 38.8109L24.94 39.0798C23.8731 39.1571 22.8309 39.4386 21.8701 39.9089H21.1754C22.0045 41.455 22.0494 42.4858 21.1754 42.1497C19.175 41.6406 17.1476 41.2441 15.1028 40.962C12.9013 43.8723 10.945 46.9603 9.25433 50.1942C13.9824 50.0149 18.9122 50.8888 23.4162 50.8888C29.2142 50.5123 35.0248 51.3992 40.4464 53.4882C40.2895 52.3678 40.2895 50.1269 38.9002 49.4323C37.1442 48.8482 35.2634 48.7475 33.4551 49.141C31.7745 49.4323 30.1163 49.2754 30.8109 47.8861C31.5056 46.4968 33.724 43.5614 36.1216 45.0851C37.5811 46.2192 38.9314 47.487 40.1551 48.8721C41.4876 49.848 42.9414 50.6465 44.4799 51.2474C45.1969 51.2474 46.8551 52.0765 47.7066 51.8076C48.5581 51.5387 50.6197 51.6507 51.1799 50.1269C51.7401 48.6032 50.4852 49.4323 53.2862 46.7657C56.0873 44.0992 56.1769 45.1524 57.9247 43.7406C52.614 41.4998 47.3257 39.259 42.0374 37.1751C41.8357 38.0938 41.4548 38.7436 40.5809 38.654Z" fill="#4FDD3A"/>
<path d="M61.5327 38.3853C61.7612 37.0914 61.8514 35.7768 61.8016 34.4638C61.5327 33.6347 62.6307 32.3799 60.4123 32.3799C58.1938 32.3799 51.8972 32.7832 50.9112 32.6488C49.9253 32.5143 42.665 34.3294 42.3961 35.1585C42.2617 35.5618 42.2169 36.4133 42.0376 37.1752C47.3259 39.1919 52.6142 41.6568 57.925 43.7408C58.0818 43.5839 58.2611 43.4719 58.4403 43.2702C59.9824 42.0282 61.0697 40.3104 61.5327 38.3853Z" fill="#70FF61"/>
<path d="M23.4167 50.8888C18.9351 50.8888 13.9829 50.0149 9.25478 50.1942C6.29967 55.8293 4.19299 61.87 3.00292 68.1206C10.5769 63.0564 20.3468 61.8016 25.2318 65.4765C26.6211 66.5521 28.0104 67.7173 29.3997 68.6584C29.7522 68.642 30.0971 68.5494 30.4104 68.3869C30.7237 68.2244 30.9981 67.996 31.2147 67.7173C31.5312 67.2476 31.7239 66.7055 31.7748 66.1413C31.8257 65.5772 31.7333 65.0094 31.506 64.4905C31.2147 63.527 30.3856 63.1012 33.4555 62.4066C36.5254 61.7119 38.4749 61.5551 38.7662 60.8604C39.0575 60.1658 39.7298 58.2163 40.1555 57.2303C40.5362 56.0136 40.6358 54.7265 40.4468 53.4657C35.0235 51.3844 29.213 50.5052 23.4167 50.8888Z" fill="#00BA35"/>
<path d="M21.2207 94.114C21.2207 94.9431 21.4672 95.929 21.5793 96.8926L20.7502 97.2959C19.6659 98.0429 18.7625 99.0229 18.106 100.164C17.9079 101.396 18.0473 102.658 18.5094 103.817C18.9351 104.78 20.7502 107.873 21.0191 108.298C21.288 108.724 21.7361 110.405 22.6997 110.405C23.8804 110.473 25.0095 110.912 25.9264 111.66C26.8662 112.982 27.4454 114.527 27.607 116.141C31.7525 115.85 36.3686 116.634 39.797 116.634L40.6261 117.015C40.5141 116.679 40.6261 116.388 40.9847 115.895C41.8362 114.909 44.3459 115.895 44.6372 113.654C44.9285 111.413 45.892 111.413 45.1974 109.329C44.5027 107.245 44.077 107.223 44.3459 105.833C44.6148 104.444 44.7716 104.847 46.1609 103.032C46.441 102.693 46.6956 102.334 46.9228 101.957C40.5627 98.8758 33.9023 96.4579 27.0468 94.7414C25.1414 94.2737 23.182 94.0627 21.2207 94.114Z" fill="#0D7024"/>
<path d="M43.3823 96.5341C41.572 96.2422 39.7465 96.0552 37.9147 95.9739C37.1563 95.8242 36.4595 95.4524 35.9129 94.9057C35.3663 94.3591 34.9945 93.6624 34.8448 92.904C34.4414 91.0889 34.2846 89.8341 33.0297 88.9826C31.7749 88.1311 27.7414 87.4588 27.0243 86.8986C26.5561 86.5928 26.0306 86.3854 25.4797 86.2891C24.9289 86.1928 24.3642 86.2096 23.82 86.3384L22.8564 86.6073C22.1889 87.5218 21.3795 88.3237 20.4588 88.9826L20.1675 89.8341C19.7417 90.6632 19.316 90.5287 19.1815 91.5147C20.1002 91.3578 20.9517 91.7388 21.0638 92.3438C21.1758 92.9488 21.2206 93.2625 21.3327 94.0468C23.294 93.9955 25.2534 94.2065 27.1588 94.6742C34.0142 96.3907 40.6747 98.8086 47.0348 101.89C47.2868 101.601 47.4436 101.242 47.4837 100.861C47.5239 100.48 47.4453 100.096 47.2589 99.7609C46.8656 98.988 46.3191 98.3033 45.6526 97.7486C44.9861 97.1938 44.2136 96.7806 43.3823 96.5341Z" fill="#03841F"/>
<path d="M27.6066 116.074C27.6162 116.133 27.6162 116.194 27.6066 116.253C27.0551 118.119 26.7315 120.046 26.643 121.99C26.643 123.513 27.0464 126.74 27.2032 127.86C27.3601 128.981 30.8333 131.356 30.8333 131.759C30.6536 132.384 30.4366 132.998 30.1835 133.597C31.3487 134.381 32.4243 135.121 33.7688 135.838C33.9743 134.539 34.351 133.273 34.8892 132.073C35.4494 130.527 34.6203 130.818 34.1946 129.407C33.7688 127.995 35.0461 126.471 35.315 126.068L35.6063 125.642C36.5846 124.924 37.6102 124.273 38.6762 123.693L38.8106 122.976C38.9451 122.281 39.6397 122.012 40.7601 121.16C41.8805 120.309 41.8805 119.771 41.3203 118.359C41.0514 117.687 40.7825 117.306 40.6705 116.97L39.7966 116.522C36.3681 116.522 31.7521 115.783 27.6066 116.074Z" fill="#065E1D"/>
<path opacity="0.2" d="M84.2769 18.5093C87.5336 29.5928 87.7481 41.3484 84.8978 52.5432C82.0474 63.7381 76.2374 73.9598 68.0769 82.1364C59.9164 90.3129 49.7061 96.1431 38.5168 99.0154C27.3276 101.888 15.5716 101.696 4.4817 98.4614C7.62744 109.192 13.5132 118.919 21.5597 126.685C29.6061 134.451 39.536 139.987 50.372 142.75C61.2079 145.512 72.5765 145.406 83.3588 142.44C94.141 139.475 103.965 133.754 111.865 125.839C119.764 117.923 125.467 108.088 128.411 97.2998C131.355 86.5118 131.439 75.143 128.655 64.3125C125.871 53.482 120.315 43.563 112.534 35.5318C104.753 27.5006 95.0141 21.6339 84.2769 18.5093Z" fill="url(#paint0_linear_1_2045)"/>
<path opacity="0.7" d="M49.5889 30.7437C51.516 33.2982 49.5889 38.0936 45.1073 41.4548C40.6257 44.816 35.4942 45.4658 33.5671 42.9113C31.64 40.3568 33.5671 35.539 38.0487 32.1778C42.5304 28.8166 47.6394 28.1892 49.5889 30.7437Z" fill="white"/>
<defs>
<linearGradient id="paint0_linear_1_2045" x1="30.744" y1="52.7937" x2="139.647" y2="137.496" gradientUnits="userSpaceOnUse">
<stop/>
<stop offset="0.57"/>
<stop offset="0.61"/>
<stop offset="1" stop-color="#404040"/>
</linearGradient>
</defs>
</svg>
