<svg width="63" height="64" viewBox="0 0 63 64" fill="none" xmlns="http://www.w3.org/2000/svg">
<path d="M4.86288 40.9601C3.6908 40.1791 2.40504 39.584 1.05115 39.1958C1.86662 42.8826 3.34249 46.3915 5.40742 49.5528C7.03013 46.1549 8.4677 43.2145 4.86288 40.9601Z" fill="#37B5A5"/>
<path d="M34.1261 47.1678C16.3961 56.0328 11.9527 35.6346 1.36699 26.7696C1.22445 26.6374 1.06293 26.5273 0.887801 26.4429C0.502053 28.3763 0.297872 30.3415 0.277924 32.3129C0.278984 34.6289 0.538333 36.9374 1.05116 39.1958C2.40505 39.584 3.69081 40.1792 4.8629 40.9601C8.46771 43.2145 7.04103 46.155 5.45099 49.5529C8.45669 54.0844 12.5837 57.7611 17.4307 60.2257C26.8512 51.6221 38.8527 51.8399 50.1027 54.2576C51.1446 54.2998 52.1576 54.6113 53.0432 55.1616C57.1207 51.3391 60.1024 46.4963 61.6795 41.1344C58.9332 38.2978 55.5831 36.1165 51.8779 34.7525C42.109 31.2021 41.216 43.6175 34.1261 47.1678Z" fill="#4DCEBB"/>
<path d="M17.398 60.2256C23.1358 63.1555 29.6385 64.2415 36.0169 63.335C42.3953 62.4286 48.338 59.5739 53.0323 55.1615C52.1467 54.6111 51.1336 54.2997 50.0918 54.2575C38.82 51.8398 26.8185 51.622 17.398 60.2256Z" fill="#37B5A5"/>
<path d="M14.6209 23.23C17.605 19.048 12.5517 15.6719 7.3024 12.5571C5.35589 14.9544 3.77419 17.626 2.60852 20.4855C7.79248 24.2319 11.6151 29.8406 14.6209 23.23Z" fill="#37B5A5"/>
<path d="M62.529 27.227C56.354 29.2091 50.1245 28.5774 46.5415 24.9944C43.1545 20.9322 51.1374 17.9046 56.6916 13.5374C55.3853 11.7999 53.9036 10.2014 52.27 8.76731C50.477 8.84292 48.721 9.30199 47.1204 10.1136C45.5198 10.9251 44.1118 12.0704 42.9911 13.4721C38.5586 21.4549 40.3338 31.2021 33.244 35.6346C28.8006 38.3028 25.2611 34.7525 22.6038 32.0951C17.2783 24.9944 21.7108 12.5899 12.8022 8.13565L12.0181 7.81982C10.2679 9.22144 8.67248 10.8059 7.25884 12.5464C12.5081 15.6611 17.5614 19.0808 14.5774 23.2192C11.5715 29.8299 7.74892 24.2212 2.59763 20.4748C1.81149 22.4002 1.22044 24.3995 0.833344 26.4429C1.00847 26.5273 1.16999 26.6374 1.31253 26.7696C11.9527 35.6346 16.3961 56.0328 34.1261 47.1678C41.216 43.6175 42.109 31.2021 51.8562 34.7525C55.5613 36.1165 58.9115 38.2978 61.6578 41.1344C62.4989 38.2693 62.928 35.299 62.932 32.3129C62.9307 30.6097 62.796 28.9092 62.529 27.227Z" fill="#36EAC7"/>
<path d="M46.5415 24.9946C50.1245 28.5776 56.3431 29.2093 62.529 27.2272C61.7076 22.2624 59.7056 17.5675 56.6916 13.5376C51.1374 17.9048 43.1545 20.9324 46.5415 24.9946Z" fill="#37B5A5"/>
<path d="M25.2611 14.3543C25.2611 17.0225 28.8006 19.6798 32.351 18.7977C38.5369 15.3562 37.3062 8.17929 36.7944 1.41618C33.2702 0.806586 29.6675 0.806586 26.1433 1.41618C26.7423 5.33682 24.7275 10.6297 25.2611 14.3543Z" fill="#92FFEA"/>
<path d="M36.7943 1.41602C37.2626 8.17912 38.5368 15.3561 32.3509 18.8411C28.8005 19.7232 25.2611 17.0659 25.2611 14.3977C24.7274 10.6295 26.7422 5.33666 26.1432 1.45958C20.9896 2.36959 16.1474 4.56039 12.0616 7.83062L12.8457 8.14645C21.7107 12.5898 17.2782 24.9943 22.6473 32.1059C25.3046 34.7633 28.8441 38.3136 33.2875 35.6454C40.3773 31.2129 38.6022 21.4875 43.0891 13.4829C44.2097 12.0812 45.6178 10.9359 47.2184 10.1244C48.819 9.31278 50.575 8.85372 52.368 8.77811C47.9701 4.9118 42.5733 2.3606 36.7943 1.41602Z" fill="#55FFDE"/>
<path d="M26.7205 44.1403C26.2195 45.4363 23.9107 45.7521 21.5583 44.8482C19.2059 43.9443 17.703 42.1582 18.204 40.8622C18.7049 39.5662 20.9702 39.2504 23.3661 40.187C25.7621 41.1236 27.2214 42.8443 26.7205 44.1403Z" fill="#4DCEBB"/>
<path d="M33.9518 28.2616C34.3657 30.0695 32.7212 31.9971 30.2599 32.5634C27.7986 33.1297 25.4789 32.1169 25.0651 30.3091C24.6512 28.5012 26.2957 26.5736 28.7461 26.029C31.1965 25.4845 33.538 26.4538 33.9518 28.2616Z" fill="#36EAC7"/>
<path d="M51.3116 43.7591C51.0056 44.3255 50.5391 44.7889 49.9707 45.0911C49.4022 45.3932 48.7572 45.5208 48.1166 45.4576C47.4759 45.3945 46.8682 45.1435 46.3697 44.7361C45.8712 44.3288 45.5042 43.7833 45.3146 43.1681C45.1251 42.5529 45.1216 41.8954 45.3044 41.2781C45.4873 40.6609 45.8484 40.1114 46.3424 39.6987C46.8365 39.286 47.4415 39.0285 48.0814 38.9584C48.7213 38.8883 49.3677 39.0088 49.9393 39.3048C50.3246 39.5043 50.6663 39.7786 50.9445 40.1116C51.2226 40.4446 51.4317 40.8296 51.5594 41.2443C51.6872 41.6589 51.731 42.0948 51.6885 42.5266C51.6459 42.9584 51.5178 43.3774 51.3116 43.7591Z" fill="#37B5A5"/>
<path d="M36.5003 56.8607C36.5656 57.7864 35.1716 58.625 33.3855 58.7557C31.5995 58.8863 30.1183 58.2329 30.0312 57.3181C29.9441 56.4033 31.3599 55.5538 33.146 55.434C34.932 55.3142 36.4349 55.9459 36.5003 56.8607Z" fill="#228778"/>
<path d="M23.3334 5.69611C23.7473 6.51291 22.7998 7.87425 21.1553 8.65838C19.5108 9.44251 17.8881 9.47518 17.5069 8.65838C17.1258 7.84158 18.0406 6.48024 19.6851 5.69611C21.3296 4.91199 22.9087 4.87931 23.3334 5.69611Z" fill="#92FFEA"/>
<path d="M55.6025 22.3045C55.6678 23.2193 54.2847 24.0688 52.4986 24.2104C50.7126 24.3519 49.2314 23.7094 49.1334 22.7946C49.0354 21.8798 50.4621 21.0194 52.2482 20.8887C54.0342 20.758 55.5263 21.3897 55.6025 22.3045Z" fill="#36EAC7"/>
<path opacity="0.2" d="M40.3991 2.24365C41.2375 5.09794 41.6629 8.05756 41.6625 11.0324C41.6639 15.1475 40.8544 19.2225 39.2803 23.0245C37.7062 26.8266 35.3984 30.2812 32.4886 33.191C29.5788 36.1008 26.1242 38.4087 22.3221 39.9828C18.52 41.5569 14.445 42.3663 10.33 42.3649C7.35566 42.3689 4.39606 41.9471 1.54123 41.1125C3.06794 46.334 5.92789 51.0681 9.83963 54.8489C13.7514 58.6296 18.5801 61.3267 23.8506 62.6748C29.1212 64.0228 34.6519 63.9753 39.8985 62.537C45.1451 61.0987 49.9268 58.3191 53.7731 54.4718C57.6193 50.6244 60.3976 45.8419 61.8344 40.5949C63.2713 35.3479 63.3172 29.8172 61.9677 24.547C60.6182 19.2769 57.9197 14.4489 54.1379 10.5382C50.3561 6.62752 45.6212 3.7689 40.3991 2.24365Z" fill="url(#paint0_linear_1_2026)"/>
<path opacity="0.7" d="M24.1176 9.69298C25.0542 10.9345 24.0631 13.2651 21.9394 14.8987C19.8158 16.5323 17.2673 16.8482 16.3307 15.5957C15.3941 14.3433 16.3307 12.0236 18.5089 10.39C20.687 8.75639 23.1483 8.40788 24.1176 9.69298Z" fill="white"/>
<defs>
<linearGradient id="paint0_linear_1_2026" x1="14.3487" y1="18.8846" x2="67.3209" y2="60.0949" gradientUnits="userSpaceOnUse">
<stop/>
<stop offset="0.57"/>
<stop offset="0.61"/>
<stop offset="1" stop-color="#404040"/>
</linearGradient>
</defs>
</svg>
