<svg width="24" height="24" viewBox="0 0 24 24" fill="none" xmlns="http://www.w3.org/2000/svg">
<g clip-path="url(#clip0_13_27)">
<path d="M14.29 5.70998C13.9 6.09998 13.9 6.72998 14.29 7.11998L18.17 11H3C2.45 11 2 11.45 2 12C2 12.55 2.45 13 3 13H18.18L14.3 16.88C13.91 17.27 13.91 17.9 14.3 18.29C14.69 18.68 15.32 18.68 15.71 18.29L21.3 12.7C21.69 12.31 21.69 11.68 21.3 11.29L15.7 5.70998C15.32 5.31998 14.68 5.31998 14.29 5.70998Z" fill="url(#paint0_radial_13_27)"/>
</g>
<defs>
<radialGradient id="paint0_radial_13_27" cx="0" cy="0" r="1" gradientUnits="userSpaceOnUse" gradientTransform="translate(19.8477 18.8171) scale(21.7317 22.7052)">
<stop offset="0.00528186" stop-color="#430E49"/>
<stop offset="0.3206" stop-color="#370D44"/>
<stop offset="0.8903" stop-color="#170B36"/>
<stop offset="1" stop-color="#100A33"/>
</radialGradient>
<clipPath id="clip0_13_27">
<rect width="24" height="24" fill="white"/>
</clipPath>
</defs>
</svg>
