<svg width="311" height="248" viewBox="0 0 311 248" fill="none" xmlns="http://www.w3.org/2000/svg">
<path d="M194.179 37.4385C196.106 37.4385 198.032 37.4385 199.959 37.4385C221.922 37.4385 242.73 43.6623 260.07 54.2795C257.372 55.3778 255.06 56.4761 252.748 57.5744C231.17 64.8966 209.977 55.3778 194.179 37.4385Z" fill="#FCFCFC"/>
<path d="M194.179 37.4385C209.592 55.3778 231.17 64.8966 252.363 57.2083C254.675 56.11 256.987 55.0117 259.684 53.9133C269.703 60.1372 278.18 67.4593 285.501 75.8798C279.721 73.3171 273.556 71.1204 267.776 68.9238C245.813 63.0661 220.767 89.792 208.436 71.8527C195.335 56.11 178.381 46.9573 161.041 43.6623C171.83 40.3673 182.62 38.1707 194.179 37.4385Z" fill="#EFEFEF"/>
<path d="M161.427 44.0283C178.766 47.3233 195.72 56.8421 208.821 72.2186C221.537 90.158 246.583 63.4321 268.161 69.2898C273.941 71.4864 280.106 73.6831 285.886 76.2458C287.813 78.8086 290.125 81.3714 291.666 83.9341C282.418 80.273 271.244 82.8358 265.079 87.2291C249.28 96.0157 230.785 113.955 208.821 105.168C189.94 96.3818 183.775 72.5848 167.977 63.7982C152.949 55.0116 138.307 63.0659 123.279 67.0931C134.069 56.8421 147.17 49.1538 161.427 44.0283Z" fill="#E5E5E5"/>
<path d="M123.28 66.7268C138.307 62.6996 152.95 54.6452 167.977 63.4318C183.776 72.2184 189.941 96.0155 208.822 104.802C230.785 113.589 249.666 96.0154 265.079 86.8627C271.629 83.2017 282.418 80.2728 291.666 83.9339C296.675 91.256 300.914 99.3104 303.997 107.731C288.198 100.409 271.244 116.151 258.528 125.67C227.317 146.538 177.225 140.681 161.427 101.873C152.179 81.005 127.133 104.802 111.335 98.9443C107.867 97.4799 104.784 95.2832 102.087 92.7205C107.867 83.2017 114.803 74.4151 123.28 66.7268Z" fill="#DBDBDB"/>
<path d="M236.179 241.361C224.62 245.022 212.675 247.218 199.959 247.218C197.262 247.218 194.179 247.218 191.482 246.852C206.509 243.191 222.308 236.967 236.179 241.361Z" fill="#8C8C8C"/>
<path d="M167.977 223.788C186.858 223.788 202.271 244.656 221.152 232.574C233.867 225.252 250.822 221.957 266.62 225.618C257.372 232.208 247.354 237.334 236.179 240.995C221.922 236.967 206.509 242.825 191.096 246.486C176.839 245.388 163.353 241.727 151.023 236.235C156.417 230.378 161.041 223.788 167.977 223.788Z" fill="#9B9B9B"/>
<path d="M101.316 189.739C118.656 195.231 135.995 216.831 152.179 220.492C171.06 223.421 189.941 205.482 202.271 208.777C233.482 211.706 261.611 220.492 286.657 193.766C288.584 193.766 292.437 192.668 295.905 193.766C288.584 206.214 278.565 217.197 266.235 225.618C250.436 221.957 233.482 225.252 220.767 232.574C201.886 244.289 186.473 223.787 167.592 223.787C160.656 223.787 156.032 230.377 150.638 236.601C129.83 226.35 112.105 209.875 101.316 189.739Z" fill="#AAAAAA"/>
<path d="M127.518 167.407C136.766 182.417 140.234 197.062 155.647 202.919C174.528 208.777 183.775 191.204 196.491 187.909C227.702 182.051 262.381 211.706 287.428 172.899C289.739 170.702 299.373 164.844 306.694 170.336C303.996 178.756 300.529 186.445 296.29 193.767C292.822 193.034 288.969 193.767 287.042 193.767C261.996 220.493 233.868 211.706 202.656 208.777C189.941 205.848 171.445 223.788 152.564 220.493C136.381 216.465 118.656 195.231 101.701 189.74C96.6922 180.587 93.2243 170.336 91.2977 159.719C104.013 161.183 116.729 154.593 127.518 167.407Z" fill="#B7B7B7"/>
<path d="M92.0684 118.348C102.472 120.545 114.032 122.009 120.968 128.599C133.683 140.315 139.849 158.254 158.729 164.112C177.61 169.969 193.023 149.101 208.822 149.101C230.785 149.101 246.583 172.898 274.712 164.112C294.749 156.057 291.281 130.43 309.776 128.599C310.162 132.992 310.547 137.752 310.547 142.145C310.547 152.03 309.006 161.549 306.308 170.335C298.987 164.844 289.354 170.702 287.042 172.898C261.996 211.34 227.702 181.685 196.106 187.909C183.39 190.838 174.142 208.777 155.262 202.919C139.463 197.061 136.381 182.051 127.133 167.407C116.729 154.959 103.628 161.183 90.5271 160.084C89.3711 154.227 88.9858 148.369 88.9858 142.511C89.3711 134.091 90.1418 126.036 92.0684 118.348Z" fill="#C1C1C1"/>
<path d="M274.712 164.112C246.583 172.898 230.785 149.101 208.821 149.101C193.023 149.101 177.61 169.97 158.729 164.112C139.848 158.254 133.683 140.315 120.967 128.599C114.032 122.009 102.472 120.545 92.0682 118.348C94.3801 109.196 97.8481 100.775 102.087 92.7207C104.784 95.2835 107.866 97.114 111.334 98.9445C127.133 104.802 152.179 81.0052 161.426 101.873C177.225 140.315 227.317 146.539 258.528 125.67C271.244 116.152 288.198 100.409 303.996 107.731C306.308 114.321 308.235 121.277 309.391 128.599C290.895 130.43 294.749 156.057 274.712 164.112Z" fill="#CCCCCC"/>
<path d="M89.371 121.643C89.7563 121.643 89.371 121.643 88.6004 122.375C88.9857 121.643 89.371 121.643 89.371 121.643Z" fill="black"/>
<path opacity="0.2" d="M169.028 41.9575C166.331 51.1102 164.404 60.9952 164.404 71.2462C164.404 129.091 214.111 175.953 274.992 175.953C285.781 175.953 296.185 174.489 306.203 171.56C292.717 215.127 250.331 246.978 199.854 246.978C138.587 246.978 89.2659 200.116 89.2659 142.271C89.2659 95.0432 122.789 54.7713 169.028 41.9575Z" fill="url(#paint0_linear_1_1949)"/>
<path opacity="0.7" d="M232.712 65.6288C229.244 69.656 232.712 77.7104 240.418 83.202C248.125 88.6936 256.987 89.792 260.455 85.3987C263.923 81.3715 260.455 73.3171 252.749 67.8255C244.657 62.3339 235.794 61.2355 232.712 65.6288Z" fill="white"/>
<path d="M28.1046 67.0931C10.3797 69.2897 -2.336 85.0324 0.361265 102.239C2.67321 119.08 19.2421 131.162 37.3523 128.599C53.536 126.403 64.7104 113.955 65.0957 99.3106C65.0957 98.9445 99.7748 69.2897 98.6189 67.0931C97.4629 65.2625 65.481 95.2834 65.481 94.5512C65.481 93.819 65.481 94.1851 65.481 93.4529C65.0957 90.524 124.821 35.9739 121.738 31.2145C117.885 25.3567 62.3984 83.934 62.3984 83.2018C62.0131 82.4696 60.0865 79.9069 59.3158 78.8085C58.1599 78.8085 102.472 37.0722 99.3895 33.7772C95.5363 29.75 52.7653 73.683 52.38 72.9508C51.6093 72.5847 50.8387 71.8525 50.068 71.4864C49.2974 71.1203 113.646 8.14965 109.408 3.39025C106.325 0.0952721 42.3616 68.1914 40.8203 68.1914C40.8203 68.1914 36.5817 67.8253 37.3523 67.0931C41.2056 60.5031 64.7103 33.4111 62.3984 31.5806C58.1598 28.6517 30.8018 67.0931 28.1046 67.0931Z" fill="#FFD400"/>
<path d="M28.4899 70.7543C12.6916 72.9509 1.51721 86.863 3.82915 101.873C6.14109 116.884 20.7834 127.501 36.5817 125.304C52.38 123.108 63.5543 109.196 61.2424 94.1852C59.3158 79.1748 44.6735 68.5576 28.4899 70.7543Z" fill="#FFD400"/>
<path d="M55.8478 113.223L52.7652 116.152C52.7652 116.152 51.9946 119.08 49.2973 117.982C46.6001 116.518 44.2881 114.321 45.4441 112.857C46.6001 111.392 48.1414 113.223 50.068 111.758C51.9946 110.294 52.7652 106.999 54.6919 106.633C57.0038 106.267 58.9304 108.829 55.8478 113.223Z" fill="#FF8500"/>
<path d="M45.0589 120.179C45.0589 120.179 46.9855 119.812 45.0589 117.25C43.1323 114.687 41.9763 112.856 42.747 111.758C43.5176 110.294 45.8295 110.66 47.3708 109.927C48.9121 109.195 49.6828 109.561 50.0681 107.731C50.4534 105.9 47.7562 105.168 46.2149 104.436C44.6736 103.704 41.591 101.141 39.279 106.632C36.9671 112.124 38.8937 112.856 39.279 116.151C39.279 119.446 35.4258 121.643 37.3524 122.375C39.279 123.107 41.9763 122.741 43.1323 122.375C44.2883 121.277 45.0589 119.08 45.0589 120.179Z" fill="#FF8500"/>
<path d="M59.3158 101.507C59.3158 102.606 58.9305 103.338 56.2332 104.436C53.1506 105.535 53.5359 106.267 53.1506 106.267C52.3799 106.267 51.6093 106.267 50.4533 104.436C49.2974 102.606 48.1414 104.07 46.6001 102.24C43.5175 98.5786 38.123 104.802 38.5083 101.141C38.8936 97.4803 40.0496 96.7481 44.2882 95.2836C48.5267 94.1853 48.1414 92.3548 51.9946 93.087C55.8479 93.8192 57.0038 90.8903 58.5451 91.2564C60.0864 91.6225 59.7011 93.4531 60.0864 96.0158C60.4717 98.5786 58.9305 100.775 59.3158 101.507Z" fill="#FF8500"/>
<path d="M37.7376 116.152C37.7376 116.884 37.3523 118.714 35.4256 120.545C33.499 122.376 33.499 123.474 30.4164 123.474C27.3339 123.108 24.6366 125.304 23.4806 122.009C22.3246 118.714 24.2513 116.518 26.5632 117.25C29.2605 117.982 30.0311 119.813 31.1871 115.786C32.3431 111.758 30.8018 108.83 33.1137 106.999C35.4256 105.168 36.5816 103.704 37.7376 105.535C38.5082 107.365 37.3523 112.857 36.9669 113.955C36.5816 114.687 37.7376 115.42 37.7376 116.152Z" fill="#FF8500"/>
<path d="M36.1965 102.605C35.0405 104.07 35.4258 103.338 33.1139 104.802C30.802 106.266 31.5726 108.097 29.646 108.829C27.7194 109.561 24.6368 110.66 24.2514 107.365C23.8661 104.436 22.7102 100.775 25.7927 98.2121C28.8753 95.6493 31.5726 93.8188 35.4258 92.3544C39.2791 90.8899 43.903 88.3272 45.4443 90.5238C46.9856 92.7205 46.6002 93.4527 43.5176 94.1849C40.435 94.9171 40.0497 94.1849 37.7378 97.1138C35.4258 100.409 38.5085 99.6765 36.1965 102.605Z" fill="#FF8500"/>
<path d="M57.3894 86.1306C57.3894 86.4967 59.316 87.5951 57.004 89.7917C54.6921 91.6223 54.3068 93.4528 52.3802 92.3545C50.8389 91.2561 50.4535 91.2562 48.9122 91.2562C47.371 91.2562 47.7563 89.4256 45.8297 88.6934C43.9031 87.9612 41.9764 90.5239 40.8205 88.3273C39.6645 86.1306 38.5085 85.7645 41.5911 84.6662C44.6737 83.5679 46.215 86.1306 47.7563 83.5679C49.2976 80.639 46.6003 78.4424 48.9122 78.8085C51.2242 79.5407 54.3068 79.1746 54.3068 82.8357C54.6921 86.8629 57.3894 86.1306 57.3894 86.1306Z" fill="#FF8500"/>
<path d="M46.2144 81.7375C45.4437 82.8359 45.0584 83.202 42.7465 83.202C40.4345 83.202 39.2785 82.8359 38.1226 83.9342C36.5813 85.0325 36.1959 86.8631 35.04 84.6664C34.2693 82.8359 35.04 82.4698 33.4987 79.5409C31.9574 76.612 33.4987 76.2459 30.4161 74.7815C27.7188 73.3171 25.7922 75.1476 25.7922 75.1476C25.7922 75.1476 21.1683 74.7815 23.8656 73.3171C26.5628 71.8526 27.3335 70.0221 31.5721 70.3882C35.8106 70.7543 35.04 71.4865 38.5079 72.9509C41.9758 74.0493 42.7464 72.5848 45.0584 73.6832C47.3703 74.7815 49.6823 75.5137 48.9116 76.2459C47.7557 76.9781 46.2144 74.7815 45.8291 76.612C44.6731 79.1748 47.3703 80.6392 46.2144 81.7375Z" fill="#FF8500"/>
<path d="M38.8936 89.7919C38.8936 89.7919 40.4349 87.9613 38.8936 87.2291C37.3523 86.863 36.5817 87.5952 35.811 87.2291C35.0404 86.863 33.8844 86.4969 33.4991 84.6664C33.1137 83.2019 33.4991 82.8358 32.7284 81.0053C31.9578 78.8086 33.1138 77.3442 30.8018 76.9781C28.4899 76.612 28.1045 72.2187 26.1779 77.3442C24.2513 82.4697 23.0953 81.3714 26.5633 84.3003C30.4165 87.2291 31.5724 88.3275 29.6458 90.8902C28.1045 93.453 27.3339 96.0157 29.6458 94.1852C31.9578 92.3546 31.1871 91.2563 33.1138 90.5241C35.0404 90.158 38.8936 89.0597 38.8936 89.7919Z" fill="#FF8500"/>
<path d="M28.4899 111.392C28.4899 111.758 31.1872 114.687 28.8753 115.053C26.5633 115.419 26.5633 114.321 24.6367 115.053C22.3248 115.785 21.9394 116.518 21.9394 117.616C21.9394 118.714 22.3248 119.813 21.1688 120.179C20.0128 120.545 19.6275 122.009 17.7009 120.179C15.7742 118.348 14.233 118.348 13.077 116.152C11.921 113.955 8.83841 111.026 8.45309 109.562C8.06776 108.097 8.83841 104.436 10.765 105.9C12.6916 107.365 13.077 109.195 14.6183 111.026C16.1596 112.857 16.5449 114.321 18.8568 113.223C21.1688 112.124 20.7834 112.49 20.3981 109.928C20.0128 107.365 17.7009 108.463 18.4715 104.436C19.6275 100.409 21.1688 98.9444 21.9394 99.3106C22.3247 99.6767 23.0954 101.141 22.7101 103.704C22.3248 106.633 21.9394 109.195 23.4807 109.562C24.6367 110.66 28.4899 111.392 28.4899 111.392Z" fill="#FF8500"/>
<path d="M25.4071 93.8192C25.4071 94.1853 26.563 95.6498 24.2511 96.382C21.9391 97.1142 19.6272 98.5786 19.2419 96.0159C18.8566 93.4531 19.6272 92.3548 18.8566 89.4259C17.7006 86.4971 19.2419 85.7648 17.3153 83.9343C15.3887 82.1038 14.2327 82.836 13.462 82.1038C12.6914 81.3715 12.6914 80.2732 15.0033 79.1749C16.93 78.0766 17.3153 76.9782 18.8566 76.9782C20.3979 76.9782 22.7098 76.6121 23.4804 77.3444C24.2511 78.4427 23.8658 76.9782 23.4804 79.9071C23.0951 82.836 22.3245 83.9343 25.0218 85.0326C27.3337 86.1309 29.2603 85.3987 28.875 87.9615C28.4897 90.5242 27.3337 90.8904 26.9484 91.2565C26.1777 91.6226 25.4071 93.8192 25.4071 93.8192Z" fill="#FF8500"/>
<path d="M18.8569 110.294L17.3156 111.392C17.3156 111.392 15.0037 110.294 15.0037 109.195C15.0037 108.097 13.8477 106.633 13.8477 105.9C13.8477 105.168 12.3064 102.972 11.9211 102.972C11.5358 102.972 8.8385 104.07 8.8385 104.07C8.8385 104.07 7.68256 105.9 7.29723 104.436C6.91191 103.338 5.37061 102.239 5.37061 101.507C5.37061 100.775 5.75593 96.7478 5.75593 96.0155C5.75593 95.2833 6.14124 91.6222 6.52657 90.5239C6.91189 89.4256 8.06786 87.229 8.45319 86.4967C8.83851 86.1306 9.60916 85.0323 9.99449 84.6662C10.7651 84.3001 10.7651 83.934 11.5358 84.3001C12.3064 84.6662 13.4624 85.3984 14.233 86.1306C15.0037 86.4967 15.389 86.1306 16.1597 87.9612C17.3156 90.1578 17.701 90.89 17.701 91.2561C17.3156 91.9884 16.545 93.0867 16.545 93.0867C16.545 97.48 17.701 97.1139 18.4716 97.48C18.8569 98.2122 19.6276 97.8461 19.2423 98.5783C18.4716 99.3105 18.4716 99.3105 17.701 100.409C16.9303 101.507 16.9303 101.507 16.9303 102.972C16.9303 104.436 17.3156 105.534 17.701 106.633C17.701 107.731 18.8569 110.294 18.8569 110.294Z" fill="#FF8500"/>
<path d="M104.399 29.018C102.472 30.1163 100.545 27.9197 100.931 25.723C100.931 23.8925 102.857 22.062 104.784 21.6959C106.711 21.3297 109.408 22.062 108.637 24.2586C108.637 23.8925 106.325 27.9197 104.399 29.018Z" fill="#FF8500"/>
<path opacity="0.5" d="M103.628 27.5535C105.554 26.4552 107.866 22.428 107.866 22.428C107.866 22.0619 108.252 22.0619 108.252 21.6958C109.022 22.0619 109.408 22.7941 109.022 23.8924C109.022 23.8924 106.71 27.5535 104.784 29.018C103.242 30.1163 102.087 28.6519 101.316 27.1874C101.701 27.9196 102.857 27.9196 103.628 27.5535Z" fill="#FFFA94"/>
<path d="M31.9576 58.3061C30.031 59.4044 28.1044 57.2078 28.4898 55.0111C28.4898 53.1806 30.4164 51.3501 32.343 50.9839C34.2696 50.6178 36.9669 51.35 36.1962 53.5467C36.1962 53.5467 33.8843 57.2078 31.9576 58.3061Z" fill="#FF8500"/>
<path opacity="0.5" d="M31.5726 56.8421C33.4992 55.7438 35.8111 51.7166 35.8111 51.7166C35.8111 51.3505 36.1965 51.3505 36.1965 50.9844C36.9671 51.3505 37.3524 52.0827 36.9671 53.181C36.9671 53.181 34.6552 56.8421 32.7286 58.3065C31.1873 59.4049 30.0313 57.9404 29.2606 56.476C29.646 57.2082 30.4166 57.5743 31.5726 56.8421Z" fill="#FFFA94"/>
<path d="M100.546 77.7104C98.6189 78.8087 97.0776 75.8798 97.4629 74.0493C97.8483 72.2188 99.7749 70.3882 101.701 70.3882C103.628 70.0221 106.325 71.1204 105.169 73.3171C105.169 73.3171 102.472 76.6121 100.546 77.7104Z" fill="#FF8500"/>
<path opacity="0.5" d="M100.16 76.2461C102.087 75.1478 104.784 71.8528 104.784 71.8528C104.784 71.4867 105.169 71.4867 105.169 71.1206C105.94 71.4867 106.325 72.585 105.555 73.6834C105.555 73.6834 102.857 77.3444 100.931 78.0767C99.3895 78.8089 98.2335 77.3444 97.8482 75.88C98.2335 76.2461 99.0042 76.6122 100.16 76.2461Z" fill="#FFFA94"/>
<path d="M78.9671 23.1601C77.0405 24.2584 75.1138 22.0618 75.4992 19.8651C75.8845 18.0346 77.4258 16.2041 79.3524 15.8379C81.279 15.4718 83.9763 16.2041 83.2056 18.4007C83.2056 18.0346 80.8937 22.0618 78.9671 23.1601Z" fill="#FF8500"/>
<path opacity="0.5" d="M78.1971 21.6956C80.1237 20.5973 82.4356 16.5701 82.4356 16.5701C82.4356 16.204 82.8209 16.204 82.8209 15.8379C83.2063 16.204 83.5916 16.9362 83.2063 18.0345C83.2063 18.0345 80.8943 21.6956 78.9677 23.1601C77.4264 24.2584 76.2704 22.7939 75.4998 21.3295C76.6558 22.0617 77.4264 22.0617 78.1971 21.6956Z" fill="#FFFA94"/>
<path d="M67.7929 30.4823C66.6369 31.2145 65.8663 29.7501 65.8663 28.6517C65.8663 27.5534 67.0222 26.4551 68.1782 26.4551C69.3342 26.089 70.8755 26.8212 70.1048 27.9195C70.1048 27.5534 68.9489 29.7501 67.7929 30.4823Z" fill="#FF8500"/>
<path opacity="0.5" d="M67.4076 29.7501C68.5636 29.0178 69.7196 26.8212 69.7196 26.8212V26.4551C70.1049 26.8212 70.4902 27.1873 70.1049 27.9195C70.1049 27.9195 68.9489 30.1162 67.7929 30.8484C67.0223 31.5806 66.2516 30.4823 65.8663 29.7501C66.2516 29.7501 67.0223 30.1162 67.4076 29.7501Z" fill="#FFFA94"/>
<path d="M102.472 4.12243C101.316 4.85464 100.546 3.39021 100.546 2.29188C100.546 1.19356 101.702 0.0952356 102.858 0.0952356C104.014 -0.270873 105.555 0.461344 104.784 1.55967C104.784 1.19356 103.628 3.39021 102.472 4.12243Z" fill="#FF8500"/>
<path opacity="0.5" d="M102.087 3.39019C103.243 2.65797 104.399 0.461323 104.399 0.461323V0.0952148C104.784 0.461323 105.169 0.827431 104.784 1.55965C104.784 1.55965 103.628 3.7563 102.472 4.48851C101.702 4.85462 100.931 4.1224 100.546 3.39019C100.931 3.39019 101.702 3.39019 102.087 3.39019Z" fill="#FFFA94"/>
<path d="M67.0225 37.8046C65.8666 38.5368 65.0959 37.0723 65.0959 35.974C65.0959 34.8757 66.2519 33.7774 67.4079 33.7774C68.5638 33.4113 70.1051 34.1435 69.3345 35.2418C69.3345 34.8757 68.1785 37.0723 67.0225 37.8046Z" fill="#FF8500"/>
<path opacity="0.5" d="M66.637 37.0723C67.7929 36.3401 68.9489 34.1434 68.9489 34.1434V33.7773C69.3342 34.1435 69.7196 34.5096 69.3342 35.2418C69.3342 35.2418 68.1783 37.4384 67.0223 38.1706C66.2516 38.9029 65.481 37.8045 65.0957 37.0723C65.8663 37.0723 66.2516 37.0723 66.637 37.0723Z" fill="#FFFA94"/>
<path d="M115.958 26.4551C114.802 27.1874 114.032 25.7229 114.032 24.6246C114.032 23.5263 115.188 22.4279 116.344 22.4279C117.5 22.0618 119.041 22.4279 118.27 23.8924C118.27 23.5263 116.729 25.7229 115.958 26.4551Z" fill="#FF8500"/>
<path opacity="0.5" d="M115.188 25.3565C116.344 24.6243 117.5 22.4276 117.5 22.4276V22.0615C117.885 22.4276 118.271 22.7937 117.885 23.526C117.885 23.526 116.729 25.7226 115.573 26.4548C114.803 26.8209 114.032 26.0887 113.647 25.3565C114.417 25.7226 114.803 25.7226 115.188 25.3565Z" fill="#FFFA94"/>
<path d="M107.867 63.066C106.711 63.7982 105.94 62.3338 105.94 61.2354C105.94 60.1371 107.096 59.0388 108.252 59.0388C109.408 58.6727 110.949 59.0388 110.179 60.5032C110.179 60.1371 109.023 62.3338 107.867 63.066Z" fill="#FF8500"/>
<path opacity="0.5" d="M107.481 61.9673C108.637 61.2351 109.793 59.0385 109.793 59.0385V58.6724C110.179 59.0385 110.564 59.4046 110.178 60.1368C110.178 60.1368 109.023 62.3334 107.867 63.0657C107.096 63.4318 106.325 62.6996 105.94 61.9673C106.325 62.3334 106.711 62.3334 107.481 61.9673Z" fill="#FFFA94"/>
<path d="M16.9306 67.0931C15.7746 67.8253 15.004 66.3609 15.004 65.2626C15.004 64.1643 16.1599 63.0659 17.3159 63.0659C18.4719 62.6998 20.0132 63.4321 19.2425 64.5304C19.2425 64.5304 18.0866 66.3609 16.9306 67.0931Z" fill="#FF8500"/>
<path opacity="0.5" d="M16.5449 66.3609C17.7009 65.6287 18.8569 63.432 18.8569 63.432V63.0659C19.2422 63.432 19.6275 63.7981 19.2422 64.5304C19.2422 64.5304 18.0863 66.727 16.9303 67.4592C16.1596 68.1914 15.389 67.0931 15.0037 66.3609C15.389 66.3609 15.7743 66.727 16.5449 66.3609Z" fill="#FFFA94"/>
<path d="M72.4168 102.972C71.2608 103.704 70.4902 102.239 70.4902 101.141C70.4902 100.043 71.6461 98.9444 72.8021 98.9444C73.9581 98.5782 75.4994 99.3105 74.7287 100.409C74.7287 100.043 73.5728 102.239 72.4168 102.972Z" fill="#FF8500"/>
<path opacity="0.5" d="M72.0311 101.873C73.187 101.141 74.343 98.9442 74.343 98.9442V98.5781C74.7283 98.9442 75.1136 99.3103 74.7283 100.043C74.7283 100.043 73.5724 102.239 72.4164 102.971C71.6457 103.338 70.8751 102.605 70.4898 101.873C70.8751 102.239 71.6457 102.239 72.0311 101.873Z" fill="#FFFA94"/>
<path opacity="0.5" d="M58.9306 86.8627C56.2333 86.4966 53.536 86.4966 50.8388 86.8627C35.0405 89.0594 23.8661 102.971 26.178 117.982C26.5634 120.545 27.334 123.107 28.49 125.67C16.1596 123.84 5.75589 114.687 3.82927 102.239C1.51733 87.2288 12.6917 73.3167 28.49 71.1201C41.591 68.9234 53.9213 75.8795 58.9306 86.8627Z" fill="url(#paint1_linear_1_1949)"/>
<defs>
<linearGradient id="paint0_linear_1_1949" x1="260.938" y1="97.5554" x2="81.2333" y2="244.702" gradientUnits="userSpaceOnUse">
<stop/>
<stop offset="0.5688"/>
<stop offset="0.6061"/>
<stop offset="1" stop-color="#404040"/>
</linearGradient>
<linearGradient id="paint1_linear_1_1949" x1="31.6219" y1="97.5313" x2="12.0486" y2="79.3671" gradientUnits="userSpaceOnUse">
<stop stop-color="#FF6700"/>
<stop offset="0.9766" stop-color="#C61300"/>
</linearGradient>
</defs>
</svg>
