<svg width="1001" height="980" viewBox="0 0 1001 980" fill="none" xmlns="http://www.w3.org/2000/svg">
<path d="M70.29 602.118C109.11 602.118 140.58 590.151 140.58 575.388C140.58 560.626 109.11 548.658 70.29 548.658C31.4699 548.658 0 560.626 0 575.388C0 590.151 31.4699 602.118 70.29 602.118Z" fill="url(#paint0_radial_1_1920)"/>
<path d="M70.2901 645.678C85.0526 645.678 97.0201 614.208 97.0201 575.388C97.0201 536.568 85.0526 505.098 70.2901 505.098C55.5275 505.098 43.5601 536.568 43.5601 575.388C43.5601 614.208 55.5275 645.678 70.2901 645.678Z" fill="url(#paint1_radial_1_1920)"/>
<path d="M63.162 951.984C87.985 951.984 108.108 944.36 108.108 934.956C108.108 925.552 87.985 917.928 63.162 917.928C38.339 917.928 18.2161 925.552 18.2161 934.956C18.2161 944.36 38.339 951.984 63.162 951.984Z" fill="url(#paint2_radial_1_1920)"/>
<path d="M63.162 979.902C72.5663 979.902 80.1901 959.779 80.1901 934.956C80.1901 910.133 72.5663 890.01 63.162 890.01C53.7577 890.01 46.134 910.133 46.134 934.956C46.134 959.779 53.7577 979.902 63.162 979.902Z" fill="url(#paint3_radial_1_1920)"/>
<path d="M610.236 61.974C635.059 61.974 655.182 54.3503 655.182 44.946C655.182 35.5417 635.059 27.918 610.236 27.918C585.413 27.918 565.29 35.5417 565.29 44.946C565.29 54.3503 585.413 61.974 610.236 61.974Z" fill="url(#paint4_radial_1_1920)"/>
<path d="M610.236 89.892C619.64 89.892 627.264 69.769 627.264 44.946C627.264 20.123 619.64 0 610.236 0C600.832 0 593.208 20.123 593.208 44.946C593.208 69.769 600.832 89.892 610.236 89.892Z" fill="url(#paint5_radial_1_1920)"/>
<path d="M956.934 921.69C968.22 938.322 982.872 948.024 989.604 943.272C996.534 938.718 992.97 921.492 981.684 904.86C970.398 888.228 955.746 878.526 949.014 883.278C942.084 888.03 945.648 905.058 956.934 921.69Z" fill="url(#paint6_radial_1_1920)"/>
<path opacity="0.6" d="M960.894 900.9C944.262 912.186 934.56 926.838 939.312 933.57C943.866 940.5 961.092 936.936 977.724 925.65C994.356 914.364 1004.06 899.712 999.306 892.98C994.554 886.248 977.526 889.614 960.894 900.9Z" fill="url(#paint7_radial_1_1920)"/>
<path d="M505.098 594.99C516.384 611.622 531.036 621.324 537.768 616.572C544.698 612.018 541.134 594.792 529.848 578.16C518.562 561.528 503.91 551.826 497.178 556.578C490.446 561.33 494.01 578.556 505.098 594.99Z" fill="url(#paint8_radial_1_1920)"/>
<path opacity="0.6" d="M509.256 574.2C492.624 585.486 482.922 600.138 487.674 606.87C492.228 613.8 509.454 610.236 526.086 598.95C542.718 587.664 552.42 573.012 547.668 566.28C542.916 559.548 525.69 563.112 509.256 574.2Z" fill="url(#paint9_radial_1_1920)"/>
<path d="M78.012 154.836C89.298 171.468 103.95 181.17 110.682 176.418C117.612 171.864 114.048 154.638 102.762 138.006C91.476 121.374 76.824 111.672 70.092 116.424C63.162 120.978 66.726 138.204 78.012 154.836Z" fill="url(#paint10_radial_1_1920)"/>
<path opacity="0.6" d="M81.9718 134.046C65.3398 145.332 55.6379 159.984 60.3899 166.716C64.9439 173.646 82.1698 170.082 98.8018 158.796C115.434 147.51 125.136 132.858 120.384 126.126C115.83 119.196 98.6038 122.76 81.9718 134.046Z" fill="url(#paint11_radial_1_1920)"/>
<defs>
<radialGradient id="paint0_radial_1_1920" cx="0" cy="0" r="1" gradientUnits="userSpaceOnUse" gradientTransform="translate(70.2969 575.326) rotate(180) scale(41.3545 41.5902)">
<stop stop-color="#FA316D"/>
<stop offset="0.0484923" stop-color="#D92B65" stop-opacity="0.9513"/>
<stop offset="0.1186" stop-color="#B0235C" stop-opacity="0.881"/>
<stop offset="0.1951" stop-color="#8B1C53" stop-opacity="0.8042"/>
<stop offset="0.2772" stop-color="#6C174C" stop-opacity="0.7219"/>
<stop offset="0.3664" stop-color="#531246" stop-opacity="0.6323"/>
<stop offset="0.4658" stop-color="#400E42" stop-opacity="0.5326"/>
<stop offset="0.5808" stop-color="#320C3E" stop-opacity="0.4171"/>
<stop offset="0.7257" stop-color="#2A0A3D" stop-opacity="0.2718"/>
<stop offset="0.9965" stop-color="#280A3C" stop-opacity="0"/>
</radialGradient>
<radialGradient id="paint1_radial_1_1920" cx="0" cy="0" r="1" gradientUnits="userSpaceOnUse" gradientTransform="translate(70.3215 575.33) rotate(-90) scale(41.3545 41.5902)">
<stop stop-color="#FA316D"/>
<stop offset="0.0484923" stop-color="#D92B65" stop-opacity="0.9513"/>
<stop offset="0.1186" stop-color="#B0235C" stop-opacity="0.881"/>
<stop offset="0.1951" stop-color="#8B1C53" stop-opacity="0.8042"/>
<stop offset="0.2772" stop-color="#6C174C" stop-opacity="0.7219"/>
<stop offset="0.3664" stop-color="#531246" stop-opacity="0.6323"/>
<stop offset="0.4658" stop-color="#400E42" stop-opacity="0.5326"/>
<stop offset="0.5808" stop-color="#320C3E" stop-opacity="0.4171"/>
<stop offset="0.7257" stop-color="#2A0A3D" stop-opacity="0.2718"/>
<stop offset="0.9965" stop-color="#280A3C" stop-opacity="0"/>
</radialGradient>
<radialGradient id="paint2_radial_1_1920" cx="0" cy="0" r="1" gradientUnits="userSpaceOnUse" gradientTransform="translate(63.2452 934.923) rotate(180) scale(26.3971 26.5476)">
<stop stop-color="#FFC66A"/>
<stop offset="0.0661016" stop-color="#D09E60" stop-opacity="0.9339"/>
<stop offset="0.1352" stop-color="#A77C57" stop-opacity="0.8648"/>
<stop offset="0.2106" stop-color="#825D4F" stop-opacity="0.7894"/>
<stop offset="0.2914" stop-color="#634348" stop-opacity="0.7086"/>
<stop offset="0.3794" stop-color="#4A2E42" stop-opacity="0.6206"/>
<stop offset="0.4773" stop-color="#371E3E" stop-opacity="0.5227"/>
<stop offset="0.5906" stop-color="#29133B" stop-opacity="0.4094"/>
<stop offset="0.7332" stop-color="#210C3A" stop-opacity="0.2668"/>
<stop offset="1" stop-color="#1F0A39" stop-opacity="0"/>
</radialGradient>
<radialGradient id="paint3_radial_1_1920" cx="0" cy="0" r="1" gradientUnits="userSpaceOnUse" gradientTransform="translate(63.2774 934.927) rotate(-90) scale(26.3971 26.5476)">
<stop stop-color="#FFC66A"/>
<stop offset="0.0661016" stop-color="#D09E60" stop-opacity="0.9339"/>
<stop offset="0.1352" stop-color="#A77C57" stop-opacity="0.8648"/>
<stop offset="0.2106" stop-color="#825D4F" stop-opacity="0.7894"/>
<stop offset="0.2914" stop-color="#634348" stop-opacity="0.7086"/>
<stop offset="0.3794" stop-color="#4A2E42" stop-opacity="0.6206"/>
<stop offset="0.4773" stop-color="#371E3E" stop-opacity="0.5227"/>
<stop offset="0.5906" stop-color="#29133B" stop-opacity="0.4094"/>
<stop offset="0.7332" stop-color="#210C3A" stop-opacity="0.2668"/>
<stop offset="1" stop-color="#1F0A39" stop-opacity="0"/>
</radialGradient>
<radialGradient id="paint4_radial_1_1920" cx="0" cy="0" r="1" gradientUnits="userSpaceOnUse" gradientTransform="translate(610.298 45.0202) rotate(180) scale(26.3972 26.5476)">
<stop stop-color="#FA316D"/>
<stop offset="0.0484923" stop-color="#D92B65" stop-opacity="0.9513"/>
<stop offset="0.1186" stop-color="#B0235C" stop-opacity="0.881"/>
<stop offset="0.1951" stop-color="#8B1C53" stop-opacity="0.8042"/>
<stop offset="0.2772" stop-color="#6C174C" stop-opacity="0.7219"/>
<stop offset="0.3664" stop-color="#531246" stop-opacity="0.6323"/>
<stop offset="0.4658" stop-color="#400E42" stop-opacity="0.5326"/>
<stop offset="0.5808" stop-color="#320C3E" stop-opacity="0.4171"/>
<stop offset="0.7257" stop-color="#2A0A3D" stop-opacity="0.2718"/>
<stop offset="0.9965" stop-color="#280A3C" stop-opacity="0"/>
</radialGradient>
<radialGradient id="paint5_radial_1_1920" cx="0" cy="0" r="1" gradientUnits="userSpaceOnUse" gradientTransform="translate(610.312 45.0355) rotate(-90) scale(26.3972 26.5476)">
<stop stop-color="#FA316D"/>
<stop offset="0.0484923" stop-color="#D92B65" stop-opacity="0.9513"/>
<stop offset="0.1186" stop-color="#B0235C" stop-opacity="0.881"/>
<stop offset="0.1951" stop-color="#8B1C53" stop-opacity="0.8042"/>
<stop offset="0.2772" stop-color="#6C174C" stop-opacity="0.7219"/>
<stop offset="0.3664" stop-color="#531246" stop-opacity="0.6323"/>
<stop offset="0.4658" stop-color="#400E42" stop-opacity="0.5326"/>
<stop offset="0.5808" stop-color="#320C3E" stop-opacity="0.4171"/>
<stop offset="0.7257" stop-color="#2A0A3D" stop-opacity="0.2718"/>
<stop offset="0.9965" stop-color="#280A3C" stop-opacity="0"/>
</radialGradient>
<radialGradient id="paint6_radial_1_1920" cx="0" cy="0" r="1" gradientUnits="userSpaceOnUse" gradientTransform="translate(969.247 913.33) rotate(145.918) scale(14.9818 36.2526)">
<stop stop-color="#FFC66A"/>
<stop offset="0.1172" stop-color="#FFDA81" stop-opacity="0.8828"/>
<stop offset="0.2557" stop-color="#FFEA94" stop-opacity="0.7443"/>
<stop offset="0.4169" stop-color="#FFF6A2" stop-opacity="0.5831"/>
<stop offset="0.62" stop-color="#FFFDAA" stop-opacity="0.38"/>
<stop offset="1" stop-color="#FFFFAC" stop-opacity="0"/>
</radialGradient>
<radialGradient id="paint7_radial_1_1920" cx="0" cy="0" r="1" gradientUnits="userSpaceOnUse" gradientTransform="translate(969.247 913.33) rotate(-124.082) scale(14.9819 36.2528)">
<stop stop-color="#FFC66A"/>
<stop offset="0.1172" stop-color="#FFDA81" stop-opacity="0.8828"/>
<stop offset="0.2557" stop-color="#FFEA94" stop-opacity="0.7443"/>
<stop offset="0.4169" stop-color="#FFF6A2" stop-opacity="0.5831"/>
<stop offset="0.62" stop-color="#FFFDAA" stop-opacity="0.38"/>
<stop offset="1" stop-color="#FFFFAC" stop-opacity="0"/>
</radialGradient>
<radialGradient id="paint8_radial_1_1920" cx="0" cy="0" r="1" gradientUnits="userSpaceOnUse" gradientTransform="translate(517.593 586.685) rotate(145.918) scale(14.9818 36.2526)">
<stop stop-color="#FFC66A"/>
<stop offset="0.1172" stop-color="#FFDA81" stop-opacity="0.8828"/>
<stop offset="0.2557" stop-color="#FFEA94" stop-opacity="0.7443"/>
<stop offset="0.4169" stop-color="#FFF6A2" stop-opacity="0.5831"/>
<stop offset="0.62" stop-color="#FFFDAA" stop-opacity="0.38"/>
<stop offset="1" stop-color="#FFFFAC" stop-opacity="0"/>
</radialGradient>
<radialGradient id="paint9_radial_1_1920" cx="0" cy="0" r="1" gradientUnits="userSpaceOnUse" gradientTransform="translate(517.593 586.685) rotate(-124.082) scale(14.9819 36.2528)">
<stop stop-color="#FFC66A"/>
<stop offset="0.1172" stop-color="#FFDA81" stop-opacity="0.8828"/>
<stop offset="0.2557" stop-color="#FFEA94" stop-opacity="0.7443"/>
<stop offset="0.4169" stop-color="#FFF6A2" stop-opacity="0.5831"/>
<stop offset="0.62" stop-color="#FFFDAA" stop-opacity="0.38"/>
<stop offset="1" stop-color="#FFFFAC" stop-opacity="0"/>
</radialGradient>
<radialGradient id="paint10_radial_1_1920" cx="0" cy="0" r="1" gradientUnits="userSpaceOnUse" gradientTransform="translate(90.3602 146.361) rotate(145.918) scale(14.9818 36.2526)">
<stop stop-color="#FFC66A"/>
<stop offset="0.0661016" stop-color="#D09E60" stop-opacity="0.9339"/>
<stop offset="0.1352" stop-color="#A77C57" stop-opacity="0.8648"/>
<stop offset="0.2106" stop-color="#825D4F" stop-opacity="0.7894"/>
<stop offset="0.2914" stop-color="#634348" stop-opacity="0.7086"/>
<stop offset="0.3794" stop-color="#4A2E42" stop-opacity="0.6206"/>
<stop offset="0.4773" stop-color="#371E3E" stop-opacity="0.5227"/>
<stop offset="0.5906" stop-color="#29133B" stop-opacity="0.4094"/>
<stop offset="0.7332" stop-color="#210C3A" stop-opacity="0.2668"/>
<stop offset="1" stop-color="#1F0A39" stop-opacity="0"/>
</radialGradient>
<radialGradient id="paint11_radial_1_1920" cx="0" cy="0" r="1" gradientUnits="userSpaceOnUse" gradientTransform="translate(90.3599 146.361) rotate(-124.082) scale(14.9819 36.2528)">
<stop stop-color="#FFC66A"/>
<stop offset="0.0661016" stop-color="#D09E60" stop-opacity="0.9339"/>
<stop offset="0.1352" stop-color="#A77C57" stop-opacity="0.8648"/>
<stop offset="0.2106" stop-color="#825D4F" stop-opacity="0.7894"/>
<stop offset="0.2914" stop-color="#634348" stop-opacity="0.7086"/>
<stop offset="0.3794" stop-color="#4A2E42" stop-opacity="0.6206"/>
<stop offset="0.4773" stop-color="#371E3E" stop-opacity="0.5227"/>
<stop offset="0.5906" stop-color="#29133B" stop-opacity="0.4094"/>
<stop offset="0.7332" stop-color="#210C3A" stop-opacity="0.2668"/>
<stop offset="1" stop-color="#1F0A39" stop-opacity="0"/>
</radialGradient>
</defs>
</svg>
