<svg width="500" height="518" viewBox="0 0 500 518" fill="none" xmlns="http://www.w3.org/2000/svg">
<path d="M68.9232 66.3122C68.9232 73.1281 66.9021 79.7909 63.1154 85.4581C59.3287 91.1253 53.9465 95.5423 47.6495 98.1507C41.3524 100.759 34.4233 101.441 27.7384 100.112C21.0535 98.782 14.913 95.4999 10.0935 90.6803C5.27393 85.8608 1.99178 79.7203 0.662065 73.0354C-0.667646 66.3505 0.0148095 59.4214 2.62313 53.1243C5.23145 46.8273 9.64849 41.4451 15.3157 37.6584C20.9829 33.8717 27.6457 31.8506 34.4616 31.8506C43.6014 31.8506 52.3668 35.4814 58.8296 41.9442C65.2924 48.407 68.9232 57.1724 68.9232 66.3122Z" fill="#EDB656"/>
<path opacity="0.2" d="M42.9711 33.0559C47.6479 37.9241 50.7885 44.061 52.0015 50.7018C53.2145 57.3426 52.4462 64.1935 49.7925 70.4007C47.1388 76.6078 42.7169 81.8967 37.0781 85.6081C31.4392 89.3195 24.8328 91.2893 18.0821 91.272C15.139 91.2573 12.2093 90.8762 9.36035 90.1375C12.9925 94.1118 17.5052 97.1797 22.5369 99.0955C27.5685 101.011 32.979 101.721 38.3346 101.169C43.6902 100.617 48.8418 98.817 53.3765 95.9146C57.9112 93.0122 61.7027 89.0877 64.4472 84.4557C67.1916 79.8237 68.8126 74.6132 69.1802 69.2417C69.5477 63.8703 68.6516 58.4875 66.5637 53.5248C64.4758 48.5622 61.2541 44.1578 57.1571 40.6647C53.06 37.1717 48.2015 34.6872 42.9711 33.4105V33.0559Z" fill="black"/>
<path d="M480.052 461.274C480.052 468.09 478.031 474.753 474.244 480.42C470.457 486.087 465.075 490.504 458.778 493.112C452.481 495.721 445.552 496.403 438.867 495.074C432.182 493.744 426.042 490.462 421.222 485.642C416.403 480.823 413.121 474.682 411.791 467.997C410.461 461.312 411.144 454.383 413.752 448.086C416.36 441.789 420.777 436.407 426.444 432.62C432.112 428.833 438.774 426.812 445.59 426.812C450.119 426.803 454.604 427.688 458.789 429.417C462.975 431.145 466.777 433.683 469.979 436.885C473.181 440.087 475.719 443.89 477.448 448.075C479.176 452.26 480.061 456.746 480.052 461.274Z" fill="#0CB0C1"/>
<path opacity="0.2" d="M454.526 428.089C459.173 432.974 462.286 439.114 463.478 445.75C464.67 452.386 463.889 459.226 461.232 465.423C458.576 471.62 454.159 476.901 448.531 480.613C442.902 484.325 436.308 486.304 429.566 486.305C426.646 486.29 423.74 485.909 420.915 485.17C424.588 489.044 429.111 492.012 434.127 493.839C439.143 495.667 444.515 496.304 449.82 495.7C455.124 495.097 460.215 493.269 464.693 490.361C469.17 487.454 472.91 483.545 475.619 478.945C478.328 474.345 479.931 469.178 480.301 463.852C480.672 458.527 479.801 453.188 477.755 448.257C475.71 443.325 472.547 438.937 468.516 435.437C464.485 431.937 459.695 429.422 454.526 428.089Z" fill="black"/>
<path d="M90.551 459.43C90.6355 464.847 89.1064 470.166 86.1584 474.711C83.2105 479.257 78.9769 482.822 73.9965 484.953C69.0162 487.085 63.5142 487.687 58.1908 486.682C52.8674 485.677 47.9634 483.111 44.1027 479.311C40.2421 475.51 37.5995 470.647 36.5112 465.34C35.4228 460.033 35.9381 454.522 37.9912 449.509C40.0444 444.496 43.5427 440.207 48.0409 437.188C52.5391 434.169 57.8338 432.557 63.2512 432.556C70.4184 432.555 77.2985 435.373 82.4062 440.401C87.5139 445.429 90.4393 452.264 90.551 459.43Z" fill="#FFD685"/>
<path opacity="0.2" d="M70.3406 433.123C74.0334 436.987 76.5107 441.85 77.4653 447.109C78.4199 452.368 77.8099 457.791 75.7109 462.706C73.6119 467.622 70.1162 471.813 65.6574 474.76C61.1986 477.707 55.9727 479.28 50.628 479.285C48.2345 479.285 45.851 478.975 43.5371 478.363C46.4493 481.43 50.0341 483.778 54.0088 485.222C57.9836 486.667 62.2395 487.168 66.4411 486.686C70.6427 486.205 74.6749 484.754 78.2199 482.448C81.7648 480.142 84.7255 477.043 86.8685 473.398C89.0115 469.752 90.2781 465.658 90.5685 461.439C90.8589 457.22 90.1651 452.991 88.5419 449.086C86.9187 445.18 84.4104 441.706 81.2148 438.936C78.0193 436.166 74.2239 434.176 70.1279 433.123H70.3406Z" fill="black"/>
<path d="M141.818 30.3613C141.832 35.7637 140.243 41.0488 137.251 45.5476C134.26 50.0463 130.002 53.5564 125.014 55.6336C120.027 57.7107 114.536 58.2615 109.236 57.2161C103.935 56.1708 99.0643 53.5763 95.2392 49.7612C91.4142 45.9461 88.8071 41.0819 87.7479 35.7843C86.6888 30.4867 87.2253 24.994 89.2894 20.0014C91.3536 15.0089 94.8526 10.741 99.3436 7.73815C103.835 4.73526 109.116 3.13234 114.518 3.13232C121.746 3.1323 128.679 5.99879 133.797 11.1032C138.915 16.2076 141.799 23.1332 141.818 30.3613Z" fill="#0CB0C1"/>
<path opacity="0.2" d="M121.68 4.0542C125.353 7.92552 127.811 12.7886 128.75 18.042C129.689 23.2955 129.068 28.7089 126.963 33.6129C124.858 38.517 121.362 42.6965 116.907 45.6347C112.452 48.5729 107.233 50.1409 101.897 50.1449C99.5058 50.1746 97.1215 49.8885 94.8057 49.294C97.7179 52.3296 101.292 54.6511 105.25 56.0773C109.207 57.5036 113.441 57.996 117.62 57.5162C121.799 57.0364 125.811 55.5972 129.342 53.3111C132.873 51.0251 135.828 47.9539 137.977 44.3372C140.125 40.7206 141.409 36.6565 141.727 32.4619C142.046 28.2674 141.391 24.056 139.813 20.1564C138.236 16.2568 135.778 12.7745 132.633 9.98134C129.487 7.18818 125.739 5.15969 121.68 4.0542Z" fill="black"/>
<path d="M195.566 5.04704C197.944 7.44165 199.56 10.4868 200.21 13.7985C200.86 17.1102 200.514 20.5402 199.218 23.6559C197.921 26.7717 195.73 29.4336 192.923 31.3062C190.115 33.1787 186.816 34.178 183.441 34.178C180.066 34.178 176.767 33.1787 173.959 31.3062C171.151 29.4336 168.961 26.7717 167.664 23.6559C166.367 20.5402 166.022 17.1102 166.671 13.7985C167.321 10.4868 168.937 7.44165 171.315 5.04704C172.904 3.44767 174.793 2.17833 176.874 1.31213C178.955 0.445939 181.187 0 183.441 0C185.695 0 187.927 0.445939 190.008 1.31213C192.089 2.17833 193.978 3.44767 195.566 5.04704Z" fill="#FFD685"/>
<path opacity="0.2" d="M174.718 2.49408C179.121 2.53799 183.327 4.32247 186.418 7.4577C188.018 9.04607 189.287 10.9352 190.153 13.0162C191.019 15.0972 191.465 17.329 191.465 19.5831C191.465 21.8372 191.019 24.069 190.153 26.15C189.287 28.231 188.018 30.1201 186.418 31.7085C185.396 32.72 184.253 33.6012 183.015 34.3321C185.328 34.3896 187.629 33.9725 189.776 33.1067C191.922 32.2408 193.868 30.9445 195.495 29.2976C198.443 26.357 200.217 22.4409 200.482 18.285C200.747 14.1291 199.485 10.0194 196.934 6.72809C194.383 3.43675 190.717 1.19024 186.627 0.410601C182.536 -0.369038 178.301 0.371853 174.718 2.49408Z" fill="black"/>
<path d="M37.7939 142.894C40.1962 145.293 41.8329 148.35 42.497 151.68C43.161 155.009 42.8226 158.46 41.5245 161.597C40.2264 164.734 38.027 167.416 35.2046 169.302C32.3821 171.189 29.0635 172.196 25.6685 172.196C22.2736 172.196 18.9549 171.189 16.1325 169.302C13.31 167.416 11.1106 164.734 9.81254 161.597C8.51445 158.46 8.17603 155.009 8.8401 151.68C9.50416 148.35 11.1409 145.293 13.5431 142.894C16.7697 139.698 21.1273 137.905 25.6685 137.905C30.2098 137.905 34.5674 139.698 37.7939 142.894Z" fill="#FFD685"/>
<path opacity="0.2" d="M17.3011 140.341C20.657 140.407 23.9189 141.461 26.6799 143.369C29.4409 145.278 31.5787 147.957 32.8266 151.073C34.0745 154.189 34.3771 157.604 33.6968 160.89C33.0165 164.177 31.3833 167.191 29.0011 169.555C27.9725 170.589 26.8027 171.473 25.5266 172.179C28.1678 172.241 30.7872 171.689 33.1793 170.567C35.5713 169.446 37.6707 167.785 39.3126 165.715C40.9545 163.645 42.0942 161.223 42.6421 158.639C43.19 156.054 43.1312 153.378 42.4703 150.82C41.8095 148.262 40.5646 145.892 38.8334 143.897C37.1022 141.901 34.9319 140.334 32.4929 139.318C30.054 138.303 27.4128 137.867 24.7769 138.044C22.1409 138.222 19.582 139.008 17.3011 140.341Z" fill="black"/>
<path d="M66.2293 367.036C68.6174 369.427 70.2433 372.472 70.9012 375.786C71.5592 379.101 71.2198 382.536 69.9258 385.657C68.6319 388.779 66.4415 391.447 63.6316 393.324C60.8217 395.201 57.5185 396.203 54.1393 396.203C50.7602 396.203 47.4569 395.201 44.647 393.324C41.8371 391.447 39.6467 388.779 38.3528 385.657C37.0589 382.536 36.7194 379.101 37.3774 375.786C38.0353 372.472 39.6612 369.427 42.0494 367.036C43.6365 365.447 45.5211 364.187 47.5956 363.327C49.6701 362.467 51.8937 362.025 54.1393 362.025C56.3849 362.025 58.6086 362.467 60.683 363.327C62.7575 364.187 64.6422 365.447 66.2293 367.036Z" fill="#0CB0C1"/>
<path opacity="0.2" d="M45.8065 364.484C49.1623 364.55 52.4243 365.603 55.1853 367.512C57.9463 369.421 60.0841 372.1 61.332 375.216C62.5798 378.332 62.8825 381.746 62.2022 385.033C61.5219 388.32 59.8887 391.333 57.5065 393.698C56.4889 394.715 55.345 395.596 54.1028 396.322C56.7415 396.372 59.3561 395.812 61.7416 394.683C64.1272 393.554 66.2189 391.888 67.8528 389.815C69.4866 387.743 70.6183 385.32 71.159 382.737C71.6997 380.154 71.6347 377.48 70.9693 374.927C70.3038 372.373 69.0558 370.008 67.3233 368.017C65.5907 366.026 63.4206 364.464 60.983 363.452C58.5455 362.44 55.9067 362.007 53.2737 362.186C50.6406 362.365 48.0848 363.151 45.8065 364.484Z" fill="black"/>
<path d="M161.459 473.825C163.848 476.215 165.473 479.26 166.131 482.575C166.789 485.889 166.45 489.324 165.156 492.446C163.862 495.568 161.672 498.236 158.862 500.113C156.052 501.989 152.749 502.991 149.369 502.991C145.99 502.991 142.687 501.989 139.877 500.113C137.067 498.236 134.877 495.568 133.583 492.446C132.289 489.324 131.95 485.889 132.607 482.575C133.265 479.26 134.891 476.215 137.279 473.825C140.494 470.633 144.84 468.843 149.369 468.843C153.899 468.843 158.245 470.633 161.459 473.825Z" fill="#EDB656"/>
<path opacity="0.2" d="M140.683 471.272C144.039 471.339 147.301 472.392 150.062 474.3C152.823 476.209 154.961 478.889 156.209 482.004C157.457 485.12 157.759 488.535 157.079 491.821C156.399 495.108 154.766 498.122 152.383 500.486C151.379 501.646 150.208 502.65 148.909 503.465C151.55 503.526 154.17 502.975 156.562 501.853C158.954 500.731 161.053 499.071 162.695 497.001C164.337 494.931 165.476 492.509 166.024 489.924C166.572 487.34 166.514 484.664 165.853 482.106C165.192 479.548 163.947 477.178 162.216 475.182C160.485 473.187 158.314 471.619 155.875 470.604C153.436 469.589 150.795 469.152 148.159 469.33C145.523 469.507 142.964 470.293 140.683 471.627V471.272Z" fill="black"/>
<path d="M261.654 487.723C264.032 490.117 265.647 493.163 266.297 496.474C266.947 499.786 266.602 503.216 265.305 506.332C264.008 509.447 261.818 512.109 259.01 513.982C256.202 515.855 252.903 516.854 249.528 516.854C246.153 516.854 242.854 515.855 240.046 513.982C237.239 512.109 235.048 509.447 233.751 506.332C232.454 503.216 232.109 499.786 232.759 496.474C233.409 493.163 235.025 490.117 237.403 487.723C238.991 486.123 240.88 484.854 242.961 483.988C245.042 483.122 247.274 482.676 249.528 482.676C251.782 482.676 254.014 483.122 256.095 483.988C258.176 484.854 260.065 486.123 261.654 487.723Z" fill="#0CB0C1"/>
<path opacity="0.2" d="M241.09 485.17C245.492 485.214 249.698 486.999 252.79 490.134C254.389 491.722 255.658 493.611 256.524 495.692C257.391 497.773 257.837 500.005 257.837 502.259C257.837 504.513 257.391 506.745 256.524 508.826C255.658 510.907 254.389 512.796 252.79 514.385C251.772 515.401 250.628 516.283 249.386 517.008C252.025 517.059 254.639 516.498 257.025 515.37C259.41 514.241 261.502 512.575 263.136 510.502C264.77 508.43 265.901 506.007 266.442 503.424C266.983 500.841 266.918 498.167 266.252 495.613C265.587 493.06 264.339 490.695 262.606 488.704C260.874 486.713 258.704 485.15 256.266 484.139C253.829 483.127 251.19 482.694 248.557 482.873C245.924 483.052 243.368 483.838 241.09 485.17Z" fill="black"/>
<path d="M494.588 375.829C496.977 378.219 498.602 381.264 499.26 384.579C499.918 387.893 499.579 391.329 498.285 394.45C496.991 397.572 494.801 400.24 491.991 402.117C489.181 403.994 485.878 404.995 482.498 404.995C479.119 404.995 475.816 403.994 473.006 402.117C470.196 400.24 468.006 397.572 466.712 394.45C465.418 391.329 465.079 387.893 465.737 384.579C466.394 381.264 468.02 378.219 470.408 375.829C471.996 374.24 473.88 372.98 475.955 372.12C478.029 371.26 480.253 370.817 482.498 370.817C484.744 370.817 486.968 371.26 489.042 372.12C491.117 372.98 493.001 374.24 494.588 375.829Z" fill="#0CB0C1"/>
<path opacity="0.2" d="M474.167 373.064C477.523 373.13 480.785 374.183 483.546 376.092C486.307 378.001 488.445 380.68 489.693 383.796C490.941 386.912 491.243 390.326 490.563 393.613C489.883 396.9 488.25 399.914 485.867 402.278C484.85 403.295 483.706 404.176 482.464 404.902C485.102 404.953 487.717 404.392 490.103 403.263C492.488 402.134 494.58 400.468 496.214 398.396C497.848 396.323 498.979 393.9 499.52 391.317C500.061 388.734 499.996 386.061 499.33 383.507C498.665 380.953 497.417 378.588 495.684 376.597C493.952 374.606 491.782 373.044 489.344 372.032C486.906 371.021 484.268 370.587 481.635 370.766C479.002 370.945 476.446 371.731 474.167 373.064Z" fill="black"/>
<path d="M425.453 28.3759C427.841 30.7666 429.467 33.8116 430.125 37.1261C430.783 40.4405 430.443 43.8757 429.149 46.9972C427.855 50.1188 425.665 52.7867 422.855 54.6637C420.045 56.5407 416.742 57.5425 413.363 57.5425C409.984 57.5425 406.68 56.5407 403.87 54.6637C401.06 52.7867 398.87 50.1188 397.576 46.9972C396.282 43.8757 395.943 40.4405 396.601 37.1261C397.259 33.8116 398.885 30.7666 401.273 28.3759C402.86 26.7872 404.744 25.5269 406.819 24.667C408.893 23.8071 411.117 23.3645 413.363 23.3645C415.608 23.3645 417.832 23.8071 419.906 24.667C421.981 25.5269 423.866 26.7872 425.453 28.3759Z" fill="#EDB656"/>
<path d="M412.334 29.4397C412.595 29.2005 412.937 29.0679 413.291 29.0679C413.645 29.0679 413.987 29.2005 414.248 29.4397C414.492 29.7127 414.627 30.0661 414.627 30.4324C414.627 30.7987 414.492 31.1521 414.248 31.4251L412.334 29.4397Z" fill="#D3B94F"/>
<path opacity="0.2" d="M404.961 25.4687C408.316 25.5352 411.578 26.5884 414.339 28.4971C417.1 30.4057 419.238 33.0851 420.486 36.201C421.734 39.3169 422.037 42.7312 421.356 46.018C420.676 49.3049 419.043 52.3185 416.66 54.6831C415.632 55.7171 414.462 56.6004 413.186 57.3067C415.827 57.3682 418.447 56.8166 420.839 55.695C423.231 54.5735 425.33 52.9126 426.972 50.8428C428.614 48.7731 429.754 46.3508 430.301 43.7664C430.849 41.1819 430.791 38.5056 430.13 35.9477C429.469 33.3898 428.224 31.0199 426.493 29.0242C424.762 27.0286 422.591 25.4615 420.152 24.446C417.713 23.4306 415.072 22.9945 412.436 23.1719C409.8 23.3493 407.241 24.1355 404.961 25.4687Z" fill="black"/>
<path d="M471.614 94.0374C474.002 96.428 475.628 99.473 476.286 102.788C476.944 106.102 476.605 109.537 475.311 112.659C474.017 115.78 471.826 118.448 469.017 120.325C466.207 122.202 462.903 123.204 459.524 123.204C456.145 123.204 452.842 122.202 450.032 120.325C447.222 118.448 445.032 115.78 443.738 112.659C442.444 109.537 442.104 106.102 442.762 102.788C443.42 99.473 445.046 96.428 447.434 94.0374C450.658 90.8632 455 89.084 459.524 89.084C464.048 89.084 468.391 90.8632 471.614 94.0374Z" fill="#FFD685"/>
<path opacity="0.2" d="M450.838 91.4847C454.151 91.6083 457.356 92.6884 460.068 94.5946C462.779 96.5008 464.88 99.1514 466.118 102.226C467.355 105.301 467.676 108.668 467.041 111.921C466.405 115.174 464.842 118.174 462.538 120.557C461.51 121.591 460.34 122.475 459.064 123.181C461.385 123.262 463.697 122.863 465.857 122.008C468.017 121.154 469.977 119.864 471.615 118.217C474.637 115.293 476.476 111.358 476.778 107.163C477.08 102.968 475.825 98.8096 473.253 95.4824C470.681 92.1553 466.972 89.8934 462.837 89.1297C458.701 88.3659 454.429 89.1539 450.838 91.3429V91.4847Z" fill="black"/>
<path d="M73.0359 259.255C171.245 357.393 332.846 357.393 448.356 288.115C452.729 286.685 457.298 285.943 461.9 285.917C463.224 277.866 464.076 269.745 464.452 261.595C341.851 333.284 202.09 344.629 84.5941 247.413C81.4165 243.28 77.2885 239.974 72.5606 237.777C67.8326 235.58 62.6443 234.556 57.436 234.792C56.7269 241.102 56.7269 246.846 56.7269 252.944C56.7269 254.504 56.7269 256.135 56.7269 257.695C63.8178 256.561 69.4196 255.284 73.0359 259.255Z" fill="#D69630"/>
<path d="M68.2842 320.662C77.5068 346.814 91.9858 370.801 110.829 391.145C211.52 363.916 322.988 344.274 427.933 369.447C436.452 357.102 443.586 343.857 449.206 329.951C325.399 342.005 185.071 372.071 68.2842 320.662Z" fill="#FFD685"/>
<path d="M448.356 288.115C332.846 357.393 171.245 357.393 73.0359 259.255C69.4196 255.284 63.8178 256.56 56.7269 257.695C57.2083 279.159 61.0854 300.411 68.2141 320.662C185.001 372.071 325.329 341.934 449.42 329.951C455.197 315.785 459.359 301.014 461.829 285.917C457.251 285.95 452.707 286.692 448.356 288.115Z" fill="#EDB656"/>
<path d="M110.829 391.145C113.666 394.265 116.573 397.314 119.622 400.222C212.725 375.829 322.137 359.236 411.837 390.011C417.627 383.574 423.003 376.777 427.933 369.66C322.988 344.275 211.52 363.916 110.829 391.145Z" fill="#EDB656"/>
<path d="M241.09 455.885C247.613 456.523 254.208 456.949 260.873 456.949C279.028 457.032 297.11 454.646 314.622 449.858C302.962 444.133 289.97 441.671 277.025 442.733C264.079 443.794 251.662 448.338 241.09 455.885Z" fill="#D69630"/>
<path d="M212.158 451.063C221.479 453.375 230.96 454.987 240.522 455.885C251.067 448.293 263.471 443.698 276.418 442.587C289.364 441.476 302.369 443.89 314.054 449.574C323.529 446.956 332.796 443.638 341.78 439.647C320.932 430.604 298.156 426.912 275.52 428.906C252.884 430.899 231.104 438.516 212.158 451.063Z" fill="#EDB656"/>
<path d="M341.781 439.647C353.693 434.553 365.09 428.332 375.817 421.069C310.936 396.392 231.518 406.887 167.487 434.47C181.611 441.712 196.532 447.281 211.947 451.063C230.917 438.479 252.735 430.842 275.413 428.848C298.09 426.854 320.906 430.566 341.781 439.647Z" fill="#FFD685"/>
<path d="M119.624 400.221C133.894 413.92 150.091 425.458 167.7 434.47C231.518 407.029 311.148 396.392 376.03 421.069C389.008 412.04 400.905 401.547 411.484 389.798C322.139 359.236 212.727 375.829 119.624 400.221Z" fill="#0CB0C1"/>
<path d="M84.5947 247.697C201.949 344.629 341.852 333.284 464.453 261.595C464.453 258.759 464.453 255.851 464.453 252.944C464.485 227.034 459.575 201.355 449.988 177.284C366.386 299.815 213.081 229.119 107.711 190.332C95.3513 185.52 82.1864 183.113 68.9239 183.241C62.8887 199.857 59.0277 217.185 57.4366 234.791C62.6693 234.588 67.8733 235.656 72.6031 237.904C77.3329 240.151 81.4475 243.511 84.5947 247.697Z" fill="#0CB0C1"/>
<path d="M416.802 121.975C413.327 117.934 409.711 113.963 406.095 110.205C338.731 166.932 220.455 150.552 148.128 91.7683C145.795 90.2594 143.297 89.0223 140.683 88.0811C129.598 96.2022 119.359 105.42 110.121 115.594C211.45 149.772 321.004 198.557 416.802 121.975Z" fill="#D69630"/>
<path d="M429.564 139.065C425.593 133.179 421.339 127.436 416.801 121.976C321.003 198.77 211.165 149.772 110.12 115.594C106.079 119.99 102.25 124.599 98.5623 129.35C207.124 153.743 343.127 222.524 429.564 139.065Z" fill="#EDB656"/>
<path d="M444.74 165.23C440.324 156.151 435.252 147.406 429.565 139.065C343.127 222.524 207.124 153.743 98.563 129.35C90.6869 139.645 83.8017 150.661 77.9995 162.252C191.454 188.843 347.453 252.802 444.74 165.23Z" fill="#FFD685"/>
<path d="M77.9991 162.252C74.5242 169.016 71.4462 175.977 68.781 183.099C82.0436 182.972 95.2084 185.378 107.568 190.19C213.08 228.764 366.385 299.46 449.986 177.284C448.356 173.313 446.583 169.414 444.739 165.584C347.452 252.802 191.453 188.842 77.9991 162.252Z" fill="#EDB656"/>
<path d="M363.124 76.523C338.661 85.3866 310.297 89.712 286.685 97.7956C238.538 112.616 207.054 89.4284 172.309 69.4321C161.237 74.813 150.656 81.1478 140.683 88.3648C143.298 89.306 145.796 90.5432 148.129 92.052C220.456 150.835 338.732 167.144 406.095 110.488C393.345 97.3067 378.894 85.8843 363.124 76.523Z" fill="#0CB0C1"/>
<path d="M330.789 61.4194C297.462 96.8738 235.275 76.9485 190.177 61.4194C184.079 63.6885 178.123 66.0994 172.308 68.9358C207.054 89.0029 238.537 112.19 286.684 97.2993C310.297 89.4284 338.66 85.103 363.124 76.0266C352.784 70.2404 341.966 65.3534 330.789 61.4194Z" fill="#D69630"/>
<path d="M310.226 55.1085C293.997 51.0247 277.326 48.9528 260.59 48.9395C248.965 48.9438 237.363 49.9641 225.916 51.9885C253.641 68.0139 290.017 84.1102 310.226 55.1085Z" fill="#FFD685"/>
<path d="M310.226 55.1085C290.017 84.1102 253.499 68.0139 225.987 51.9885C213.78 54.0976 201.793 57.3257 190.178 61.6321C235.276 76.9484 297.463 97.0865 330.79 61.6321C324.124 59.0085 317.175 56.7394 310.226 55.1085Z" fill="#EDB656"/>
<path d="M112.533 214.937C112.533 219.191 107.357 222.666 100.975 222.666C94.593 222.666 89.4166 219.191 89.4166 214.937C89.4166 210.682 94.593 207.279 100.975 207.279C107.357 207.279 112.533 210.682 112.533 214.937Z" fill="#007272"/>
<path d="M210.669 247.2C210.669 251.455 205.493 254.93 199.111 254.93C192.73 254.93 187.553 251.455 187.553 247.2C187.553 242.946 192.73 239.471 199.111 239.471C205.493 239.471 210.669 242.946 210.669 247.2Z" fill="#007272"/>
<path d="M326.18 275.138C326.18 279.322 321.004 282.797 314.622 282.797C308.24 282.797 303.135 279.322 303.135 275.138C303.135 270.955 308.24 267.409 314.622 267.409C321.004 267.409 326.18 270.884 326.18 275.138Z" fill="#007272"/>
<path d="M419 256.348C419 260.602 413.824 264.006 407.442 264.006C401.06 264.006 395.884 260.602 395.884 256.348C395.884 252.093 401.06 248.619 407.442 248.619C413.824 248.619 419 252.093 419 256.348Z" fill="#007272"/>
<path d="M288.101 118.288C288.101 122.543 282.925 125.947 276.543 125.947C270.161 125.947 265.056 122.543 265.056 118.288C265.056 114.034 270.161 110.559 276.543 110.559C282.925 110.559 288.101 114.034 288.101 118.288Z" fill="#007272"/>
<path d="M347.028 113.892C347.028 115.452 345.255 116.657 342.986 116.657C340.717 116.657 338.873 115.452 338.873 113.892C338.873 112.332 340.717 111.198 342.986 111.198C345.255 111.198 347.028 112.403 347.028 113.892Z" fill="#007272"/>
<path d="M375.817 95.1719C375.817 96.661 374.044 97.8665 371.775 97.8665C369.506 97.8665 367.662 96.661 367.662 95.1719C367.662 93.6829 369.506 92.4065 371.775 92.4065C374.044 92.4065 375.817 93.6829 375.817 95.1719Z" fill="#007272"/>
<path d="M200.813 111.552C200.813 113.041 198.969 114.247 196.7 114.247C194.431 114.247 192.587 113.041 192.587 111.552C192.587 110.063 194.431 108.787 196.7 108.787C198.969 108.787 200.813 109.992 200.813 111.552Z" fill="#007272"/>
<path d="M221.519 105.241C221.519 106.801 219.676 108.007 217.407 108.007C215.138 108.007 213.294 106.801 213.294 105.241C213.294 103.681 215.138 102.547 217.407 102.547C219.676 102.547 221.519 103.752 221.519 105.241Z" fill="#007272"/>
<path d="M166.139 86.0249C166.139 87.5139 164.296 88.7903 162.098 88.7903C159.899 88.7903 157.985 87.5139 157.985 86.0249C157.985 84.5358 159.828 83.3303 162.098 83.3303C164.367 83.3303 166.139 84.5358 166.139 86.0249Z" fill="#007272"/>
<path d="M90.1253 235.5C90.1253 236.989 88.2817 238.195 86.0835 238.195C83.8854 238.195 81.9708 236.989 81.9708 235.5C81.9708 234.011 83.8145 232.735 86.0835 232.735C88.3526 232.735 90.1253 234.011 90.1253 235.5Z" fill="#007272"/>
<path d="M135.861 213.519C135.861 215.008 134.017 216.284 131.748 216.284C129.479 216.284 127.636 215.008 127.636 213.519C127.636 212.03 129.479 210.824 131.748 210.824C134.017 210.824 135.861 212.03 135.861 213.519Z" fill="#007272"/>
<path d="M154.58 248.193C154.58 249.682 152.808 250.888 150.538 250.888C148.269 250.888 146.426 249.682 146.426 248.193C146.426 246.704 148.269 245.428 150.538 245.428C152.808 245.428 154.58 246.633 154.58 248.193Z" fill="#007272"/>
<path d="M135.861 260.177C135.861 261.666 134.017 262.942 131.748 262.942C129.479 262.942 127.636 261.666 127.636 260.177C127.636 258.688 129.479 257.482 131.748 257.482C134.017 257.482 135.861 258.688 135.861 260.177Z" fill="#007272"/>
<path d="M209.464 269.466C209.464 270.955 207.62 272.231 205.351 272.231C203.082 272.231 201.309 270.955 201.309 269.466C201.309 267.977 203.082 266.771 205.351 266.771C207.62 266.771 209.464 267.835 209.464 269.466Z" fill="#007272"/>
<path d="M185.852 228.41C185.852 229.97 184.079 231.175 181.81 231.175C179.541 231.175 177.698 229.97 177.698 228.41C177.698 226.85 179.541 225.715 181.81 225.715C184.079 225.715 185.852 226.921 185.852 228.41Z" fill="#007272"/>
<path d="M205.139 286.129C205.139 287.689 203.295 288.895 201.026 288.895C198.757 288.895 196.914 287.689 196.914 286.129C196.914 284.569 198.545 283.647 201.026 283.647C203.508 283.647 205.139 284.64 205.139 286.129Z" fill="#007272"/>
<path d="M258.534 278.968C258.534 280.457 256.69 281.662 254.421 281.662C252.152 281.662 250.379 280.457 250.379 278.968C250.379 277.479 252.152 276.202 254.421 276.202C256.69 276.202 258.534 277.479 258.534 278.968Z" fill="#007272"/>
<path d="M293.207 309.742C293.207 311.231 291.363 312.436 289.094 312.436C286.825 312.436 284.982 311.231 284.982 309.742C284.982 308.253 286.825 307.047 289.094 307.047C291.363 307.047 293.207 308.253 293.207 309.742Z" fill="#007272"/>
<path d="M223.434 385.756C223.434 387.245 221.59 388.451 219.321 388.451C217.052 388.451 215.209 387.245 215.209 385.756C215.209 384.267 217.052 383.062 219.321 383.062C221.59 383.062 223.434 384.267 223.434 385.756Z" fill="#007272"/>
<path d="M141.818 404.192C141.818 405.752 139.974 406.958 137.705 406.958C135.436 406.958 133.664 405.752 133.664 404.192C133.664 402.632 135.507 401.498 137.705 401.498C139.904 401.498 141.818 402.987 141.818 404.192Z" fill="#007272"/>
<path d="M271.014 392.989C271.014 394.478 269.241 395.683 266.972 395.683C264.703 395.683 262.859 394.478 262.859 392.989C262.859 391.5 264.703 390.223 266.972 390.223C269.241 390.223 271.014 391.429 271.014 392.989Z" fill="#007272"/>
<path d="M285.479 397.811C285.479 399.3 283.636 400.505 281.367 400.505C279.097 400.505 277.325 399.3 277.325 397.811C277.325 396.322 279.097 395.045 281.367 395.045C283.636 395.045 285.479 396.251 285.479 397.811Z" fill="#007272"/>
<path d="M315.756 395.825C315.756 397.385 313.983 398.591 311.714 398.591C309.445 398.591 307.601 397.385 307.601 395.825C307.601 394.265 309.445 393.131 311.714 393.131C313.983 393.131 315.756 394.336 315.756 395.825Z" fill="#007272"/>
<path d="M310.508 380.935C310.508 382.424 308.665 383.7 306.396 383.7C304.127 383.7 302.283 382.424 302.283 380.935C302.283 379.445 304.127 378.24 306.396 378.24C308.665 378.24 310.508 379.445 310.508 380.935Z" fill="#007272"/>
<path d="M357.167 383.842C357.167 385.331 355.323 386.536 353.054 386.536C350.785 386.536 348.942 385.331 348.942 383.842C348.942 382.353 350.785 381.076 353.054 381.076C355.323 381.076 357.167 382.353 357.167 383.842Z" fill="#007272"/>
<path d="M378.795 408.376C378.795 409.865 376.951 411.071 374.682 411.071C372.413 411.071 370.64 409.865 370.64 408.376C370.64 406.887 372.484 405.611 374.682 405.611C376.88 405.611 378.795 406.887 378.795 408.376Z" fill="#007272"/>
<path d="M190.673 395.4C190.673 396.889 188.83 398.094 186.632 398.094C184.433 398.094 182.519 396.889 182.519 395.4C182.519 393.911 184.363 392.634 186.632 392.634C188.901 392.634 190.673 393.84 190.673 395.4Z" fill="#007272"/>
<path d="M236.409 404.973C236.409 406.533 234.566 407.738 232.297 407.738C230.027 407.738 228.255 406.533 228.255 404.973C228.255 403.413 230.027 402.278 232.297 402.278C234.566 402.278 236.409 403.484 236.409 404.973Z" fill="#007272"/>
<path d="M236.906 396.18C236.906 397.669 235.062 398.874 232.793 398.874C230.524 398.874 228.681 397.669 228.681 396.18C228.681 394.691 230.524 393.485 232.793 393.485C235.062 393.485 236.906 394.691 236.906 396.18Z" fill="#007272"/>
<path d="M296.045 287.618C296.045 289.108 294.201 290.313 292.003 290.313C289.805 290.313 287.89 289.108 287.89 287.618C287.89 286.129 289.734 284.853 292.003 284.853C294.272 284.853 296.045 286.129 296.045 287.618Z" fill="#007272"/>
<path d="M339.369 256.348C339.369 257.837 337.525 259.042 335.256 259.042C332.987 259.042 331.143 257.837 331.143 256.348C331.143 254.859 332.987 253.653 335.256 253.653C337.525 253.653 339.369 254.859 339.369 256.348Z" fill="#007272"/>
<path d="M351.352 262.375C351.352 263.864 349.579 265.07 347.31 265.07C345.041 265.07 343.198 263.864 343.198 262.375C343.198 260.886 345.041 259.68 347.31 259.68C349.579 259.68 351.352 261.099 351.352 262.375Z" fill="#007272"/>
<path d="M450.979 198.557C450.979 200.046 449.136 201.251 446.867 201.251C444.597 201.251 442.825 200.046 442.825 198.557C442.825 197.068 444.597 195.792 446.867 195.792C449.136 195.792 450.979 197.068 450.979 198.557Z" fill="#007272"/>
<path d="M442.329 234.011C442.329 235.501 440.485 236.777 438.216 236.777C435.947 236.777 434.103 235.501 434.103 234.011C434.103 232.522 435.947 231.317 438.216 231.317C440.485 231.317 442.329 232.239 442.329 234.011Z" fill="#007272"/>
<path d="M411.767 278.968C411.767 280.457 408.931 281.662 405.527 281.662C402.124 281.662 399.287 280.457 399.287 278.968C399.287 277.479 402.053 276.202 405.527 276.202C409.002 276.202 411.767 277.408 411.767 278.968Z" fill="#007272"/>
<path d="M124.302 242.591C124.302 245.428 120.899 247.697 116.715 247.697C112.531 247.697 109.128 245.428 109.128 242.591C109.128 239.755 112.531 237.557 116.715 237.557C120.899 237.557 124.302 239.826 124.302 242.591Z" fill="#007272"/>
<path d="M157.984 226.282C157.984 229.048 154.58 231.317 150.397 231.317C146.213 231.317 142.809 229.048 142.809 226.282C142.809 223.517 146.213 221.248 150.397 221.248C154.58 221.248 157.984 223.446 157.984 226.282Z" fill="#007272"/>
<path d="M169.046 277.762C169.046 280.527 165.642 282.797 161.459 282.797C157.275 282.797 153.872 280.527 153.872 277.762C153.872 274.997 157.275 272.728 161.459 272.728C165.642 272.728 169.046 274.926 169.046 277.762Z" fill="#007272"/>
<path d="M239.742 264.786C239.742 267.551 236.338 269.82 232.155 269.82C227.971 269.82 224.638 267.551 224.638 264.786C224.638 262.02 227.971 259.68 232.155 259.68C236.338 259.68 239.742 261.95 239.742 264.786Z" fill="#007272"/>
<path d="M264.276 302.793C264.276 305.558 260.873 307.827 256.689 307.827C252.505 307.827 249.173 305.558 249.173 302.793C249.173 300.027 252.505 297.829 256.689 297.829C260.873 297.829 264.276 299.956 264.276 302.793Z" fill="#007272"/>
<path d="M284.982 266.7C284.982 269.466 281.579 271.735 277.395 271.735C273.212 271.735 269.808 269.466 269.808 266.7C269.808 263.935 273.212 261.595 277.395 261.595C281.579 261.595 284.982 263.864 284.982 266.7Z" fill="#007272"/>
<path d="M384.61 258.475C384.61 261.311 381.206 263.58 377.022 263.58C372.839 263.58 369.435 261.311 369.435 258.475C369.435 255.639 372.839 253.44 377.022 253.44C381.206 253.44 384.61 255.71 384.61 258.475Z" fill="#007272"/>
<path d="M446.158 214.724C446.158 217.49 442.754 219.759 438.571 219.759C434.387 219.759 430.983 217.49 430.983 214.724C430.983 211.959 434.387 209.69 438.571 209.69C442.754 209.69 446.158 211.959 446.158 214.724Z" fill="#007272"/>
<path d="M447.718 257.34C447.718 260.106 444.314 262.375 440.13 262.375C435.947 262.375 432.543 260.106 432.543 257.34C432.543 254.575 435.947 252.235 440.13 252.235C444.314 252.235 447.718 254.504 447.718 257.34Z" fill="#007272"/>
<path d="M337.525 298.184C337.525 301.02 334.193 303.289 330.009 303.289C325.825 303.289 322.422 301.02 322.422 298.184C322.422 295.347 325.825 293.149 330.009 293.149C334.193 293.149 337.525 295.418 337.525 298.184Z" fill="#007272"/>
<path d="M358.23 93.7539C358.23 96.5193 354.827 98.7884 350.643 98.7884C346.459 98.7884 343.056 96.5193 343.056 93.7539C343.056 90.9884 346.459 88.6484 350.643 88.6484C354.827 88.6484 358.23 90.9175 358.23 93.7539Z" fill="#007272"/>
<path d="M319.728 130.768C319.728 133.534 316.395 135.803 312.211 135.803C308.028 135.803 304.908 133.534 304.908 130.768C304.908 128.003 308.311 125.734 312.495 125.734C316.678 125.734 319.728 128.003 319.728 130.768Z" fill="#007272"/>
<path d="M320.224 101.412C320.224 104.177 316.82 106.446 312.637 106.446C308.453 106.446 304.908 104.177 304.908 101.412C304.908 98.6465 308.311 96.3774 312.495 96.3774C316.678 96.3774 320.224 98.6465 320.224 101.412Z" fill="#007272"/>
<path d="M379.433 112.97C379.433 115.736 376.03 118.005 371.846 118.005C367.663 118.005 364.259 115.736 364.259 112.97C364.259 110.205 367.663 107.936 371.846 107.936C376.03 107.936 379.433 110.205 379.433 112.97Z" fill="#007272"/>
<path d="M192.73 90.3502C192.73 93.1865 189.326 95.3847 185.143 95.3847C180.959 95.3847 177.272 93.1865 177.272 90.3502C177.272 87.5138 180.675 85.3157 184.859 85.3157C189.043 85.3157 192.73 87.5848 192.73 90.3502Z" fill="#007272"/>
<path d="M241.09 122.117C241.09 124.883 237.758 127.152 233.574 127.152C229.39 127.152 225.987 124.883 225.987 122.117C225.987 119.352 229.39 117.083 233.574 117.083C237.758 117.083 241.09 119.352 241.09 122.117Z" fill="#007272"/>
<path d="M165.288 400.647C165.288 403.483 161.884 405.752 157.771 405.752C153.659 405.752 150.184 403.483 150.184 400.647C150.184 397.81 153.517 395.612 157.771 395.612C162.026 395.612 165.288 397.881 165.288 400.647Z" fill="#007272"/>
<path d="M217.761 404.547C217.761 407.312 214.358 409.581 210.174 409.581C205.99 409.581 202.587 407.312 202.587 404.547C202.587 401.781 205.99 399.441 210.174 399.441C214.358 399.441 217.761 401.71 217.761 404.547Z" fill="#007272"/>
<path d="M295.193 384.764C295.193 387.6 291.789 389.869 287.606 389.869C283.422 389.869 280.019 387.6 280.019 384.764C280.019 381.927 283.422 379.729 287.606 379.729C291.789 379.729 295.193 381.998 295.193 384.764Z" fill="#007272"/>
<path d="M354.545 400.222C354.545 402.987 351.141 405.256 346.957 405.256C342.774 405.256 339.37 402.987 339.37 400.222C339.37 397.456 342.774 395.116 346.957 395.116C351.141 395.116 354.545 397.102 354.545 400.222Z" fill="#007272"/>
<path d="M337.525 383.842C337.525 386.607 334.122 388.876 329.938 388.876C325.755 388.876 322.422 386.607 322.422 383.842C322.422 381.076 325.755 378.807 329.938 378.807C334.122 378.807 337.525 381.005 337.525 383.842Z" fill="#007272"/>
<path d="M380.992 395.4C380.992 397.385 378.581 399.016 375.532 399.016C372.483 399.016 370.143 397.385 370.143 395.4C370.143 393.414 372.554 391.783 375.532 391.783C378.511 391.783 380.992 393.414 380.992 395.4Z" fill="#007272"/>
<path d="M256.476 385.756C256.476 387.741 254.065 389.372 251.087 389.372C248.109 389.372 245.627 387.741 245.627 385.756C245.627 383.771 248.109 382.14 251.087 382.14C254.065 382.14 256.476 383.771 256.476 385.756Z" fill="#007272"/>
<path d="M161.246 413.694C161.246 415.68 158.835 417.24 155.786 417.24C152.737 417.24 150.397 415.68 150.397 413.694C150.397 411.709 152.808 410.078 155.786 410.078C158.764 410.078 161.246 411.638 161.246 413.694Z" fill="#007272"/>
<path d="M182.874 421.352C182.874 423.338 180.463 424.969 177.485 424.969C174.506 424.969 172.025 423.338 172.025 421.352C172.025 419.367 174.506 417.736 177.485 417.736C180.463 417.736 182.874 419.367 182.874 421.352Z" fill="#007272"/>
<path d="M180.959 287.618C180.959 289.604 178.548 291.235 175.57 291.235C172.592 291.235 170.11 289.604 170.11 287.618C170.11 285.633 172.521 284.002 175.57 284.002C178.619 284.002 180.959 285.633 180.959 287.618Z" fill="#007272"/>
<path d="M181.456 266.417C181.456 268.402 179.045 270.033 175.996 270.033C172.947 270.033 170.607 268.402 170.607 266.417C170.607 264.431 173.018 262.8 175.996 262.8C178.974 262.8 181.456 264.431 181.456 266.417Z" fill="#007272"/>
<path d="M83.7435 210.611C83.7435 212.597 81.3326 214.228 78.3544 214.228C75.3762 214.228 72.9653 212.597 72.9653 210.611C72.9653 208.626 75.3762 206.995 78.3544 206.995C81.3326 206.995 83.7435 208.626 83.7435 210.611Z" fill="#007272"/>
<path d="M254.066 256.348C254.066 258.333 251.656 259.964 248.677 259.964C245.699 259.964 243.288 258.333 243.288 256.348C243.288 254.362 245.699 252.731 248.677 252.731C251.656 252.731 254.066 254.362 254.066 256.348Z" fill="#007272"/>
<path d="M368.086 279.889C368.086 281.946 365.675 283.506 362.697 283.506C359.719 283.506 357.237 281.946 357.237 279.889C357.237 277.833 359.719 276.273 362.697 276.273C365.675 276.273 368.086 277.904 368.086 279.889Z" fill="#007272"/>
<path d="M387.375 274.146C387.375 276.131 384.893 277.762 381.915 277.762C378.937 277.762 376.526 276.131 376.526 274.146C376.526 272.16 378.937 270.53 381.915 270.53C384.893 270.53 387.375 272.16 387.375 274.146Z" fill="#007272"/>
<path d="M426.304 230.395C426.304 232.381 423.893 233.941 420.915 233.941C417.937 233.941 415.526 232.381 415.526 230.395C415.526 228.41 417.937 226.779 420.915 226.779C423.893 226.779 426.304 228.339 426.304 230.395Z" fill="#007272"/>
<path d="M457.574 241.102C457.574 243.088 455.163 244.719 452.185 244.719C449.207 244.719 446.725 242.946 446.725 241.102C446.725 239.259 449.207 237.486 452.185 237.486C455.163 237.486 457.574 238.975 457.574 241.102Z" fill="#007272"/>
<path d="M224.285 302.509C224.285 304.495 221.803 306.126 218.825 306.126C215.847 306.126 213.436 304.495 213.436 302.509C213.436 300.524 215.847 298.893 218.825 298.893C221.803 298.893 224.285 300.524 224.285 302.509Z" fill="#007272"/>
<path d="M88.7076 197.422C88.7076 200.188 85.3039 202.457 81.1203 202.457C76.9367 202.457 73.5331 200.188 73.5331 197.422C73.5331 194.657 76.9367 192.317 81.1203 192.317C85.3039 192.317 88.7076 194.586 88.7076 197.422Z" fill="#007272"/>
<path opacity="0.2" d="M317.883 57.165C328.16 92.282 328.799 129.517 319.734 164.966C310.669 200.415 292.234 232.773 266.361 258.646C240.488 284.518 208.131 302.954 172.682 312.019C137.233 321.084 99.9976 320.444 64.8806 310.168C74.8088 344.173 93.4209 375.007 118.885 399.635C144.349 424.263 175.788 441.836 210.106 450.623C244.424 459.41 280.439 459.11 314.606 449.751C348.772 440.391 379.913 422.297 404.963 397.247C430.012 372.198 448.107 341.057 457.466 306.89C466.825 272.724 467.126 236.709 458.338 202.39C449.551 168.072 431.979 136.634 407.351 111.17C382.723 85.7054 351.889 67.0932 317.883 57.165Z" fill="url(#paint0_linear_1_2107)"/>
<path opacity="0.7" d="M191.454 106.376C197.552 114.53 191.099 129.705 177.272 140.341C163.445 150.977 146.852 152.963 140.754 144.879C134.656 136.795 140.754 121.55 154.936 110.985C169.117 100.419 185.497 98.0083 191.454 106.376Z" fill="white"/>
<defs>
<linearGradient id="paint0_linear_1_2107" x1="148.269" y1="165.514" x2="493.17" y2="433.832" gradientUnits="userSpaceOnUse">
<stop/>
<stop offset="0.57"/>
<stop offset="0.61"/>
<stop offset="1" stop-color="#404040"/>
</linearGradient>
</defs>
</svg>
