<svg width="166" height="170" viewBox="0 0 166 170" fill="none" xmlns="http://www.w3.org/2000/svg">
<path d="M33.7819 8.94503C33.7819 10.7142 33.2573 12.4436 32.2744 13.9146C31.2915 15.3856 29.8945 16.5321 28.26 17.2092C26.6255 17.8862 24.827 18.0633 23.0918 17.7182C21.3566 17.373 19.7628 16.5211 18.5118 15.2701C17.2608 14.0191 16.4089 12.4253 16.0637 10.6901C15.7186 8.95495 15.8957 7.1564 16.5727 5.52191C17.2498 3.88742 18.3963 2.4904 19.8673 1.50751C21.3383 0.524617 23.0677 0 24.8369 0C27.2092 0 29.4845 0.94242 31.162 2.61994C32.8395 4.29746 33.7819 6.57266 33.7819 8.94503Z" fill="#458DF4"/>
<path opacity="0.2" d="M27.207 0.162598C28.4201 1.42569 29.2347 3.0179 29.5492 4.74077C29.8637 6.46364 29.6641 8.24096 28.9755 9.85121C28.2868 11.4615 27.1394 12.8334 25.6763 13.796C24.2133 14.7587 22.4993 15.2694 20.7479 15.2646C19.9653 15.2615 19.1857 15.168 18.4246 14.9858C19.3788 15.983 20.5508 16.7459 21.8489 17.2148C23.147 17.6836 24.536 17.8457 25.9072 17.6884C27.2784 17.5311 28.5946 17.0586 29.7528 16.3079C30.911 15.5572 31.8798 14.5487 32.5833 13.3612C33.2868 12.1738 33.706 10.8397 33.8081 9.46325C33.9102 8.08683 33.6924 6.70546 33.1717 5.42724C32.651 4.14901 31.8416 3.00862 30.8068 2.09529C29.772 1.18196 28.5399 0.520473 27.207 0.162598Z" fill="black"/>
<path d="M47.6757 160.987C47.6757 162.756 47.1511 164.486 46.1682 165.957C45.1853 167.428 43.7883 168.574 42.1538 169.251C40.5193 169.928 38.7208 170.106 36.9856 169.76C35.2504 169.415 33.6566 168.563 32.4056 167.312C31.1546 166.061 30.3027 164.468 29.9575 162.732C29.6124 160.997 29.7895 159.199 30.4665 157.564C31.1436 155.93 32.2901 154.533 33.7611 153.55C35.2321 152.567 36.9615 152.042 38.7307 152.042C41.103 152.042 43.3782 152.985 45.0558 154.662C46.7333 156.34 47.6757 158.615 47.6757 160.987Z" fill="#458DF4"/>
<path opacity="0.2" d="M40.938 152.205C42.275 153.613 43.1176 155.417 43.3386 157.346C43.5596 159.275 43.1471 161.223 42.1633 162.897C41.1795 164.571 39.6779 165.879 37.8851 166.624C36.0923 167.37 34.1057 167.511 32.2253 167.028C33.1795 168.033 34.3541 168.802 35.6565 169.275C36.9588 169.749 38.3533 169.913 39.73 169.755C41.1067 169.597 42.4279 169.122 43.5894 168.366C44.751 167.611 45.7211 166.596 46.4232 165.401C47.1254 164.206 47.5404 162.865 47.6356 161.483C47.7307 160.1 47.5034 158.715 46.9715 157.435C46.4397 156.155 45.6178 155.017 44.5708 154.109C43.5237 153.202 42.2801 152.55 40.938 152.205Z" fill="black"/>
<path d="M147.419 15.59C147.419 17.8233 146.756 20.0064 145.516 21.8633C144.275 23.7202 142.511 25.1675 140.448 26.0221C138.385 26.8768 136.114 27.1004 133.924 26.6647C131.734 26.229 129.722 25.1536 128.143 23.5744C126.563 21.9952 125.488 19.9833 125.052 17.7929C124.617 15.6025 124.84 13.3322 125.695 11.2689C126.549 9.20561 127.997 7.44209 129.854 6.20135C131.711 4.96061 133.894 4.29836 136.127 4.29836C137.611 4.2953 139.08 4.58528 140.452 5.15165C141.823 5.71803 143.069 6.54964 144.118 7.59878C145.167 8.64792 145.999 9.89391 146.565 11.2653C147.132 12.6366 147.422 14.1063 147.419 15.59Z" fill="#458DF4"/>
<path opacity="0.2" d="M139.24 4.64673C140.76 6.25014 141.777 8.26333 142.166 10.4379C142.555 12.6125 142.299 14.8535 141.429 16.8842C140.559 18.915 139.114 20.6467 137.272 21.8659C135.43 23.0851 133.271 23.7383 131.062 23.7449C130.103 23.7441 129.15 23.6112 128.227 23.35C129.418 24.6522 130.896 25.6574 132.545 26.2851C134.193 26.9128 135.966 27.1455 137.721 26.9645C139.476 26.7835 141.164 26.1939 142.65 25.2429C144.136 24.2919 145.378 23.006 146.277 21.4883C147.176 19.9706 147.707 18.2633 147.828 16.5033C147.948 14.7433 147.655 12.9796 146.971 11.3535C146.286 9.72749 145.231 8.28435 143.888 7.13982C142.546 5.9953 140.954 5.18124 139.24 4.7629V4.64673Z" fill="black"/>
<path d="M165.727 45.5382C165.727 47.7715 165.065 49.9546 163.824 51.8115C162.583 53.6684 160.82 55.1157 158.756 55.9704C156.693 56.825 154.423 57.0486 152.232 56.6129C150.042 56.1772 148.03 55.1018 146.451 53.5226C144.872 51.9435 143.796 49.9315 143.361 47.7411C142.925 45.5508 143.149 43.2804 144.003 41.2171C144.858 39.1538 146.305 37.3903 148.162 36.1496C150.019 34.9088 152.202 34.2466 154.435 34.2466C157.43 34.2466 160.302 35.4362 162.42 37.5538C164.537 39.6714 165.727 42.5435 165.727 45.5382Z" fill="#A6CAFF"/>
<path opacity="0.2" d="M157.386 34.6416C158.906 36.245 159.923 38.2582 160.312 40.4328C160.701 42.6074 160.444 44.8483 159.575 46.8791C158.705 48.9098 157.26 50.6416 155.418 51.8608C153.576 53.0799 151.417 53.7331 149.208 53.7398C148.253 53.7693 147.3 53.6677 146.373 53.4378C147.563 54.74 149.042 55.7452 150.691 56.3729C152.339 57.0006 154.112 57.2333 155.867 57.0523C157.622 56.8713 159.31 56.2817 160.795 55.3307C162.281 54.3797 163.524 53.0938 164.423 51.5761C165.322 50.0584 165.853 48.3511 165.974 46.5911C166.094 44.8311 165.8 43.0674 165.116 41.4413C164.432 39.8153 163.377 38.3722 162.034 37.2276C160.692 36.0831 159.1 35.269 157.386 34.8507V34.6416Z" fill="black"/>
<path d="M22.5833 145.328C22.5833 147.561 21.921 149.744 20.6803 151.601C19.4396 153.458 17.6761 154.905 15.6128 155.76C13.5495 156.615 11.2791 156.838 9.08876 156.402C6.89839 155.967 4.88642 154.891 3.30725 153.312C1.72809 151.733 0.652661 149.721 0.216971 147.531C-0.21872 145.34 0.00489245 143.07 0.85953 141.007C1.71417 138.943 3.16145 137.18 5.01835 135.939C6.87525 134.698 9.05837 134.036 11.2916 134.036C12.7753 134.033 14.245 134.323 15.6164 134.889C16.9877 135.456 18.2337 136.287 19.2829 137.337C20.332 138.386 21.1636 139.632 21.73 141.003C22.2964 142.374 22.5864 143.844 22.5833 145.328Z" fill="#A6CAFF"/>
<path opacity="0.2" d="M14.0796 134.431C15.6087 136.029 16.6349 138.041 17.0306 140.217C17.4264 142.393 17.1743 144.638 16.3057 146.672C15.4372 148.706 13.9903 150.44 12.1448 151.659C10.2992 152.878 8.13631 153.528 5.92449 153.529C4.96589 153.53 4.01187 153.397 3.08997 153.134C4.28008 154.439 5.75955 155.446 7.40955 156.075C9.05954 156.704 10.8341 156.937 12.5905 156.756C14.347 156.575 16.0366 155.984 17.5234 155.031C19.0102 154.079 20.2529 152.791 21.1516 151.271C22.0503 149.751 22.58 148.041 22.6981 146.279C22.8162 144.517 22.5195 142.752 21.8317 141.126C21.144 139.5 20.0844 138.057 18.738 136.915C17.3917 135.772 15.7962 134.961 14.0796 134.547V134.431Z" fill="black"/>
<path d="M112.103 22.6763C110.838 22.8237 109.636 23.3048 108.618 24.0703C106.736 25.9755 110.523 31.6446 114.287 35.4317C118.074 42.9827 112.405 54.344 101.044 50.5569C91.5877 44.8878 93.4928 31.6446 87.8005 27.8574C70.7934 20.2832 87.8005 48.7679 78.3444 52.4388C57.5501 58.0847 74.5805 31.6446 65.0546 20.2832H57.5501C53.763 25.9755 51.881 39.1956 46.1887 31.6446C44.737 30.6538 43.5289 29.3466 42.6556 27.8213C41.7823 26.296 41.2665 24.5925 41.147 22.8389C38.3898 24.5961 35.7651 26.553 33.2939 28.6939C35.0517 29.5202 36.6086 30.7193 37.8563 32.2078C39.1041 33.6963 40.0129 35.4386 40.5197 37.3136C40.5197 42.9827 32.9454 50.5569 38.6377 56.226C48.0939 61.9182 49.9758 44.8878 57.5501 48.675C68.8882 52.4388 57.5501 69.5854 61.3372 78.879C63.2191 80.7841 68.8882 84.5712 72.6753 84.5712C82.1315 80.7841 76.4624 67.5408 82.1315 65.6357C93.4928 59.9666 95.3748 86.5461 110.523 78.879C118.074 75.0918 114.287 63.7537 118.074 58.0847C121.861 50.5104 131.318 65.6357 135.105 59.9666C136.739 58.6992 138.105 57.1197 139.124 55.3198C133.896 41.7961 124.412 30.3389 112.103 22.6763Z" fill="#66ACFF"/>
<path d="M49.4648 140.402C46.9544 138.113 43.924 136.47 40.636 135.616C43.4475 137.443 46.3998 139.043 49.4648 140.402Z" fill="#2B5DC1"/>
<path d="M116.169 126.23C106.713 130.017 99.1389 131.899 89.6828 137.568C84.0137 143.237 76.4395 128.112 66.9833 135.686C65.652 139.017 63.5311 141.975 60.8031 144.305C73.8374 147.511 87.5353 146.714 100.11 142.018C112.684 137.322 123.552 128.946 131.295 117.982C124.696 116.471 119.654 124.487 116.169 126.23Z" fill="#2146A3"/>
<path d="M119.979 103.53C118.074 107.317 119.979 116.773 116.192 116.773C104.831 116.773 101.044 120.56 91.5877 128.111C84.0367 133.78 82.1315 118.655 76.4625 118.655C67.0063 116.773 65.1011 137.567 55.552 126.229C51.7881 122.442 53.6701 114.868 51.7881 111.081C46.0958 107.317 40.4268 111.081 36.6397 112.986C23.3964 120.56 21.5144 107.317 19.6093 95.9556C18.7264 93.2837 14.9625 91.4715 10.9198 91.3088C12.5656 100.339 16.0535 108.933 21.166 116.555C26.2785 124.178 32.9061 130.666 40.6359 135.616C43.9239 136.47 46.9543 138.113 49.4647 140.402C53.1271 142.041 56.9295 143.348 60.8261 144.305C63.5541 141.975 65.675 139.017 67.0063 135.685C76.4625 128.111 84.0367 143.236 89.7057 137.567C99.1619 131.898 106.736 130.109 116.169 126.229C119.631 124.487 124.673 116.471 131.271 117.981C134.254 113.812 136.734 109.304 138.659 104.552C131.922 102.484 125.463 98.0467 119.979 103.53Z" fill="#2B5DC1"/>
<path d="M51.8812 111.081C53.7632 114.868 51.8812 122.442 55.6451 126.229C65.1013 137.568 67.0065 116.773 76.5556 118.655C82.2246 118.655 84.1298 133.78 91.6808 128.111C101.137 120.56 104.924 116.773 116.285 116.773C120.073 116.773 118.167 107.317 120.073 103.53C125.556 98.0468 132.015 102.484 138.66 104.622C141.936 96.6137 143.617 88.0426 143.608 79.39C137.173 77.9263 130.319 72.9542 127.531 77.0666C121.862 80.8537 129.436 105.435 116.192 99.7661C110.523 97.8609 104.831 92.1918 97.2801 94.097C91.5879 97.8609 97.2801 107.34 91.5879 111.104C78.3446 114.891 82.1317 90.1937 68.8884 97.8609C63.2193 101.648 63.2193 114.891 53.7632 111.104C34.8508 103.553 53.7632 82.7357 46.1889 73.2795C40.5199 61.9414 31.0637 95.9789 21.6075 80.8537C13.9404 69.4691 31.0637 60.013 25.3946 48.791C24.8411 47.7194 24.0659 46.7777 23.1205 46.0287C22.1752 45.2796 21.0813 44.7402 19.9115 44.4463C11.205 58.4367 8.03183 75.1723 11.0129 91.3787C14.9859 91.5878 18.8195 93.4 19.7023 96.0254C21.6075 107.387 23.4895 120.63 36.7328 113.056C40.5199 111.081 46.1889 107.317 51.8812 111.081Z" fill="#3C79DD"/>
<path d="M21.6075 80.8304C31.0637 95.9556 40.5198 61.918 46.1889 73.2561C53.7631 82.7123 34.8508 103.46 53.7631 111.081C63.2193 114.868 63.2193 101.625 68.8883 97.8376C82.1316 90.2866 78.3445 114.868 91.5878 111.081C97.2801 107.317 91.5878 97.8376 97.2801 94.0737C104.831 92.1685 110.523 97.8376 116.192 99.7427C129.436 105.412 121.861 80.8304 127.531 77.0433C130.319 72.8844 137.173 77.8564 143.608 79.3666C143.6 71.1892 142.079 63.0839 139.124 55.459C138.105 57.2589 136.739 58.8384 135.105 60.1058C131.318 65.7749 121.861 50.6496 118.074 58.2239C114.287 63.8929 118.074 75.231 110.523 79.1343C95.3749 86.7085 93.493 60.222 82.1316 65.891C76.4626 67.7962 82.1316 81.0395 72.6755 84.8266C68.8883 84.8266 63.2193 81.0395 61.3373 79.1343C57.5502 69.6781 68.8883 52.6477 57.5502 48.9303C49.976 45.1432 48.0941 62.1736 38.6379 56.4813C32.9456 50.8123 40.5198 43.238 40.5198 37.569C40.0131 35.6939 39.1043 33.9516 37.8565 32.4631C36.6087 30.9746 35.0519 29.7756 33.2941 28.9492C28.053 33.4395 23.5386 38.7141 19.9114 44.5856C21.0688 44.8637 22.1549 45.3818 23.0994 46.1062C24.044 46.8306 24.8259 47.7452 25.3946 48.7909C31.0637 60.0129 13.9403 69.469 21.6075 80.8304Z" fill="#458DF4"/>
<path d="M91.5878 24.0702C96.467 27.7412 97.4195 21.9559 97.466 15.8687C88.2794 12.801 78.5201 11.8402 68.9116 13.0574C69.6783 16.1475 70.1198 19.5164 70.7936 22.1883C78.3446 16.496 82.1317 18.4012 91.5878 24.0702Z" fill="#DCECFF"/>
<path d="M114.287 35.4316C110.523 31.6444 106.736 25.9754 108.618 24.0702C109.636 23.3047 110.838 22.8236 112.103 22.6762C107.554 19.8315 102.679 17.5458 97.5821 15.8687C97.5821 21.9559 96.583 27.7412 91.7039 24.0702C82.2478 18.4012 78.4606 16.496 70.7935 22.1883C70.1197 19.5164 69.7015 16.2636 68.9115 13.0574C59.0425 14.2042 49.5556 17.5465 41.1471 22.8388C41.2666 24.5924 41.7824 26.2959 42.6557 27.8212C43.5291 29.3465 44.7371 30.6537 46.1888 31.6444C51.8811 39.1954 53.7631 25.9754 57.5502 20.2831H65.0547C74.5341 31.6444 57.5037 58.131 78.298 52.4387C87.8006 48.791 70.7935 20.2831 87.8006 27.8806C93.4929 31.6677 91.5878 44.911 101.044 50.58C112.405 54.3439 118.074 42.9826 114.287 35.4316Z" fill="#A6CAFF"/>
<path opacity="0.2" d="M95.5144 15.4736C98.8817 26.98 99.0912 39.1804 96.121 50.7956C93.1508 62.4108 87.1103 73.0129 78.6329 81.4904C70.1554 89.9679 59.5532 96.0084 47.938 98.9786C36.3228 101.949 24.1225 101.739 12.6161 98.372C20.0742 123.976 46.2355 146.373 76.6718 146.373C92.705 146.311 108.182 140.488 120.279 129.966C132.377 119.443 140.29 104.923 142.574 89.0537C144.859 73.1839 141.363 57.0217 132.724 43.5146C124.085 30.0075 110.879 20.0555 95.5144 15.4736Z" fill="url(#paint0_linear_1_2225)"/>
<path opacity="0.7" d="M50.2548 34.1074C52.253 36.7561 50.1387 41.7513 45.6081 45.2132C41.0775 48.675 35.6408 49.372 33.6427 46.7234C31.6445 44.0747 33.6427 39.0794 38.2894 35.5944C42.9362 32.1093 48.2335 31.4587 50.2548 34.1074Z" fill="white"/>
<defs>
<linearGradient id="paint0_linear_1_2225" x1="40.0785" y1="50.7891" x2="153.111" y2="138.729" gradientUnits="userSpaceOnUse">
<stop/>
<stop offset="0.57"/>
<stop offset="0.61"/>
<stop offset="1" stop-color="#404040"/>
</linearGradient>
</defs>
</svg>
