<svg width="63" height="63" viewBox="0 0 63 63" fill="none" xmlns="http://www.w3.org/2000/svg">
<path d="M4.58493 40.0011C3.41284 39.2201 2.12709 38.625 0.773193 38.2368C1.58867 41.9237 3.06453 45.4325 5.12946 48.5938C6.75217 45.196 8.18974 42.2555 4.58493 40.0011Z" fill="#37B5A5"/>
<path d="M33.8482 46.2088C16.1182 55.0738 11.6748 34.6756 1.08907 25.8106C0.946522 25.6784 0.785005 25.5683 0.609878 25.4839C0.224129 27.4173 0.0199484 29.3825 0 31.354C0.00106022 33.6699 0.260409 35.9784 0.773238 38.2369C2.12713 38.6251 3.41289 39.2202 4.58497 40.0012C8.18979 42.2555 6.76311 45.196 5.17307 48.5939C8.17877 53.1254 12.3057 56.8021 17.1528 59.2668C26.5732 50.6631 38.5748 50.8809 49.8248 53.2987C50.8666 53.3408 51.8797 53.6523 52.7653 54.2026C56.8428 50.3802 59.8245 45.5373 61.4016 40.1754C58.6553 37.3388 55.3051 35.1575 51.6 33.7935C41.8311 30.2431 40.938 42.6585 33.8482 46.2088Z" fill="#4DCEBB"/>
<path d="M17.1201 59.2666C22.8579 62.1965 29.3606 63.2825 35.739 62.376C42.1174 61.4696 48.0601 58.6149 52.7544 54.2025C51.8688 53.6521 50.8557 53.3407 49.8139 53.2985C38.5421 50.8808 26.5405 50.663 17.1201 59.2666Z" fill="#37B5A5"/>
<path d="M14.343 22.271C17.327 18.089 12.2737 14.7129 7.02445 11.5981C5.07793 13.9954 3.49623 16.667 2.33057 19.5266C7.51453 23.2729 11.3372 28.8816 14.343 22.271Z" fill="#37B5A5"/>
<path d="M62.2511 26.268C56.0761 28.2501 49.8466 27.6185 46.2636 24.0354C42.8766 19.9732 50.8594 16.9456 56.4137 12.5784C55.1074 10.8409 53.6257 9.24246 51.9921 7.80833C50.1991 7.88394 48.4431 8.343 46.8425 9.15458C45.2419 9.96615 43.8338 11.1114 42.7132 12.5131C38.2807 20.496 40.0559 30.2431 32.9661 34.6756C28.5227 37.3438 24.9832 33.7935 22.3259 31.1362C17.0003 24.0354 21.4328 11.631 12.5243 7.17667L11.7401 6.86084C9.99001 8.26246 8.39456 9.84696 6.98092 11.5874C12.2302 14.7021 17.2835 18.1218 14.2994 22.2603C11.2936 28.8709 7.471 23.2622 2.31971 19.5158C1.53357 21.4412 0.942516 23.4405 0.55542 25.4839C0.730547 25.5683 0.892064 25.6784 1.03461 25.8106C11.6748 34.6756 16.1182 55.0739 33.8482 46.2088C40.938 42.6585 41.8311 30.2431 51.5782 33.7935C55.2834 35.1575 58.6335 37.3388 61.3798 40.1754C62.221 37.3103 62.6501 34.34 62.654 31.354C62.6528 29.6507 62.5181 27.9502 62.2511 26.268Z" fill="#36EAC7"/>
<path d="M46.2635 24.0356C49.8466 27.6186 56.0651 28.2503 62.251 26.2682C61.4296 21.3034 59.4277 16.6085 56.4136 12.5786C50.8594 16.9458 42.8765 19.9734 46.2635 24.0356Z" fill="#37B5A5"/>
<path d="M24.9832 13.3953C24.9832 16.0635 28.5226 18.7209 32.073 17.8387C38.2589 14.3973 37.0282 7.2203 36.5164 0.457194C32.9922 -0.152398 29.3895 -0.152398 25.8653 0.457194C26.4643 4.37784 24.4495 9.6707 24.9832 13.3953Z" fill="#92FFEA"/>
<path d="M36.5164 0.457031C36.9847 7.22014 38.2589 14.3971 32.073 17.8821C28.5227 18.7643 24.9832 16.1069 24.9832 13.4387C24.4495 9.67054 26.4643 4.37767 25.8653 0.500594C20.7117 1.41061 15.8695 3.60141 11.7837 6.87164L12.5678 7.18747C21.4328 11.6309 17.0003 24.0353 22.3694 31.1469C25.0268 33.8043 28.5662 37.3546 33.0096 34.6864C40.0994 30.2539 38.3243 20.5285 42.8112 12.5239C43.9318 11.1222 45.3399 9.97695 46.9405 9.16537C48.5411 8.3538 50.2971 7.89474 52.0901 7.81913C47.6922 3.95281 42.2954 1.40161 36.5164 0.457031Z" fill="#55FFDE"/>
<path d="M26.4425 43.1813C25.9416 44.4773 23.6327 44.7931 21.2804 43.8892C18.928 42.9853 17.4251 41.1992 17.926 39.9032C18.427 38.6072 20.6923 38.2914 23.0882 39.228C25.4842 40.1646 26.9435 41.8853 26.4425 43.1813Z" fill="#4DCEBB"/>
<path d="M33.6739 27.3026C34.0878 29.1105 32.4433 31.0381 29.982 31.6044C27.5207 32.1708 25.201 31.1579 24.7871 29.3501C24.3733 27.5422 26.0178 25.6146 28.4682 25.07C30.9186 24.5255 33.2601 25.4948 33.6739 27.3026Z" fill="#36EAC7"/>
<path d="M51.0336 42.8001C50.7276 43.3665 50.2611 43.8299 49.6927 44.1321C49.1243 44.4343 48.4792 44.5618 47.8386 44.4986C47.1979 44.4355 46.5902 44.1845 46.0917 43.7772C45.5932 43.3698 45.2262 42.8243 45.0367 42.2091C44.8471 41.5939 44.8436 40.9364 45.0264 40.3191C45.2093 39.7019 45.5704 39.1524 46.0645 38.7397C46.5585 38.327 47.1635 38.0695 47.8034 37.9994C48.4433 37.9293 49.0897 38.0499 49.6614 38.3459C50.0466 38.5454 50.3883 38.8196 50.6665 39.1526C50.9447 39.4856 51.1537 39.8706 51.2814 40.2853C51.4092 40.6999 51.4531 41.1359 51.4105 41.5676C51.3679 41.9994 51.2398 42.4184 51.0336 42.8001Z" fill="#37B5A5"/>
<path d="M36.2224 55.9017C36.2877 56.8274 34.8937 57.666 33.1077 57.7967C31.3216 57.9274 29.8405 57.2739 29.7533 56.3591C29.6662 55.4443 31.082 54.5948 32.8681 54.475C34.6541 54.3552 36.157 54.9869 36.2224 55.9017Z" fill="#228778"/>
<path d="M23.0556 4.73713C23.4694 5.55393 22.5219 6.91526 20.8774 7.69939C19.2329 8.48352 17.6102 8.51619 17.229 7.69939C16.8479 6.88259 17.7627 5.52126 19.4072 4.73713C21.0517 3.953 22.6308 3.92033 23.0556 4.73713Z" fill="#92FFEA"/>
<path d="M55.3245 21.3455C55.3899 22.2603 54.0068 23.1098 52.2207 23.2514C50.4346 23.3929 48.9535 22.7504 48.8555 21.8356C48.7575 20.9208 50.1841 20.0604 51.9702 19.9297C53.7563 19.799 55.2483 20.4307 55.3245 21.3455Z" fill="#36EAC7"/>
<path opacity="0.2" d="M40.1212 1.28467C40.9596 4.13896 41.385 7.09857 41.3845 10.0734C41.386 14.1885 40.5765 18.2635 39.0024 22.0656C37.4283 25.8676 35.1204 29.3223 32.2107 32.232C29.3009 35.1418 25.8463 37.4497 22.0442 39.0238C18.2421 40.5979 14.1671 41.4073 10.0521 41.4059C7.07774 41.4099 4.11813 40.9882 1.26331 40.1535C2.79002 45.3751 5.64996 50.1092 9.5617 53.8899C13.4734 57.6707 18.3022 60.3678 23.5727 61.7158C28.8432 63.0638 34.374 63.0164 39.6206 61.578C44.8672 60.1397 49.6489 57.3601 53.4952 53.5128C57.3414 49.6654 60.1197 44.8829 61.5565 39.6359C62.9934 34.3889 63.0393 28.8582 61.6898 23.588C60.3403 18.3179 57.6418 13.4899 53.86 9.57922C50.0781 5.66854 45.3432 2.80992 40.1212 1.28467Z" fill="url(#paint0_linear_1_2026)"/>
<path opacity="0.7" d="M23.8396 8.734C24.7762 9.97554 23.7852 12.3061 21.6615 13.9397C19.5378 15.5733 16.9894 15.8892 16.0528 14.6367C15.1162 13.3843 16.0528 11.0646 18.231 9.431C20.4091 7.7974 22.8704 7.4489 23.8396 8.734Z" fill="white"/>
<defs>
<linearGradient id="paint0_linear_1_2026" x1="14.0707" y1="17.9256" x2="67.043" y2="59.1359" gradientUnits="userSpaceOnUse">
<stop/>
<stop offset="0.57"/>
<stop offset="0.61"/>
<stop offset="1" stop-color="#404040"/>
</linearGradient>
</defs>
</svg>
