<svg width="226" height="222" viewBox="0 0 226 222" fill="none" xmlns="http://www.w3.org/2000/svg">
<path d="M35.7284 17.8642C35.7284 21.3974 34.6806 24.8512 32.7177 27.789C30.7548 30.7267 27.9648 33.0164 24.7005 34.3685C21.4363 35.7206 17.8444 36.0744 14.3791 35.3851C10.9137 34.6958 7.73065 32.9944 5.2323 30.496C2.73395 27.9977 1.03256 24.8146 0.343263 21.3493C-0.34603 17.884 0.0077402 14.2921 1.35984 11.0278C2.71193 7.7636 5.00163 4.9736 7.93938 3.01066C10.8771 1.04772 14.331 0 17.8642 0C22.6021 0 27.1459 1.88211 30.4961 5.2323C33.8462 8.58248 35.7284 13.1263 35.7284 17.8642Z" fill="#BFDDDA"/>
<path opacity="0.2" d="M22.2754 0.625C25.4695 3.92701 27.2498 8.34468 27.2376 12.9388C27.2425 15.6678 26.6207 18.3615 25.4202 20.8124C24.2197 23.2632 22.4726 25.4057 20.3134 27.0748C18.1543 28.7439 15.6408 29.8949 12.9666 30.4394C10.2924 30.9838 7.52887 30.9069 4.88904 30.2148C6.77188 32.2787 9.11251 33.8721 11.7229 34.8672C14.3333 35.8624 17.1407 36.2314 19.9196 35.9447C22.6985 35.658 25.3714 34.7236 27.7237 33.2164C30.0759 31.7093 32.0419 29.6715 33.4637 27.2668C34.8856 24.862 35.7236 22.1573 35.9105 19.3699C36.0973 16.5825 35.6279 13.7901 34.5398 11.2171C33.4517 8.64406 31.7754 6.36206 29.6454 4.55442C27.5154 2.74678 24.9911 1.46388 22.2754 0.808788V0.625Z" fill="black"/>
<path d="M110.751 191.36C87.7037 187.684 58.3344 189.522 36.9783 180.884C48.3031 195.339 63.1955 206.597 80.1907 213.551C97.1859 220.505 115.699 222.915 133.908 220.545C130.342 206.247 123.542 194.558 110.751 191.36Z" fill="#70797A"/>
<path d="M110.75 170.408C89.7986 164.417 68.8468 170.408 50.9091 158.425C26.9432 140.487 17.8273 98.5838 38.9262 71.6405C42.3079 68.2955 41.8668 58.2975 37.6764 49.5859C22.7819 68.1766 14.6079 91.2556 14.4811 115.077C14.3543 138.898 22.2823 162.062 36.978 180.81C58.3341 189.448 87.7034 187.721 110.75 191.286C123.542 194.484 130.342 205.989 133.908 220.509C141.094 219.574 148.165 217.899 155.007 215.51C148.537 193.161 134.386 174.856 110.75 170.408Z" fill="#829899"/>
<path d="M71.8607 134.496C65.8692 131.482 62.8919 125.527 59.8778 119.536C50.9089 98.5839 74.8381 80.6094 68.8466 59.6576C66.9574 49.44 62.5339 39.8599 55.9815 31.7954C49.1676 36.9992 42.9978 42.9962 37.6027 49.6596C41.7931 58.2976 42.2341 68.2957 38.8524 71.7141C17.9006 98.6574 26.8695 140.561 50.8354 158.499C68.7731 170.482 89.7249 164.49 110.677 170.482C134.312 174.929 148.463 193.235 154.786 215.657C163.385 212.672 171.554 208.569 179.083 203.453C166.107 189.816 158.057 169.085 149.676 152.434C134.716 128.652 98.804 146.479 71.8607 134.496Z" fill="#9EB5B5"/>
<path d="M188.566 170.408C173.606 128.504 152.654 110.567 107.699 107.552C101.708 107.552 92.7392 101.561 95.7165 95.5694C108.839 69.3246 105.972 33.4859 84.6893 16.0996C74.3325 19.8164 64.6119 25.1107 55.8713 31.7951C62.4238 39.8595 66.8473 49.4396 68.7365 59.6573C74.728 80.6091 50.7988 98.5836 59.7676 119.535C62.7818 125.527 65.7591 131.482 71.7506 134.496C98.6939 146.479 134.606 128.504 149.566 152.433C158.057 169.085 166.107 189.816 179.303 203.379C189.391 196.572 198.231 188.08 205.438 178.274C197.204 177.502 190.735 174.745 188.566 170.408Z" fill="#ADC9C8"/>
<path d="M200.549 140.487C191.544 95.5695 164.637 95.5695 128.652 86.6007C126.288 85.4886 124.231 83.8155 122.662 81.7269C121.092 79.6384 120.057 77.1978 119.646 74.6177C128.284 55.4302 132.327 25.7301 118.617 10.0347C107.088 10.1856 95.6627 12.2347 84.7999 16.0997C106.046 33.486 108.913 69.3246 95.8272 95.5695C92.8498 101.561 101.819 107.552 107.81 107.552C152.691 110.567 173.643 128.504 188.677 170.408C190.845 174.745 197.315 177.502 205.548 178.274C212.014 169.412 217.072 159.604 220.546 149.199C209.923 151.588 200.549 149.309 200.549 140.487Z" fill="#BFDDDA"/>
<path d="M212.496 110.567C206.541 65.6489 155.632 83.6233 146.663 59.6574C142.987 50.1372 151.147 29.7368 148.464 13.8207C139.26 11.341 129.766 10.1048 120.234 10.145H118.617C132.327 25.7302 128.284 55.4303 119.719 74.6177C120.123 77.1905 121.147 79.6263 122.703 81.7142C124.259 83.8021 126.301 85.4793 128.652 86.6007C164.637 95.5695 191.544 95.5695 200.549 140.487C200.549 149.309 209.922 151.515 220.545 149.199C223.8 139.418 225.608 129.214 225.912 118.911C218.781 118.543 212.496 115.455 212.496 110.567Z" fill="#D0EAE7"/>
<path d="M174.709 25.1421C166.515 20.1956 157.685 16.3869 148.464 13.8208C151.147 29.7368 142.877 50.1373 146.663 59.6575C155.632 83.6234 206.541 65.649 212.496 110.567C212.496 115.455 218.781 118.543 225.912 118.911C225.912 117.845 225.912 116.779 225.912 115.713C225.927 98.3491 221.646 81.2514 213.451 65.943C187.096 71.3464 178.201 52.1589 174.709 25.1421Z" fill="#E4F4F2"/>
<path d="M174.709 25.1421C178.201 52.1589 187.096 71.3463 213.525 65.943C204.494 49.0972 191.084 35.0013 174.709 25.1421Z" fill="#F3FFFD"/>
<path opacity="0.2" d="M149.898 14.2251C154.512 29.9867 155.39 46.6066 152.463 62.7667C149.536 78.9268 142.884 94.1828 133.035 107.325C123.185 120.467 110.41 131.133 95.7205 138.478C81.0315 145.823 64.8331 149.645 48.41 149.64C38.3726 149.635 28.3862 148.211 18.7467 145.413C23.8996 163.036 33.5523 179.015 46.755 191.775C59.9576 204.536 76.2553 213.639 94.0441 218.189C111.833 222.738 130.5 222.578 148.208 217.724C165.916 212.869 182.055 203.488 195.037 190.502C208.018 177.517 217.395 161.375 222.245 143.666C227.094 125.957 227.249 107.29 222.695 89.5021C218.14 71.7146 209.032 55.4195 196.268 42.2204C183.504 29.0213 167.523 19.373 149.898 14.2251Z" fill="url(#paint0_linear_1_2325)"/>
<path opacity="0.8" d="M88.4021 44.1087C91.6 48.3358 88.4021 56.2019 81.0506 61.6788C73.6991 67.1557 65.2816 68.2584 62.1205 64.0681C58.9593 59.8777 62.1205 51.9748 69.472 46.4612C76.8235 40.9476 85.241 39.7713 88.4021 44.1087Z" fill="white"/>
<defs>
<linearGradient id="paint0_linear_1_2325" x1="61.9736" y1="70.4274" x2="240.762" y2="209.518" gradientUnits="userSpaceOnUse">
<stop/>
<stop offset="0.57"/>
<stop offset="0.61"/>
<stop offset="1" stop-color="#404040"/>
</linearGradient>
</defs>
</svg>
