<svg width="676" height="548" viewBox="0 0 676 548" fill="none" xmlns="http://www.w3.org/2000/svg">
<path d="M371 132.539L376.087 133.651C384.063 135.799 391.894 138.454 399.532 141.599C403.983 143.506 408.513 145.573 412.805 147.877C417.097 150.182 421.309 152.567 425.442 155.189C405.175 155.825 382.048 148.195 371 132.539Z" fill="#FFF871"/>
<path d="M341.118 127.929C344.853 127.929 348.509 128.565 352.086 128.962C358.449 129.825 364.762 131.018 371.001 132.538C382.048 148.434 405.494 155.825 425.442 155.348L428.224 157.017C435.908 162.12 443.188 167.806 450 174.025C410.262 192.384 360.51 167.269 341.118 127.929Z" fill="#FFA727"/>
<path d="M322.758 127.77H330.706C334.282 127.77 337.859 127.77 341.356 127.77C360.748 167.11 410.5 192.225 450.238 173.866C456.644 179.819 462.62 186.22 468.12 193.02C415.984 216.544 347.078 181.893 322.758 127.77Z" fill="#9E713B"/>
<path d="M345.489 201.523C323.713 183.323 301.857 158.924 292.002 131.902C295.816 131.028 299.949 130.233 303.605 129.597L311.553 128.564C315.209 128.564 318.944 127.928 322.679 127.77C346.999 181.893 415.905 216.544 467.803 193.178C470.505 196.516 473.128 200.013 475.751 203.51C436.966 232.122 380.618 224.969 345.489 201.523Z" fill="#B75F00"/>
<path d="M284.848 133.571C287.233 133.015 289.617 132.379 292.001 131.902C301.936 158.924 323.792 183.323 345.489 201.524C380.617 224.969 437.125 232.122 475.671 203.51C476.942 205.259 478.214 207.087 479.327 208.915C482.347 213.524 485.049 218.372 487.672 223.379C489.42 226.797 491.089 230.373 492.679 233.95L494.109 237.526C410.659 267.409 314.89 218.214 284.848 133.571Z" fill="#FFA727"/>
<path d="M258.144 143.029C266.316 139.393 274.735 136.339 283.338 133.89L284.848 133.492C314.89 218.214 410.659 267.41 494.109 237.527C496.442 242.996 498.458 248.595 500.149 254.296C500.865 256.521 501.421 258.906 501.977 261.21C405.175 288.471 289.14 236.652 258.144 143.029Z" fill="#FFF871"/>
<path d="M236.288 154.871C242.778 150.697 249.55 146.979 256.555 143.745L258.144 143.029C289.14 236.652 405.175 288.471 501.977 261.528C502.454 263.197 502.931 264.866 503.329 266.535C504.521 272.019 505.395 277.662 506.11 283.305C400.963 310.883 295.021 245.792 236.288 154.871Z" fill="#FFA727"/>
<path d="M215.624 170.051C219.121 167.11 222.618 164.249 226.354 161.547C230.089 158.845 232.871 157.017 236.288 154.871C295.021 245.792 400.963 310.883 506.11 283.305C506.587 287.12 507.064 291.252 507.302 294.829C507.541 298.405 507.302 301.425 507.302 304.684C507.302 306.591 507.302 308.419 507.302 310.247C507.302 312.075 507.302 313.108 507.302 314.539C397.228 342.117 271.576 272.734 215.624 170.051Z" fill="#9E713B"/>
<path d="M201.557 183.483C202.114 182.926 202.511 182.37 202.988 181.814C207.041 177.681 210.936 173.866 215.625 170.051C271.576 272.735 397.228 342.117 507.143 314.539C507.143 316.923 507.143 319.228 506.667 321.612C506.19 326.222 505.554 330.752 504.759 335.282C504.282 338.302 503.646 341.323 502.931 344.263C385.465 362.94 258.144 287.279 201.557 183.483Z" fill="#B75F00"/>
<path d="M186.377 202.08C191.018 195.55 196.089 189.337 201.557 183.482C258.144 287.278 385.465 362.94 502.931 344.263C502.375 346.647 501.818 348.952 501.182 351.257C499.323 358.172 497.04 364.967 494.347 371.603C494.103 372.064 493.89 372.542 493.712 373.033C400.804 391.71 314.652 349.19 250.038 284.258C226.371 258.851 205.064 231.345 186.377 202.08Z" fill="#FFF871"/>
<path d="M163.25 246.984C165.777 239.53 168.804 232.254 172.31 225.208C175.654 218.576 179.397 212.154 183.517 205.974L186.378 202.08C205.039 231.342 226.32 258.848 249.959 284.258C314.573 348.793 400.964 391.71 493.633 373.033C491.646 377.723 489.421 382.412 487.036 386.942C483.913 392.876 480.463 398.634 476.704 404.188C348.271 423.183 234.938 350.303 163.25 246.984Z" fill="#FFA727"/>
<path d="M153.395 303.174C153.477 291.715 154.701 280.294 157.051 269.078C157.607 266.376 158.243 263.595 158.958 261.131C205.77 369.616 340.085 434.945 457.709 428.031C454.769 431.13 451.669 434.151 448.49 437.012C443.767 441.216 438.805 445.144 433.628 448.774C324.428 452.827 226.99 400.453 154.19 321.612C153.713 316.208 153.315 310.803 153.315 305.24C153.315 304.207 153.395 303.651 153.395 303.174Z" fill="#FFA727"/>
<path d="M433.628 448.139C431.323 449.887 429.018 451.556 426.634 453.146C419.281 457.956 411.576 462.207 403.586 465.862L399.453 467.61C309.327 460.457 212.604 419.925 159.594 351.098C156.932 341.258 155.124 331.207 154.189 321.056C226.99 399.817 324.427 452.192 433.628 448.139Z" fill="#FFF871"/>
<path d="M273.245 472.379C247.534 463.511 224.203 448.855 205.054 429.541C241.057 454.099 286.994 463.716 327.368 481.677C308.952 481.42 290.69 478.283 273.245 472.379Z" fill="#FFA727"/>
<path d="M177.476 393.856C236.705 438.963 307.261 466.8 381.333 474.286C374.815 476.286 368.179 477.879 361.464 479.055C351.343 480.908 341.075 481.839 330.786 481.837H327.686C287.313 463.875 241.375 454.258 205.373 429.7C194.654 419.067 185.382 407.069 177.794 394.015L177.476 393.856Z" fill="#9E713B"/>
<path d="M399.453 467.61C393.426 470.153 387.272 472.381 381.014 474.286C307.053 466.743 236.615 438.909 177.476 393.856C170.18 381.357 164.441 368.012 160.388 354.118C160.388 353.085 159.832 352.052 159.594 350.939C212.604 420.163 309.327 460.457 399.453 467.61Z" fill="#FFA727"/>
<path d="M158.799 260.892C159.673 257.475 160.627 253.978 161.74 250.64C161.74 249.368 162.614 248.176 163.091 246.984C234.619 350.303 348.111 423.183 476.386 404.188L473.763 408.162C470.294 412.933 466.58 417.523 462.637 421.911C461.047 423.818 459.299 425.567 457.55 427.395C340.084 434.707 205.77 369.377 158.799 260.892Z" fill="#9E713B"/>
<path opacity="0.2" d="M280.716 135.082C276.05 151.255 273.669 168.001 273.643 184.834C273.769 231.721 292.478 276.646 325.67 309.763C358.861 342.88 403.828 361.488 450.716 361.509C467.575 361.497 484.35 359.116 500.547 354.436C491.981 383.996 475.861 410.814 453.777 432.248C431.692 453.683 404.405 468.994 374.602 476.674C344.8 484.353 313.511 484.137 283.818 476.045C254.125 467.953 227.052 452.265 205.266 430.527C183.481 408.789 167.734 381.75 159.578 352.075C151.422 322.399 151.137 291.111 158.752 261.292C166.367 231.473 181.619 204.152 203.006 182.021C224.392 159.89 251.175 143.712 280.716 135.082Z" fill="url(#paint0_linear_1_2248)"/>
<path d="M301.221 128.326C289.459 130.46 277.952 133.817 266.887 138.34C164.919 85.1708 81.8661 66.8118 60.2487 97.5691C38.6311 128.326 80.9919 196.199 160.071 271.622C198.442 307.918 239.372 341.411 282.544 371.842C325.528 402.497 370.684 429.989 417.653 454.099C515.171 503.454 593.852 520.065 615.072 490.023C636.292 459.981 591.229 386.704 507.541 308.658C508.047 296.697 507.354 284.716 505.474 272.894C629.219 379.233 699.237 483.744 668.162 527.297C638.438 569.34 523.674 542 388.247 467.213C346.992 444.252 307.01 419.074 268.476 391.79C229.812 364.711 192.667 335.526 157.21 304.366C41.6512 201.444 -22.4861 102.417 7.23798 60.2947C37.9953 16.8212 159.753 47.658 301.221 128.326Z" fill="#FFA727"/>
<path d="M266.887 138.34C260.644 140.812 254.565 143.679 248.687 146.924C246.462 148.116 244.316 149.387 242.17 150.659C173.741 118.869 120.889 109.172 106.107 130.154C91.3241 151.136 116.359 194.768 165.952 246.348C205.316 286.507 248.34 322.906 294.465 355.072C340.12 387.799 388.732 416.189 439.668 439.873C504.998 469.359 554.988 477.704 569.374 457.437C583.759 437.171 557.373 389.962 504.521 336.077C505.104 333.587 505.581 331.123 505.952 328.686C506.968 322.05 507.631 315.364 507.938 308.658C592.024 386.942 637.326 459.106 615.47 490.022C593.614 520.939 515.568 503.454 418.051 454.099C371.081 429.988 325.926 402.497 282.941 371.841C239.523 341.439 198.354 307.945 159.753 271.622C80.2769 196.199 38.7903 127.531 59.931 97.5689C81.0716 67.6064 164.919 85.1706 266.887 138.34Z" fill="#FFF871"/>
<path d="M242.17 150.977C238.593 153.123 235.017 155.427 231.599 157.812C226.91 161.15 222.301 164.726 217.929 168.541C180.258 152.646 153.395 148.036 145.924 158.607C138.453 169.177 150.931 191.669 176.999 220.598C217.17 262.882 261.684 300.817 309.804 333.772C356.921 368.148 407.537 397.451 460.809 421.196C496.812 436.058 522.244 440.032 529.556 429.779C536.868 419.527 523.754 395.366 496.176 365.245C498.242 359.84 500.15 354.277 501.66 348.714C502.852 344.66 503.805 340.766 504.6 336.554C557.452 390.439 584.076 437.012 569.453 457.914C554.829 478.816 505.077 469.835 439.748 440.35C388.766 416.519 340.126 387.968 294.465 355.072C248.34 322.906 205.316 286.507 165.952 246.348C116.359 194.609 91.7213 150.262 106.106 129.995C120.492 109.729 173.741 119.186 242.17 150.977Z" fill="#B75F00"/>
<path opacity="0.7" d="M433.707 210.743C425.759 215.83 426.793 230.93 435.694 244.521C444.595 258.111 458.186 264.787 465.974 259.621C473.763 254.455 472.809 239.434 463.908 225.923C455.007 212.412 441.496 205.577 433.707 210.743Z" fill="white"/>
<path opacity="0.5" d="M46.6584 386.227C49.4699 385.868 52.1456 384.806 54.4378 383.139C56.73 381.472 58.5647 379.254 59.7719 376.689C61.3615 377.246 62.2357 377.882 62.4741 379.153C63.0304 381.935 56.5134 389.088 49.3606 389.803C40.5167 389.931 31.7528 388.114 23.6897 384.478C22.0207 383.206 21.5439 382.173 21.7028 381.379C29.6101 384.658 38.0983 386.307 46.6584 386.227Z" fill="#FFFA94"/>
<path d="M7.31717 354.674C7.31717 378.517 21.305 391.869 45.0684 391.869C59.9304 391.869 85.6807 394.889 93.3899 383.365C97.9995 376.53 93.3899 357.218 93.3899 348.316C93.3899 334.805 81.8658 323.281 72.0902 315.413C64.699 309.373 53.7313 314.3 43.4788 314.3C31.5574 314.3 14.0726 311.837 6.28394 319.625C-1.50473 327.414 7.31717 342.832 7.31717 354.674Z" fill="#FFB208"/>
<path d="M81.8662 327.971C84.8863 332.739 78.0513 336.872 72.4085 335.918C69.8827 335.404 67.5552 334.182 65.6976 332.395C63.8401 330.608 62.5291 328.329 61.9177 325.825C60.805 320.659 63.3482 313.983 69.309 317.003C74.0703 319.942 78.3133 323.648 81.8662 327.971Z" fill="#FFD00B"/>
<path opacity="0.5" d="M77.6537 329.56C74.0468 325.304 69.7803 321.655 65.0169 318.751C64.541 318.371 64.0034 318.075 63.4274 317.877C63.7412 317.375 64.1537 316.943 64.6396 316.605C65.1256 316.268 65.6751 316.032 66.2547 315.913C66.8343 315.794 67.432 315.794 68.0116 315.913C68.5912 316.032 69.1406 316.268 69.6265 316.605C74.3561 319.523 78.5942 323.171 82.1838 327.414C84.5681 331.229 80.9122 334.487 76.541 335.362C77.4186 334.709 78.0198 333.751 78.2258 332.677C78.4317 331.603 78.2276 330.491 77.6537 329.56Z" fill="#FFFA94"/>
<path d="M58.3415 315.89C61.1232 316.685 61.5206 322.169 58.8184 325.189C56.1162 328.209 55.9572 331.865 50.2349 331.944C46.9909 331.992 43.7694 331.399 40.7553 330.199C37.7411 328.999 34.9937 327.215 32.6707 324.95C30.2069 320.977 28.1405 317.003 32.6707 316.049C37.2008 315.095 41.2542 317.162 45.6253 317.082C53.1756 317.003 55.4804 315.095 58.3415 315.89Z" fill="#FFD00B"/>
<path opacity="0.5" d="M54.3677 328.209C56.9904 325.109 56.5931 319.784 53.8114 318.99C51.0297 318.195 48.7249 320.023 41.1746 320.182C37.3598 320.182 33.9424 318.592 30.048 318.831C30.048 317.321 30.048 316.208 32.5913 315.731C36.9361 315.658 41.277 316.031 45.5459 316.844C53.4935 316.844 55.5599 314.857 58.3415 315.652C61.1232 316.446 61.5206 321.851 58.8184 324.95C56.1162 328.05 56.0367 330.752 52.0629 331.547C52.7494 330.38 53.5197 329.264 54.3677 328.209Z" fill="#FFFA94"/>
<path d="M27.2656 322.407C26.8829 321.251 26.2395 320.198 25.3851 319.33C24.5307 318.462 23.4882 317.801 22.3381 317.4C20.4451 316.954 18.478 316.922 16.5714 317.306C14.6648 317.69 12.8636 318.481 11.2909 319.626C9.2806 321.315 7.79925 323.547 7.02407 326.056C6.2489 328.565 6.21268 331.243 6.91972 333.772C9.22453 339.812 11.6883 341.72 12.642 345.058C13.5957 348.396 12.0857 353.006 20.5896 352.131C29.0936 351.257 39.5845 349.668 38.7897 342.435C37.9949 335.203 34.2596 334.488 30.8421 330.911C28.8856 328.462 27.6475 325.518 27.2656 322.407Z" fill="#FFD00B"/>
<path opacity="0.5" d="M32.1937 345.932C31.4785 339.018 27.6636 337.984 24.2461 334.328C22.2718 331.882 21.0072 328.94 20.5902 325.824C20.2075 324.668 19.5641 323.615 18.7097 322.747C17.8553 321.879 16.8128 321.219 15.6627 320.817C13.9558 320.495 12.2036 320.495 10.4967 320.817L11.2915 320.023C12.8796 318.911 14.6838 318.145 16.5869 317.775C18.4901 317.406 20.4498 317.44 22.3387 317.877C23.4888 318.278 24.5313 318.938 25.3857 319.806C26.2401 320.675 26.8835 321.727 27.2662 322.884C27.7045 326.023 29.0277 328.973 31.0811 331.388C34.2601 334.726 38.1545 336.077 39.0287 342.991C39.5056 347.363 35.6907 349.667 30.6042 350.939C31.2554 350.296 31.7403 349.504 32.0172 348.632C32.2941 347.759 32.3547 346.833 32.1937 345.932Z" fill="#FFFA94"/>
<path d="M58.7388 334.249C54.606 335.361 44.9099 332.341 42.3666 332.898C39.8234 333.454 38.6313 332.898 39.3465 336.474C40.0618 340.051 42.2872 341.163 41.095 345.137C39.8217 348.459 37.471 351.257 34.419 353.085C32.2731 354.674 31.081 355.787 30.6836 361.032C30.2862 366.278 52.0627 372.954 57.5466 371.762C63.0305 370.569 74.1571 363.814 74.9518 357.456C75.7466 351.098 80.9126 342.673 75.8261 340.686C70.7396 338.699 65.2558 332.341 58.7388 334.249Z" fill="#FFD00B"/>
<path opacity="0.5" d="M63.4279 362.543C64.2227 356.502 69.3886 347.68 64.3816 345.773C59.3746 343.866 53.7318 337.825 47.2147 339.574C44.9531 339.964 42.6414 339.964 40.3798 339.574C39.9161 338.64 39.5691 337.652 39.3466 336.633C38.6313 333.216 39.9029 333.613 42.3667 333.057C44.8304 332.501 54.6061 335.521 58.7388 334.408C65.2559 332.501 70.2628 338.541 75.8262 340.607C81.3895 342.674 75.8262 351.416 74.9519 357.377C74.0777 363.337 62.9511 370.49 57.5467 371.682H56.1955C59.6215 369.598 62.1874 366.356 63.4279 362.543Z" fill="#FFFA94"/>
<path d="M27.2657 353.641C27.2657 353.641 29.2526 353.641 29.0142 356.264C28.4605 359.286 28.4605 362.382 29.0142 365.404C29.809 368.106 33.2265 370.49 27.6631 373.351C22.0998 376.213 17.967 377.166 14.3906 374.385C12.5317 372.997 11.0541 371.162 10.0952 369.05C9.13641 366.937 8.72755 364.617 8.90672 362.304C9.70148 358.251 7.31722 353.006 11.291 352.608C15.2648 352.211 13.2779 353.8 17.967 354.198C21.0755 354.549 24.2212 354.361 27.2657 353.641Z" fill="#FFD00B"/>
<path opacity="0.5" d="M26.1536 368.821C25.6423 365.769 25.6423 362.654 26.1536 359.602C26.1536 357.138 24.4846 356.979 24.4846 356.979C21.595 357.809 18.5832 358.132 15.5833 357.933C11.2916 357.933 12.6426 356.184 9.70202 356.264C9.70202 354.436 10.1789 353.164 12.0863 352.926C16.0601 352.926 14.0732 354.118 18.7623 354.515C21.7573 354.717 24.7652 354.422 27.6637 353.641C27.6637 353.641 29.6506 353.641 29.4121 356.264C28.8585 359.285 28.8585 362.382 29.4121 365.404C30.2069 368.106 33.6244 370.49 28.0611 373.351C28.22 372 26.7099 370.49 26.1536 368.821Z" fill="#FFFA94"/>
<path d="M51.0291 374.305C43.7173 372.239 42.5252 368.344 35.1339 371.444C30.861 373.657 26.8377 376.321 23.1329 379.392C21.0666 380.663 19.7155 382.014 23.1329 384.558C31.2712 388.213 40.123 390.005 49.0422 389.803C56.1951 389.167 62.7121 381.855 62.1557 379.233C61.5994 376.61 58.3409 376.451 51.0291 374.305Z" fill="#FFD00B"/>
<path d="M89.0191 339.415C89.0191 339.415 87.4296 334.09 83.6942 334.646C79.9589 335.203 81.151 337.03 80.6741 339.812C80.1973 342.594 80.6741 342.196 79.7999 347.203C79.3915 351.643 78.4578 356.018 77.0182 360.238C75.5876 363.735 72.2497 364.609 71.2165 366.755C70.1833 368.9 63.2688 372.715 69.8653 375.418C76.4619 378.12 89.1781 379.232 91.4034 376.053C93.6287 372.874 93.5493 370.093 92.3571 364.609C91.4474 359.952 91.1269 355.199 91.4034 350.462C91.0712 346.695 90.2703 342.984 89.0191 339.415Z" fill="#FFD00B"/>
<path opacity="0.5" d="M84.6479 373.51C86.9527 370.331 86.7938 367.55 85.6017 362.066C84.7309 357.404 84.4108 352.656 84.6479 347.919C84.3158 344.152 83.5149 340.441 82.2637 336.872C82.0775 336.294 81.838 335.736 81.5484 335.203C82.1679 334.729 82.9155 334.452 83.6942 334.408C87.4296 333.852 89.0191 339.176 89.0191 339.176C90.2703 342.745 91.0712 346.456 91.4034 350.224C91.1269 354.961 91.4474 359.713 92.3571 364.37C93.5493 369.854 93.6287 372.318 91.4034 375.815C89.1781 379.312 76.6208 377.802 69.8653 375.179L68.2758 374.384C74.9518 376.053 82.8994 376.212 84.6479 373.51Z" fill="#FFFA94"/>
<path d="M86.8728 386.147C82.4216 388.202 77.6743 389.544 72.8055 390.121C69.6265 390.598 60.0893 391.313 60.5662 388.293C61.0431 385.273 62.0763 385.352 63.5068 382.412C64.9374 379.471 62.3147 377.484 64.0632 375.656C65.8116 373.828 65.7322 375.656 69.3881 376.689C73.3046 378.62 77.5264 379.857 81.8658 380.345C85.2833 379.789 86.6344 379.55 89.8134 379.233C92.9925 378.915 89.1776 384.637 86.8728 386.147Z" fill="#FFD00B"/>
<g opacity="0.5">
<path d="M61.7587 384.955C65.5216 386.094 69.5077 386.285 73.3623 385.511C78.1811 384.893 82.8738 383.525 87.2706 381.458C88.1357 380.793 88.9105 380.018 89.5754 379.153C92.516 379.153 88.8601 384.558 86.5553 386.068C82.1042 388.123 77.3568 389.464 72.488 390.042C69.309 390.518 59.6923 391.234 60.2487 388.214C60.4562 387.013 60.9772 385.889 61.7587 384.955Z" fill="#FFFA94"/>
</g>
<path opacity="0.7" d="M35.1338 357.615C34.2596 358.807 35.1338 361.033 37.2797 362.622C39.4255 364.212 41.7303 364.45 42.6045 363.258C43.4788 362.066 42.6046 359.92 40.5382 358.33C38.4718 356.741 36.0875 356.184 35.1338 357.615Z" fill="white"/>
<path opacity="0.7" d="M73.4416 369.298C73.4416 370.729 75.031 372.318 77.4948 372.795C79.9586 373.272 82.3429 372.795 82.6608 371.046C82.9787 369.298 81.0713 367.947 78.528 367.47C75.9848 366.993 73.68 367.788 73.4416 369.298Z" fill="white"/>
<path opacity="0.7" d="M69.3889 331.467C69.3889 332.66 71.2963 333.375 73.2832 333.136C75.2701 332.898 76.8597 331.706 76.7007 330.514C76.5417 329.322 74.7933 328.606 72.8064 328.924C70.8195 329.242 69.23 330.275 69.3889 331.467Z" fill="white"/>
<path opacity="0.7" d="M46.4995 323.52C46.4995 324.712 48.4069 325.506 50.3938 325.189C52.3807 324.871 53.9703 323.837 53.8113 322.645C53.6523 321.453 51.9039 320.738 49.8375 320.976C47.7711 321.215 46.3405 322.407 46.4995 323.52Z" fill="white"/>
<path opacity="0.7" d="M11.2908 330.275C12.165 331.149 13.993 330.275 15.4235 329.162C16.8541 328.05 17.331 325.904 16.5362 325.03C15.7414 324.155 13.834 325.03 12.4035 326.142C10.9729 327.255 10.496 329.48 11.2908 330.275Z" fill="white"/>
<path opacity="0.7" d="M14.3107 367.47C13.5954 368.344 14.3107 370.172 15.9002 371.444C17.4897 372.715 19.3972 372.954 20.1125 372C20.8278 371.046 20.1125 369.298 18.523 368.026C16.9334 366.755 15.026 366.516 14.3107 367.47Z" fill="white"/>
<path opacity="0.7" d="M44.7509 384.08C44.7509 385.272 46.4993 386.147 48.5657 385.988C50.6321 385.829 52.2216 384.875 52.1422 383.683C52.0627 382.491 50.3937 381.617 48.3273 381.776C46.2609 381.934 44.6714 382.888 44.7509 384.08Z" fill="white"/>
<path opacity="0.7" d="M63.0303 387.26C63.0303 388.054 64.2225 388.611 65.5735 388.531C66.9246 388.452 68.0374 387.737 68.0374 386.942C68.0374 386.147 66.8452 385.591 65.4146 385.67C63.9841 385.75 63.0303 386.465 63.0303 387.26Z" fill="white"/>
<path opacity="0.5" d="M360.431 75.3156C362.83 73.7884 364.813 71.6888 366.2 69.2056C367.587 66.7224 368.336 63.9335 368.378 61.0894C370.047 61.0894 371.08 61.0894 371.875 62.202C372.67 63.3147 370.683 73.7261 364.484 77.382C356.48 81.3598 347.671 83.4532 338.734 83.5017C336.667 83.5017 335.872 82.389 335.713 81.5942C344.287 81.1579 352.688 79.0237 360.431 75.3156Z" fill="#FFFA94"/>
<path d="M311.393 63.553C321.487 85.091 339.766 91.2902 361.304 81.2762C374.815 74.9181 399.373 66.732 401.519 53.0621C402.791 45.1145 390.393 29.2193 386.657 21.2716C380.935 8.95284 365.437 3.3895 353.436 0.369402C344.217 -1.93541 336.269 7.12488 327.05 11.4961C316.241 16.5031 299.313 21.669 295.259 32.0804C291.206 42.4918 306.386 52.5853 311.393 63.553Z" fill="#FFB208"/>
<path d="M367.583 7.91992C372.352 11.0195 367.583 17.616 362.417 19.285C359.916 19.8557 357.305 19.7194 354.877 18.8913C352.449 18.0632 350.299 16.576 348.668 14.5959C345.489 10.3042 345.012 3.23083 351.608 3.46925C357.141 4.06895 362.537 5.57249 367.583 7.91992Z" fill="#FFD00B"/>
<path opacity="0.5" d="M364.404 10.8601C359.383 8.52101 354.014 7.01766 348.509 6.40945C347.826 6.28406 347.126 6.28406 346.442 6.40945C346.539 5.82876 346.749 5.2729 347.061 4.77406C347.374 4.27521 347.782 3.84327 348.262 3.50326C348.743 3.16325 349.286 2.92192 349.86 2.79323C350.435 2.66454 351.029 2.65105 351.608 2.75355C357.112 3.37146 362.479 4.87437 367.504 7.20422C371.239 9.5885 369.332 14.1186 365.755 16.8208C366.353 15.8478 366.547 14.6791 366.295 13.5651C366.042 12.4511 365.363 11.4801 364.404 10.8601Z" fill="#FFFA94"/>
<path d="M341.197 6.64788C344.058 6.17102 346.681 10.9396 345.568 14.5955C344.455 18.2514 345.568 21.8278 340.641 24.3711C337.724 25.7763 334.558 26.5911 331.326 26.7684C328.093 26.9457 324.857 26.4821 321.805 25.4043C317.831 22.9405 314.334 20.1588 317.91 17.4566C321.487 14.7545 325.858 14.8339 330.15 12.9265C336.905 9.82693 338.256 7.12474 341.197 6.64788Z" fill="#FFD00B"/>
<path opacity="0.5" d="M342.787 19.4437C343.899 15.5494 341.197 10.8603 338.415 11.4961C335.634 12.1319 334.203 14.5957 327.448 17.9337C324.03 19.6027 320.215 19.6027 316.798 21.5101C316.543 21.1985 316.363 20.8324 316.272 20.4402C316.181 20.0479 316.182 19.64 316.274 19.248C316.367 18.8561 316.548 18.4907 316.804 18.18C317.06 17.8694 317.384 17.6219 317.752 17.4568C321.566 14.5162 325.699 14.8341 329.991 12.8472C336.826 9.58865 337.939 6.88646 341.038 6.4096C344.138 5.93274 346.601 10.7013 345.489 14.3572C344.376 18.0131 345.489 20.7948 342.071 23.1791C342.31 22.2254 342.389 20.8743 342.787 19.4437Z" fill="#FFFA94"/>
<path d="M315.765 25.7226C314.936 24.8184 313.909 24.1183 312.765 23.6771C311.62 23.2359 310.389 23.0655 309.168 23.1793C307.274 23.5949 305.492 24.4134 303.942 25.579C302.392 26.7447 301.112 28.2303 300.187 29.9348C299.055 32.2535 298.611 34.8479 298.907 37.4112C299.202 39.9745 300.226 42.3995 301.856 44.3995C306.386 48.8501 309.804 49.486 311.791 52.3471C313.778 55.2082 314.652 59.7384 322.361 55.2082C330.07 50.6781 338.256 45.1148 334.521 39.313C330.786 33.5112 326.573 33.7497 322.6 32.0807C319.773 30.6403 317.405 28.4379 315.765 25.7226Z" fill="#FFD00B"/>
<path opacity="0.5" d="M330.15 44.8761C326.653 38.9154 322.202 39.3922 318.308 37.7232C315.442 36.4315 312.993 34.3676 311.234 31.7625C310.398 30.8727 309.368 30.1875 308.224 29.7602C307.08 29.3329 305.853 29.175 304.638 29.2988C302.927 29.6646 301.306 30.367 299.869 31.3651C299.869 30.9678 299.869 30.6499 299.869 30.332C300.887 28.6315 302.258 27.1695 303.89 26.0451C305.521 24.9207 307.376 24.1601 309.327 23.8149C310.535 23.7136 311.751 23.8901 312.88 24.3309C314.01 24.7717 315.024 25.4652 315.844 26.3581C317.638 28.9816 320.11 31.0692 322.997 32.3983C327.289 34.0673 331.342 33.67 334.839 39.6307C337.064 43.4455 334.839 47.1014 330.627 50.4394C331.029 49.5486 331.196 48.5696 331.113 47.5957C331.029 46.6218 330.698 45.6855 330.15 44.8761Z" fill="#FFFA94"/>
<path d="M349.543 23.0998C346.284 25.8814 336.191 27.2325 334.204 28.822C332.217 30.4116 330.866 30.491 332.932 33.3522C334.998 36.2133 337.542 36.2928 338.098 40.4256C338.348 43.9361 337.425 47.4303 335.475 50.3601C334.204 52.6649 333.568 54.175 335.475 59.023C337.383 63.8711 359.874 60.7715 364.325 57.354C368.776 53.9365 375.531 42.8099 373.385 37.0081C371.24 31.2063 372.511 21.1128 367.107 21.5102C361.702 21.9076 354.391 18.6491 349.543 23.0998Z" fill="#FFD00B"/>
<path opacity="0.5" d="M365.438 46.7042C363.61 40.9819 364.563 30.8089 359.159 30.8089C353.755 30.8089 346.125 28.0273 341.038 32.4779C339.128 33.7713 337.002 34.7133 334.76 35.2596C333.967 34.5966 333.248 33.8506 332.614 33.0343C330.548 30.1731 331.819 30.0142 333.886 28.5041C335.952 26.9941 346.045 25.8814 349.542 23.0998C354.629 18.6491 361.702 21.9076 367.663 21.5102C373.624 21.1128 372.114 31.2858 373.942 37.4055C375.77 43.5251 368.696 54.4134 364.245 57.7514L363.053 58.4667C365.308 54.989 366.16 50.7855 365.438 46.7042Z" fill="#FFFA94"/>
<path d="M328.958 53.9365C328.958 53.9365 330.866 53.2212 331.66 55.6055C332.618 58.4843 334.07 61.1739 335.952 63.5531C337.78 65.6195 341.913 66.3348 338.177 71.5008C334.442 76.6667 331.025 79.4484 326.653 78.0973C324.381 77.6114 322.267 76.5639 320.504 75.0507C318.741 73.5374 317.385 71.6065 316.56 69.4344C315.527 65.3811 311.156 61.4868 314.652 59.6588C318.149 57.8309 316.957 59.6588 321.328 58.2282C324.101 57.2509 326.683 55.7987 328.958 53.9365Z" fill="#FFD00B"/>
<path opacity="0.5" d="M334.442 68.1625C332.593 65.7739 331.169 63.0857 330.23 60.2149C329.356 57.8306 327.528 58.5459 327.528 58.5459C325.181 60.5536 322.488 62.1158 319.58 63.1555C315.527 64.5861 316.163 63.1555 313.54 64.1092C312.825 62.5197 312.666 61.0891 314.335 60.1354C317.752 58.069 316.639 60.1354 321.011 58.7048C323.918 57.6651 326.612 56.103 328.958 54.0952C328.958 54.0952 330.866 53.3799 331.66 55.7642C332.618 58.643 334.07 61.3325 335.952 63.7118C337.78 65.7782 341.913 66.4935 338.177 71.6595C337.621 70.2289 335.634 69.4341 334.442 68.1625Z" fill="#FFFA94"/>
<path d="M359.317 62.679C351.767 63.8711 349.065 60.851 343.899 66.6528C340.816 70.3766 338.15 74.4276 335.951 78.7332C334.6 80.7996 333.964 82.5481 338.018 83.4223C346.951 83.3352 355.751 81.2439 363.768 77.3026C369.967 73.6467 372.828 64.4275 371.159 62.1227C369.49 59.8179 366.788 61.4869 359.317 62.679Z" fill="#FFD00B"/>
<path d="M378.948 14.9135C378.948 14.9135 375.213 10.7808 372.034 12.8471C368.855 14.9135 370.762 16.1057 371.477 18.8079C372.193 21.51 372.51 21.0332 373.941 25.8812C375.436 30.0935 376.423 34.4691 376.882 38.9153C376.882 42.6507 374.418 44.8761 374.338 46.863C374.259 48.8499 369.57 55.6848 376.802 54.8106C384.034 53.9363 395.876 50.201 396.592 46.3066C397.307 42.4123 395.956 40.028 392.618 35.5773C389.857 31.9573 387.561 28.0057 385.783 23.8149C383.863 20.5891 381.569 17.6013 378.948 14.9135Z" fill="#FFD00B"/>
<path opacity="0.5" d="M389.28 47.658C389.995 43.8431 388.724 41.3793 385.306 36.9287C382.508 33.0758 380.212 28.8829 378.471 24.4509C376.605 21.3486 374.392 18.4689 371.875 15.8675C371.451 15.4107 370.97 15.0101 370.444 14.6753C370.815 13.9868 371.364 13.4104 372.034 13.0063C375.213 10.9399 378.948 15.0727 378.948 15.0727C381.559 17.7109 383.853 20.6449 385.783 23.8151C387.507 28.255 389.804 32.45 392.618 36.2929C395.956 40.7435 397.307 43.2073 396.592 47.0221C395.876 50.837 384.114 55.6056 376.802 55.6056H375.054C381.332 54.0955 389.28 50.9165 389.28 47.658Z" fill="#FFFA94"/>
<path d="M396.751 58.2279C393.601 61.9763 389.872 65.1961 385.704 67.765C383.081 69.5135 374.657 74.2821 373.862 71.262C373.067 68.2419 373.862 68.0035 373.862 64.7449C373.862 61.4864 370.683 60.7711 371.477 58.3869C372.272 56.0026 373.067 57.5921 376.723 57.0358C381.096 57.0981 385.448 56.4265 389.598 55.0489C391.769 53.4709 394.024 52.0117 396.354 50.6777C399.294 49.0881 398.181 55.6052 396.751 58.2279Z" fill="#FFD00B"/>
<g opacity="0.5">
<path d="M373.385 67.7653C377.307 67.2852 381.049 65.8377 384.273 63.553C388.414 60.9157 392.137 57.6744 395.32 53.9364C395.837 52.9899 396.212 51.9722 396.433 50.9163C399.055 49.4857 398.022 56.0823 396.433 58.3871C393.31 62.1838 389.576 65.4338 385.386 68.0037C382.763 69.7522 374.338 74.4413 373.544 71.5006C373.107 70.3015 373.052 68.9971 373.385 67.7653Z" fill="#FFFA94"/>
</g>
<path opacity="0.7" d="M337.7 54.0161C337.7 55.4466 339.21 57.0361 341.754 57.5925C344.297 58.1488 346.602 57.5925 346.84 55.9235C347.079 54.2545 345.41 52.9034 342.866 52.3471C340.323 51.7907 338.018 52.506 337.7 54.0161Z" fill="white"/>
<path opacity="0.7" d="M377.439 48.6113C377.836 50.0419 380.141 50.6777 382.684 50.0419C385.227 49.4061 386.896 47.7371 386.499 46.3065C386.101 44.8759 383.797 44.1606 381.333 44.7964C378.869 45.4323 377.121 47.1807 377.439 48.6113Z" fill="white"/>
<path opacity="0.7" d="M357.49 15.8672C358.126 16.8209 360.033 16.7414 361.782 15.8672C363.53 14.9929 364.404 13.0855 363.768 12.1318C363.133 11.1781 361.225 11.1781 359.477 12.1318C357.728 13.0855 357.49 15.0724 357.49 15.8672Z" fill="white"/>
<path opacity="0.7" d="M333.647 18.5693C334.283 19.6025 336.19 19.523 337.939 18.5693C339.687 17.6156 340.561 15.7877 339.926 14.8339C339.29 13.8802 337.382 13.8802 335.634 14.8339C333.885 15.7877 333.011 17.6156 333.647 18.5693Z" fill="white"/>
<path opacity="0.7" d="M304.638 39.7103C305.751 39.7103 307.261 38.836 307.897 36.9286C308.532 35.0212 308.294 33.1137 307.181 32.7164C306.069 32.319 304.559 33.5906 303.923 35.498C303.287 37.4055 303.525 39.2334 304.638 39.7103Z" fill="white"/>
<path opacity="0.7" d="M323.156 71.9776C323.156 73.0902 324.269 74.4413 326.256 74.9182C328.243 75.3951 330.071 74.9182 330.389 73.6466C330.707 72.375 329.197 71.1828 327.21 70.706C325.223 70.2291 323.395 70.7854 323.156 71.9776Z" fill="white"/>
<path opacity="0.7" d="M357.489 74.1231C358.046 75.1563 359.953 75.2358 361.781 74.1231C363.609 73.0104 364.642 71.5799 364.086 70.5467C363.53 69.5135 361.622 69.434 359.794 70.5467C357.966 71.6593 357.489 73.0899 357.489 74.1231Z" fill="white"/>
<path opacity="0.7" d="M375.61 69.2751C375.61 69.9904 377.279 69.9904 378.551 69.2751C379.822 68.5598 380.379 67.5267 380.061 66.8114C379.743 66.0961 378.392 66.0961 377.199 66.8114C376.007 67.5267 375.292 68.5598 375.61 69.2751Z" fill="white"/>
<defs>
<linearGradient id="paint0_linear_1_2248" x1="427.985" y1="228.784" x2="128.519" y2="461.808" gradientUnits="userSpaceOnUse">
<stop/>
<stop offset="0.57"/>
<stop offset="0.61"/>
<stop offset="1" stop-color="#404040"/>
</linearGradient>
</defs>
</svg>
