<svg width="185" height="92" viewBox="0 0 185 92" fill="none" xmlns="http://www.w3.org/2000/svg">
<path fill-rule="evenodd" clip-rule="evenodd" d="M53.5724 2.8225C52.5647 3.99003 53.2124 14.4386 54.429 17.5985C54.7055 18.3166 56.6623 19.0172 59.1326 19.4566C63.2033 20.0694 77.1084 23.5161 86.7248 26.1814C100.077 29.9844 112.231 40.237 114.123 39.5748C128.047 34.7028 162.551 50.4175 176.631 68.0632C192.941 88.5144 180.609 92.3413 171.325 79.7807C159.137 63.2647 144.256 52.5003 126.897 47.6545C121.057 46.0313 120.909 46.2453 124.642 50.5626C143.076 72.1452 119.965 100.767 94.4684 87.9306C77.3252 79.2611 78.5423 55.5289 96.6478 44.3857C100.817 41.8675 85.9165 34.0428 68.4264 29.6505C53.7471 25.986 54.7487 25.7984 55.3319 31.2986C58.0046 54.9735 54.0412 57.8274 37.4172 44.3311C29.958 38.3032 17.9855 32.306 3.45952 27.447C-2.09782 25.5615 0.0373281 22.9403 8.6829 20.893C18.1268 18.7294 30.0661 13.0849 39.3012 6.59384C52.5153 -2.51192 55.0504 1.08302 53.5724 2.8225ZM98.9579 50.5853C88.0631 61.732 95.8053 83.6327 110.967 84.7649C120.691 85.519 122.703 66.6423 114.043 55.9009C107.066 47.3409 103.342 46.0363 98.9579 50.5853Z" fill="white"/>
</svg>
