<svg width="1440" height="583" viewBox="0 0 1440 583" fill="none" xmlns="http://www.w3.org/2000/svg">
<circle opacity="0.1" cx="690.5" cy="690.5" r="690.5" transform="matrix(0.936718 -0.350084 -0.350084 -0.936718 -19.8177 1057.95)" fill="#8D58B7"/>
<circle opacity="0.2" cx="661.086" cy="661.086" r="661.086" transform="matrix(0.936718 -0.350084 -0.350084 -0.936718 -2.56226 1020.1)" fill="#8D58B7"/>
<path d="M990.431 -58.2458C959.524 -135.359 914.405 -205.978 857.422 -266.431C742.746 -175.719 613.833 -126.753 533.662 -214.095C430.931 -325.348 295.07 -400.516 146.239 -428.445C93.671 -408.213 43.9397 -381.268 -1.71794 -348.281C192.795 -313.115 361.722 -124.629 527.891 9.5954C697.833 159.619 860.237 83.7987 990.431 -58.2458Z" fill="#D6C3ED"/>
<path d="M-175.16 533.615C-122.632 617.495 -51.7794 688.382 32.0757 740.95C115.931 793.518 210.608 826.401 308.995 837.128C319.431 838.276 329.867 839.423 340.302 840.571C193.488 682.759 20.4431 552.6 -175.16 533.615Z" fill="#65377F"/>
<path d="M-212.567 282.903C-231.25 271.207 -251.252 261.762 -272.155 254.768C-261.528 353.901 -228.348 449.286 -175.158 533.614C20.4447 552.599 194.17 682.833 340.379 839.89C491.234 849.698 640.814 806.821 763.566 718.585C367.042 837.541 78.0541 479.72 -212.567 282.903Z" fill="#794899"/>
<path d="M811.747 489.232C409.364 575.858 121.806 301.082 -149.776 45.9727C-177.67 21.1737 -213.496 7.13858 -250.812 6.39067C-260.809 41.2434 -267.876 76.8708 -271.939 112.901C-277.051 160.05 -277.124 207.609 -272.157 254.773C-251.253 261.768 -231.251 271.213 -212.568 282.909C78.0524 479.726 367.04 837.546 763.564 718.591C873.041 639.882 955.592 529.337 999.971 402.016C945.368 446.142 880.712 476.101 811.747 489.232Z" fill="#8D58B7"/>
<path d="M-149.775 45.9714C120.773 300.049 408.785 574.874 811.848 488.323C880.693 475.443 945.306 445.8 999.972 402.014C1016.71 354.709 1027.96 305.64 1033.51 255.769C1035.5 237.62 1037.47 219.698 1036.92 201.728C942.776 237.296 837.569 254.428 741.616 275.102C394.815 367.84 260.805 53.9263 20.922 -140.755C-0.887957 -163.33 -27.5312 -180.667 -57.0053 -191.465C-86.4793 -202.262 -118.017 -206.238 -149.249 -203.094C-195.43 -139.944 -229.835 -68.9795 -250.811 6.38934C-213.495 7.13723 -177.669 21.1724 -149.775 45.9714Z" fill="#A177C9"/>
<path d="M20.8453 -140.073C261.182 54.6576 394.738 368.522 741.539 275.784C837.492 255.109 942.624 238.658 1036.85 202.41C1039.35 113.265 1023.55 24.5541 990.429 -58.2464C859.983 84 697.806 159.845 527.889 9.59478C361.744 -124.857 192.792 -313.115 -1.84494 -347.148C-58.4919 -306.587 -108.325 -257.271 -149.475 -201.051C-118.325 -204.391 -86.8227 -200.641 -57.327 -190.081C-27.8314 -179.521 -1.10695 -162.425 20.8453 -140.073Z" fill="#BA9CDB"/>
<path opacity="0.2" d="M632.706 -421.565C643.685 -359.886 645.734 -296.948 638.79 -234.686C627.45 -133.456 592.721 -36.2504 537.349 49.2484C481.977 134.747 407.479 206.196 319.742 257.948C232.005 309.701 133.434 340.338 31.8184 347.44C-69.7969 354.541 -171.671 337.912 -265.754 298.866C-245.955 411.156 -197.256 516.354 -124.452 604.107C-51.6474 691.859 42.7531 759.14 149.458 799.329C256.162 839.517 371.493 851.226 484.097 833.304C596.702 815.382 702.698 768.446 791.654 697.117C880.609 625.788 949.458 532.524 991.421 426.505C1033.39 320.486 1047.02 205.367 1030.98 92.4795C1014.94 -20.4084 969.779 -127.174 899.945 -217.308C830.111 -307.442 738.01 -377.837 632.706 -421.565Z" fill="url(#paint0_linear_1_124)"/>
<defs>
<linearGradient id="paint0_linear_1_124" x1="51.9302" y1="-134.595" x2="1060.99" y2="845.201" gradientUnits="userSpaceOnUse">
<stop/>
<stop offset="0.57"/>
<stop offset="0.61"/>
<stop offset="1" stop-color="#404040"/>
</linearGradient>
</defs>
</svg>
