<svg width="1448" height="774" viewBox="0 0 1448 774" fill="none" xmlns="http://www.w3.org/2000/svg">
<g clip-path="url(#clip0_1_1454)" filter="url(#filter0_d_1_1454)">
<rect width="1440" height="766" transform="translate(4)" fill="white"/>
<path d="M-68 1040H1516V-16H-68V1040Z" fill="url(#paint0_radial_1_1454)"/>
<g opacity="0.8">
<mask id="mask0_1_1454" style="mask-type:luminance" maskUnits="userSpaceOnUse" x="-19" y="121" width="1485" height="990">
<path d="M-19 1111L1466 1111L1466 121L-19 121L-19 1111Z" fill="white"/>
</mask>
<g mask="url(#mask0_1_1454)">
<path d="M506.749 736.316C545.569 736.316 577.039 724.349 577.039 709.586C577.039 694.824 545.569 682.856 506.749 682.856C467.929 682.856 436.459 694.824 436.459 709.586C436.459 724.349 467.929 736.316 506.749 736.316Z" fill="url(#paint1_radial_1_1454)"/>
<path d="M506.749 779.877C521.511 779.877 533.479 748.407 533.479 709.587C533.479 670.766 521.511 639.297 506.749 639.297C491.986 639.297 480.019 670.766 480.019 709.587C480.019 748.407 491.986 779.877 506.749 779.877Z" fill="url(#paint2_radial_1_1454)"/>
<path d="M1046.69 196.172C1071.52 196.172 1091.64 188.549 1091.64 179.144C1091.64 169.74 1071.52 162.116 1046.69 162.116C1021.87 162.116 1001.75 169.74 1001.75 179.144C1001.75 188.549 1021.87 196.172 1046.69 196.172Z" fill="url(#paint3_radial_1_1454)"/>
<path d="M1046.69 224.091C1056.1 224.091 1063.72 203.967 1063.72 179.145C1063.72 154.322 1056.1 134.198 1046.69 134.198C1037.29 134.198 1029.67 154.322 1029.67 179.145C1029.67 203.967 1037.29 224.091 1046.69 224.091Z" fill="url(#paint4_radial_1_1454)"/>
<path d="M941.557 729.188C952.843 745.82 967.495 755.522 974.227 750.77C981.157 746.216 977.593 728.99 966.307 712.358C955.021 695.726 940.369 686.024 933.637 690.776C926.905 695.528 930.469 712.754 941.557 729.188Z" fill="url(#paint5_radial_1_1454)"/>
<path opacity="0.6" d="M945.715 708.398C929.083 719.684 919.381 734.336 924.133 741.068C928.687 747.998 945.913 744.434 962.545 733.148C979.177 721.862 988.879 707.21 984.127 700.478C979.375 693.746 962.149 697.31 945.715 708.398Z" fill="url(#paint6_radial_1_1454)"/>
<path d="M514.471 289.035C525.757 305.667 540.409 315.369 547.141 310.617C554.071 306.063 550.507 288.837 539.221 272.205C527.935 255.573 513.283 245.871 506.551 250.623C499.621 255.177 503.185 272.403 514.471 289.035Z" fill="url(#paint7_radial_1_1454)"/>
<path opacity="0.6" d="M518.431 268.245C501.799 279.531 492.097 294.183 496.849 300.915C501.403 307.845 518.629 304.281 535.261 292.995C551.893 281.709 561.595 267.057 556.843 260.325C552.289 253.395 535.063 256.959 518.431 268.245Z" fill="url(#paint8_radial_1_1454)"/>
</g>
</g>
<g opacity="0.3">
<mask id="mask1_1_1454" style="mask-type:luminance" maskUnits="userSpaceOnUse" x="-119" y="-155" width="1685" height="1123">
<path d="M-118 967.667L1566 967.667L1566 -155L-118 -155L-118 967.667Z" fill="white"/>
</mask>
<g mask="url(#mask1_1_1454)">
<path d="M740.907 250.206C740.907 249.083 740.009 248.185 738.886 248.185C737.763 248.185 736.865 249.083 736.865 250.206C736.865 251.329 737.763 252.227 738.886 252.227C740.009 252.227 740.907 251.329 740.907 250.206Z" fill="white"/>
<path d="M1057.5 129.856C1059.23 129.856 1060.64 128.449 1060.64 126.713C1060.64 124.977 1059.23 123.569 1057.5 123.569C1055.76 123.569 1054.36 124.977 1054.36 126.713C1054.36 128.449 1055.76 129.856 1057.5 129.856Z" fill="white"/>
<path d="M878.321 75.2946C878.321 73.2738 876.525 71.4775 874.504 71.4775C872.483 71.4775 870.687 73.2738 870.687 75.2946C870.687 77.3154 872.483 79.1117 874.504 79.1117C876.749 79.3362 878.321 77.5399 878.321 75.2946Z" fill="white"/>
<path d="M1148.43 22.3047C1148.43 20.2839 1146.86 18.7122 1144.84 18.7122C1142.82 18.7122 1141.25 20.2839 1141.25 22.3047C1141.25 24.3255 1142.82 25.8972 1144.84 25.8972C1146.86 25.8972 1148.43 24.3255 1148.43 22.3047Z" fill="white"/>
<path d="M825.331 5.9138C825.331 3.893 823.759 2.32129 821.739 2.32129C819.718 2.32129 818.146 3.893 818.146 5.9138C818.146 7.9346 819.718 9.50635 821.739 9.50635C823.759 9.50635 825.331 7.9346 825.331 5.9138Z" fill="white"/>
<path d="M881.914 365.392C881.914 363.371 880.342 361.799 878.321 361.799C876.3 361.799 874.729 363.371 874.729 365.392C874.729 367.412 876.3 368.984 878.321 368.984C880.342 368.984 881.914 367.188 881.914 365.392Z" fill="white"/>
<path d="M1043.35 45.6561C1043.35 42.2881 1040.66 39.3691 1037.07 39.3691C1033.7 39.3691 1030.78 42.0635 1030.78 45.6561C1030.78 49.0241 1033.47 51.943 1037.07 51.943C1040.66 51.943 1043.35 49.0241 1043.35 45.6561Z" fill="white"/>
<path d="M73.8182 716.786C73.8182 715.439 72.6956 714.317 71.3484 714.317C70.0012 714.317 68.8785 715.439 68.8785 716.786C68.8785 718.134 70.0012 719.256 71.3484 719.256C72.6956 719.256 73.8182 718.134 73.8182 716.786Z" fill="white"/>
<path d="M651.318 164.659C652.806 164.659 654.012 163.452 654.012 161.964C654.012 160.476 652.806 159.27 651.318 159.27C649.83 159.27 648.624 160.476 648.624 161.964C648.624 163.452 649.83 164.659 651.318 164.659Z" fill="white"/>
<path d="M303.74 507.97C303.74 505.725 301.944 503.929 299.699 503.929C297.453 503.929 295.657 505.725 295.657 507.97C295.657 510.216 297.453 512.012 299.699 512.012C301.944 512.012 303.74 510.216 303.74 507.97Z" fill="white"/>
<path d="M593.837 575.33C593.837 572.411 591.592 570.166 588.673 570.166C585.754 570.166 583.509 572.411 583.509 575.33C583.509 578.249 585.754 580.494 588.673 580.494C591.368 580.494 593.837 578.249 593.837 575.33Z" fill="white"/>
<path d="M624.823 597.784C626.683 597.784 628.191 596.276 628.191 594.416C628.191 592.556 626.683 591.048 624.823 591.048C622.963 591.048 621.455 592.556 621.455 594.416C621.455 596.276 622.963 597.784 624.823 597.784Z" fill="white"/>
<path d="M386.818 402.44C386.818 400.419 385.021 398.623 383.001 398.623C380.98 398.623 379.184 400.419 379.184 402.44C379.184 404.46 380.98 406.257 383.001 406.257C385.021 406.481 386.818 404.685 386.818 402.44Z" fill="white"/>
<path d="M683.651 56.2093C686.007 56.2093 687.917 54.2992 687.917 51.9431C687.917 49.587 686.007 47.677 683.651 47.677C681.295 47.677 679.385 49.587 679.385 51.9431C679.385 54.2992 681.295 56.2093 683.651 56.2093Z" fill="white"/>
<path d="M1070.97 212.934C1070.97 210.688 1069.17 208.667 1066.7 208.667C1064.23 208.667 1062.44 210.464 1062.44 212.934C1062.44 215.403 1064.23 217.2 1066.7 217.2C1069.17 217.2 1070.97 215.403 1070.97 212.934Z" fill="white"/>
<path d="M358.302 575.33C360.658 575.33 362.568 573.42 362.568 571.064C362.568 568.708 360.658 566.798 358.302 566.798C355.946 566.798 354.036 568.708 354.036 571.064C354.036 573.42 355.946 575.33 358.302 575.33Z" fill="white"/>
<path d="M1192.67 607.439C1194.9 607.439 1196.71 605.629 1196.71 603.397C1196.71 601.165 1194.9 599.355 1192.67 599.355C1190.44 599.355 1188.63 601.165 1188.63 603.397C1188.63 605.629 1190.44 607.439 1192.67 607.439Z" fill="white"/>
<path d="M227.848 357.309C227.848 354.839 225.827 352.818 223.357 352.818C220.888 352.818 218.867 354.839 218.867 357.309C218.867 359.778 220.888 361.799 223.357 361.799C225.827 361.799 227.848 359.778 227.848 357.309Z" fill="white"/>
<path d="M272.081 359.778C272.081 358.656 271.183 357.758 270.06 357.758C268.938 357.758 268.039 358.656 268.039 359.778C268.039 360.901 268.938 361.799 270.06 361.799C271.183 361.575 272.081 360.676 272.081 359.778Z" fill="white"/>
<path d="M1249.7 599.805C1249.7 597.559 1247.9 595.763 1245.66 595.763C1243.41 595.763 1241.62 597.559 1241.62 599.805C1241.62 602.05 1243.41 603.846 1245.66 603.846C1247.9 603.846 1249.7 602.05 1249.7 599.805Z" fill="white"/>
<path d="M1160.56 241.449C1160.56 239.653 1159.21 238.306 1157.42 238.306C1155.62 238.306 1154.27 239.653 1154.27 241.449C1154.27 243.246 1155.62 244.593 1157.42 244.593C1159.21 244.593 1160.56 243.246 1160.56 241.449Z" fill="white"/>
<path d="M945.232 226.855C945.232 225.283 943.885 224.16 942.538 224.16C940.966 224.16 939.843 225.507 939.843 226.855C939.843 228.426 941.19 229.549 942.538 229.549C943.885 229.549 945.232 228.426 945.232 226.855Z" fill="white"/>
<path d="M905.714 188.01C906.83 188.01 907.735 187.106 907.735 185.99C907.735 184.873 906.83 183.969 905.714 183.969C904.598 183.969 903.693 184.873 903.693 185.99C903.693 187.106 904.598 188.01 905.714 188.01Z" fill="white"/>
<path d="M408.822 244.593C408.822 241.449 406.352 238.979 403.209 238.979C400.065 238.979 397.595 241.449 397.595 244.593C397.595 247.736 400.065 250.206 403.209 250.206C406.352 250.206 408.822 247.736 408.822 244.593Z" fill="white"/>
<path d="M587.101 119.303C587.101 116.16 584.632 113.69 581.488 113.69C578.345 113.69 575.875 116.16 575.875 119.303C575.875 122.446 578.345 124.916 581.488 124.916C584.632 124.692 587.101 122.222 587.101 119.303Z" fill="white"/>
<path d="M786.712 151.86C786.712 148.717 784.242 146.247 781.098 146.247C777.955 146.247 775.485 148.717 775.485 151.86C775.485 155.004 777.955 157.474 781.098 157.474C784.242 157.474 786.712 155.004 786.712 151.86Z" fill="white"/>
<path d="M1244.09 429.159C1244.98 430.057 1246.11 430.057 1247 429.159C1247.9 428.261 1247.9 427.138 1247 426.24C1246.11 425.342 1244.98 425.342 1244.09 426.24C1243.19 427.138 1243.41 428.261 1244.09 429.159Z" fill="white"/>
<path d="M1174.26 493.6C1175.38 494.723 1177.4 494.723 1178.52 493.6C1179.64 492.478 1179.64 490.457 1178.52 489.334C1177.4 488.212 1175.38 488.212 1174.26 489.334C1173.13 490.457 1173.13 492.253 1174.26 493.6Z" fill="white"/>
<path d="M733.497 644.936C734.62 646.058 736.641 646.058 737.763 644.936C738.886 643.813 738.886 641.792 737.763 640.67C736.641 639.547 734.62 639.547 733.497 640.67C732.375 641.792 732.375 643.589 733.497 644.936Z" fill="white"/>
<path d="M859.909 591.048C861.481 592.619 863.951 592.619 865.298 591.048C866.645 589.476 866.87 587.006 865.298 585.659C863.726 584.312 861.256 584.087 859.909 585.659C858.338 587.231 858.338 589.701 859.909 591.048Z" fill="white"/>
<path d="M946.579 602.723C947.927 604.071 950.172 604.071 951.519 602.723C952.866 601.376 952.866 599.131 951.519 597.784C950.172 596.436 947.927 596.436 946.579 597.784C945.232 599.131 945.232 601.376 946.579 602.723Z" fill="white"/>
<path d="M881.914 698.375C885.386 698.375 888.201 695.56 888.201 692.088C888.201 688.616 885.386 685.801 881.914 685.801C878.442 685.801 875.627 688.616 875.627 692.088C875.627 695.56 878.442 698.375 881.914 698.375Z" fill="white"/>
<path d="M998.222 333.283C999.71 333.283 1000.92 332.077 1000.92 330.589C1000.92 329.101 999.71 327.895 998.222 327.895C996.734 327.895 995.527 329.101 995.527 330.589C995.527 332.077 996.734 333.283 998.222 333.283Z" fill="white"/>
<path d="M1068.5 652.345C1070.86 652.345 1072.77 650.435 1072.77 648.079C1072.77 645.723 1070.86 643.813 1068.5 643.813C1066.14 643.813 1064.23 645.723 1064.23 648.079C1064.23 650.435 1066.14 652.345 1068.5 652.345Z" fill="white"/>
<path d="M1053.01 435.67C1055.36 435.67 1057.27 433.76 1057.27 431.404C1057.27 429.048 1055.36 427.138 1053.01 427.138C1050.65 427.138 1048.74 429.048 1048.74 431.404C1048.74 433.76 1050.65 435.67 1053.01 435.67Z" fill="white"/>
<path d="M863.277 733.851C864.393 733.851 865.298 732.946 865.298 731.83C865.298 730.714 864.393 729.809 863.277 729.809C862.161 729.809 861.257 730.714 861.257 731.83C861.257 732.946 862.161 733.851 863.277 733.851Z" fill="white"/>
<path d="M944.559 629.443C945.232 630.116 946.579 630.116 947.253 629.443C947.927 628.769 947.927 627.422 947.253 626.748C946.579 626.075 945.232 626.075 944.559 626.748C943.885 627.646 943.885 628.769 944.559 629.443Z" fill="white"/>
<path d="M1110.04 562.083C1110.94 562.981 1112.29 562.981 1112.96 562.083C1113.63 561.185 1113.86 559.837 1112.96 559.164C1112.06 558.266 1110.71 558.266 1110.04 559.164C1109.37 559.837 1109.37 561.185 1110.04 562.083Z" fill="white"/>
<path d="M562.178 458.348C563.301 459.471 565.097 459.471 566.22 458.348C567.342 457.226 567.342 455.43 566.22 454.307C565.097 453.184 563.301 453.184 562.178 454.307C561.055 455.43 561.055 457.226 562.178 458.348Z" fill="white"/>
<path d="M787.385 564.104C788.059 564.777 789.406 564.777 790.08 564.104C790.753 563.43 790.753 562.083 790.08 561.409C789.406 560.736 788.059 560.736 787.385 561.409C786.712 562.083 786.712 563.206 787.385 564.104Z" fill="white"/>
<path d="M1209.73 480.802C1211.34 480.802 1212.65 479.495 1212.65 477.883C1212.65 476.271 1211.34 474.964 1209.73 474.964C1208.12 474.964 1206.81 476.271 1206.81 477.883C1206.81 479.495 1208.12 480.802 1209.73 480.802Z" fill="white"/>
<path d="M1077.71 317.117C1080.81 317.117 1083.32 314.604 1083.32 311.504C1083.32 308.404 1080.81 305.89 1077.71 305.89C1074.61 305.89 1072.09 308.404 1072.09 311.504C1072.09 314.604 1074.61 317.117 1077.71 317.117Z" fill="white"/>
<path d="M913.348 435.222C916.449 435.222 918.962 432.708 918.962 429.608C918.962 426.508 916.449 423.995 913.348 423.995C910.248 423.995 907.735 426.508 907.735 429.608C907.735 432.708 910.248 435.222 913.348 435.222Z" fill="white"/>
<path d="M516.823 321.159C519.923 321.159 522.436 318.645 522.436 315.545C522.436 312.445 519.923 309.932 516.823 309.932C513.722 309.932 511.209 312.445 511.209 315.545C511.209 318.645 513.722 321.159 516.823 321.159Z" fill="white"/>
<path d="M435.317 241.898C435.317 240.327 433.97 239.204 432.623 239.204C431.051 239.204 429.928 240.551 429.928 241.898C429.928 243.245 431.275 244.593 432.623 244.593C433.97 244.593 435.317 243.47 435.317 241.898Z" fill="white"/>
<path d="M280.389 221.017C280.389 218.771 278.593 217.2 276.572 217.2C274.551 217.2 272.755 218.996 272.755 221.017C272.755 223.262 274.551 224.834 276.572 224.834C278.593 224.834 280.389 223.262 280.389 221.017Z" fill="white"/>
</g>
</g>
</g>
<defs>
<filter id="filter0_d_1_1454" x="0" y="0" width="1448" height="774" filterUnits="userSpaceOnUse" color-interpolation-filters="sRGB">
<feFlood flood-opacity="0" result="BackgroundImageFix"/>
<feColorMatrix in="SourceAlpha" type="matrix" values="0 0 0 0 0 0 0 0 0 0 0 0 0 0 0 0 0 0 127 0" result="hardAlpha"/>
<feOffset dy="4"/>
<feGaussianBlur stdDeviation="2"/>
<feComposite in2="hardAlpha" operator="out"/>
<feColorMatrix type="matrix" values="0 0 0 0 0 0 0 0 0 0 0 0 0 0 0 0 0 0 0.25 0"/>
<feBlend mode="normal" in2="BackgroundImageFix" result="effect1_dropShadow_1_1454"/>
<feBlend mode="normal" in="SourceGraphic" in2="effect1_dropShadow_1_1454" result="shape"/>
</filter>
<radialGradient id="paint0_radial_1_1454" cx="0" cy="0" r="1" gradientUnits="userSpaceOnUse" gradientTransform="translate(6.73814 101.223) scale(1118.22)">
<stop stop-color="#400A46"/>
<stop offset="0.3326" stop-color="#340A41"/>
<stop offset="0.9337" stop-color="#140A35"/>
<stop offset="1" stop-color="#100A33"/>
</radialGradient>
<radialGradient id="paint1_radial_1_1454" cx="0" cy="0" r="1" gradientUnits="userSpaceOnUse" gradientTransform="translate(506.756 709.524) rotate(180) scale(41.3545 41.5902)">
<stop stop-color="#FA316D"/>
<stop offset="0.0484923" stop-color="#D92B65" stop-opacity="0.9513"/>
<stop offset="0.1186" stop-color="#B0235C" stop-opacity="0.881"/>
<stop offset="0.1951" stop-color="#8B1C53" stop-opacity="0.8042"/>
<stop offset="0.2772" stop-color="#6C174C" stop-opacity="0.7219"/>
<stop offset="0.3664" stop-color="#531246" stop-opacity="0.6323"/>
<stop offset="0.4658" stop-color="#400E42" stop-opacity="0.5326"/>
<stop offset="0.5808" stop-color="#320C3E" stop-opacity="0.4171"/>
<stop offset="0.7257" stop-color="#2A0A3D" stop-opacity="0.2718"/>
<stop offset="0.9965" stop-color="#280A3C" stop-opacity="0"/>
</radialGradient>
<radialGradient id="paint2_radial_1_1454" cx="0" cy="0" r="1" gradientUnits="userSpaceOnUse" gradientTransform="translate(506.78 709.528) rotate(-90) scale(41.3545 41.5902)">
<stop stop-color="#FA316D"/>
<stop offset="0.0484923" stop-color="#D92B65" stop-opacity="0.9513"/>
<stop offset="0.1186" stop-color="#B0235C" stop-opacity="0.881"/>
<stop offset="0.1951" stop-color="#8B1C53" stop-opacity="0.8042"/>
<stop offset="0.2772" stop-color="#6C174C" stop-opacity="0.7219"/>
<stop offset="0.3664" stop-color="#531246" stop-opacity="0.6323"/>
<stop offset="0.4658" stop-color="#400E42" stop-opacity="0.5326"/>
<stop offset="0.5808" stop-color="#320C3E" stop-opacity="0.4171"/>
<stop offset="0.7257" stop-color="#2A0A3D" stop-opacity="0.2718"/>
<stop offset="0.9965" stop-color="#280A3C" stop-opacity="0"/>
</radialGradient>
<radialGradient id="paint3_radial_1_1454" cx="0" cy="0" r="1" gradientUnits="userSpaceOnUse" gradientTransform="translate(1046.76 179.219) rotate(180) scale(26.3972 26.5476)">
<stop stop-color="#FA316D"/>
<stop offset="0.0484923" stop-color="#D92B65" stop-opacity="0.9513"/>
<stop offset="0.1186" stop-color="#B0235C" stop-opacity="0.881"/>
<stop offset="0.1951" stop-color="#8B1C53" stop-opacity="0.8042"/>
<stop offset="0.2772" stop-color="#6C174C" stop-opacity="0.7219"/>
<stop offset="0.3664" stop-color="#531246" stop-opacity="0.6323"/>
<stop offset="0.4658" stop-color="#400E42" stop-opacity="0.5326"/>
<stop offset="0.5808" stop-color="#320C3E" stop-opacity="0.4171"/>
<stop offset="0.7257" stop-color="#2A0A3D" stop-opacity="0.2718"/>
<stop offset="0.9965" stop-color="#280A3C" stop-opacity="0"/>
</radialGradient>
<radialGradient id="paint4_radial_1_1454" cx="0" cy="0" r="1" gradientUnits="userSpaceOnUse" gradientTransform="translate(1046.77 179.234) rotate(-90) scale(26.3972 26.5476)">
<stop stop-color="#FA316D"/>
<stop offset="0.0484923" stop-color="#D92B65" stop-opacity="0.9513"/>
<stop offset="0.1186" stop-color="#B0235C" stop-opacity="0.881"/>
<stop offset="0.1951" stop-color="#8B1C53" stop-opacity="0.8042"/>
<stop offset="0.2772" stop-color="#6C174C" stop-opacity="0.7219"/>
<stop offset="0.3664" stop-color="#531246" stop-opacity="0.6323"/>
<stop offset="0.4658" stop-color="#400E42" stop-opacity="0.5326"/>
<stop offset="0.5808" stop-color="#320C3E" stop-opacity="0.4171"/>
<stop offset="0.7257" stop-color="#2A0A3D" stop-opacity="0.2718"/>
<stop offset="0.9965" stop-color="#280A3C" stop-opacity="0"/>
</radialGradient>
<radialGradient id="paint5_radial_1_1454" cx="0" cy="0" r="1" gradientUnits="userSpaceOnUse" gradientTransform="translate(954.052 720.884) rotate(145.918) scale(14.9818 36.2526)">
<stop stop-color="#FFC66A"/>
<stop offset="0.1172" stop-color="#FFDA81" stop-opacity="0.8828"/>
<stop offset="0.2557" stop-color="#FFEA94" stop-opacity="0.7443"/>
<stop offset="0.4169" stop-color="#FFF6A2" stop-opacity="0.5831"/>
<stop offset="0.62" stop-color="#FFFDAA" stop-opacity="0.38"/>
<stop offset="1" stop-color="#FFFFAC" stop-opacity="0"/>
</radialGradient>
<radialGradient id="paint6_radial_1_1454" cx="0" cy="0" r="1" gradientUnits="userSpaceOnUse" gradientTransform="translate(954.052 720.884) rotate(-124.082) scale(14.9819 36.2528)">
<stop stop-color="#FFC66A"/>
<stop offset="0.1172" stop-color="#FFDA81" stop-opacity="0.8828"/>
<stop offset="0.2557" stop-color="#FFEA94" stop-opacity="0.7443"/>
<stop offset="0.4169" stop-color="#FFF6A2" stop-opacity="0.5831"/>
<stop offset="0.62" stop-color="#FFFDAA" stop-opacity="0.38"/>
<stop offset="1" stop-color="#FFFFAC" stop-opacity="0"/>
</radialGradient>
<radialGradient id="paint7_radial_1_1454" cx="0" cy="0" r="1" gradientUnits="userSpaceOnUse" gradientTransform="translate(526.819 280.56) rotate(145.918) scale(14.9818 36.2526)">
<stop stop-color="#FFC66A"/>
<stop offset="0.0661016" stop-color="#D09E60" stop-opacity="0.9339"/>
<stop offset="0.1352" stop-color="#A77C57" stop-opacity="0.8648"/>
<stop offset="0.2106" stop-color="#825D4F" stop-opacity="0.7894"/>
<stop offset="0.2914" stop-color="#634348" stop-opacity="0.7086"/>
<stop offset="0.3794" stop-color="#4A2E42" stop-opacity="0.6206"/>
<stop offset="0.4773" stop-color="#371E3E" stop-opacity="0.5227"/>
<stop offset="0.5906" stop-color="#29133B" stop-opacity="0.4094"/>
<stop offset="0.7332" stop-color="#210C3A" stop-opacity="0.2668"/>
<stop offset="1" stop-color="#1F0A39" stop-opacity="0"/>
</radialGradient>
<radialGradient id="paint8_radial_1_1454" cx="0" cy="0" r="1" gradientUnits="userSpaceOnUse" gradientTransform="translate(526.819 280.56) rotate(-124.082) scale(14.9819 36.2528)">
<stop stop-color="#FFC66A"/>
<stop offset="0.0661016" stop-color="#D09E60" stop-opacity="0.9339"/>
<stop offset="0.1352" stop-color="#A77C57" stop-opacity="0.8648"/>
<stop offset="0.2106" stop-color="#825D4F" stop-opacity="0.7894"/>
<stop offset="0.2914" stop-color="#634348" stop-opacity="0.7086"/>
<stop offset="0.3794" stop-color="#4A2E42" stop-opacity="0.6206"/>
<stop offset="0.4773" stop-color="#371E3E" stop-opacity="0.5227"/>
<stop offset="0.5906" stop-color="#29133B" stop-opacity="0.4094"/>
<stop offset="0.7332" stop-color="#210C3A" stop-opacity="0.2668"/>
<stop offset="1" stop-color="#1F0A39" stop-opacity="0"/>
</radialGradient>
<clipPath id="clip0_1_1454">
<rect width="1440" height="766" fill="white" transform="translate(4)"/>
</clipPath>
</defs>
</svg>
